<?xml version="1.0" encoding="utf-8" ?>
<svg baseProfile="full" height="410" version="1.1" width="1460" xmlns="http://www.w3.org/2000/svg" xmlns:ev="http://www.w3.org/2001/xml-events" xmlns:xlink="http://www.w3.org/1999/xlink"><defs /><rect fill="white" height="410" width="1460" x="0" y="0" /><g transform="translate(0,0)"><defs /></g><g transform="translate(0,0)"><circle cx="150" cy="20" fill="black" r="5" stroke="black" /></g><g transform="translate(0,0)"><text font-size="14px" text-anchor="middle" x="150" y="24">•</text></g><g transform="translate(0,0)"><line stroke="black" x1="150" x2="200" y1="20" y2="70" /></g><g transform="translate(0,0)"><circle cx="200" cy="70" fill="black" r="5" stroke="black" /></g><g transform="translate(0,0)"><text font-size="14px" text-anchor="middle" x="200" y="74">•</text></g><g transform="translate(0,0)"><line stroke="black" x1="200" x2="250" y1="70" y2="120" /></g><g transform="translate(0,0)"><circle cx="250" cy="120" fill="black" r="5" stroke="black" /></g><g transform="translate(0,0)"><text font-size="14px" text-anchor="middle" x="250" y="124">•</text></g><g transform="translate(0,0)"><line stroke="black" x1="250" x2="300" y1="120" y2="170" /></g><g transform="translate(0,0)"><circle cx="300" cy="170" fill="black" r="5" stroke="black" /></g><g transform="translate(0,0)"><text font-size="14px" text-anchor="middle" x="300" y="174">•</text></g><g transform="translate(210,0)"><defs /></g><g transform="translate(210,0)"><circle cx="125" cy="20" fill="black" r="5" stroke="black" /></g><g transform="translate(210,0)"><text font-size="14px" text-anchor="middle" x="125" y="24">•</text></g><g transform="translate(210,0)"><line stroke="black" x1="125" x2="175" y1="20" y2="70" /></g><g transform="translate(210,0)"><circle cx="175" cy="70" fill="black" r="5" stroke="black" /></g><g transform="translate(210,0)"><text font-size="14px" text-anchor="middle" x="175" y="74">•</text></g><g transform="translate(210,0)"><line stroke="black" x1="175" x2="225" y1="70" y2="120" /></g><g transform="translate(210,0)"><circle cx="225" cy="120" fill="black" r="5" stroke="black" /></g><g transform="translate(210,0)"><text font-size="14px" text-anchor="middle" x="225" y="124">•</text></g><g transform="translate(210,0)"><line stroke="black" x1="225" x2="175" y1="120" y2="170" /></g><g transform="translate(210,0)"><circle cx="175" cy="170" fill="black" r="5" stroke="black" /></g><g transform="translate(210,0)"><text font-size="14px" text-anchor="middle" x="175" y="174">•</text></g><g transform="translate(420,0)"><defs /></g><g transform="translate(420,0)"><circle cx="125" cy="20" fill="black" r="5" stroke="black" /></g><g transform="translate(420,0)"><text font-size="14px" text-anchor="middle" x="125" y="24">•</text></g><g transform="translate(420,0)"><line stroke="black" x1="125" x2="175" y1="20" y2="70" /></g><g transform="translate(420,0)"><circle cx="175" cy="70" fill="black" r="5" stroke="black" /></g><g transform="translate(420,0)"><text font-size="14px" text-anchor="middle" x="175" y="74">•</text></g><g transform="translate(420,0)"><line stroke="black" x1="175" x2="125" y1="70" y2="120" /></g><g transform="translate(420,0)"><circle cx="125" cy="120" fill="black" r="5" stroke="black" /></g><g transform="translate(420,0)"><text font-size="14px" text-anchor="middle" x="125" y="124">•</text></g><g transform="translate(420,0)"><line stroke="black" x1="175" x2="225" y1="70" y2="120" /></g><g transform="translate(420,0)"><circle cx="225" cy="120" fill="black" r="5" stroke="black" /></g><g transform="translate(420,0)"><text font-size="14px" text-anchor="middle" x="225" y="124">•</text></g><g transform="translate(630,0)"><defs /></g><g transform="translate(630,0)"><circle cx="100" cy="20" fill="black" r="5" stroke="black" /></g><g transform="translate(630,0)"><text font-size="14px" text-anchor="middle" x="100" y="24">•</text></g><g transform="translate(630,0)"><line stroke="black" x1="100" x2="150" y1="20" y2="70" /></g><g transform="translate(630,0)"><circle cx="150" cy="70" fill="black" r="5" stroke="black" /></g><g transform="translate(630,0)"><text font-size="14px" text-anchor="middle" x="150" y="74">•</text></g><g transform="translate(630,0)"><line stroke="black" x1="150" x2="100" y1="70" y2="120" /></g><g transform="translate(630,0)"><circle cx="100" cy="120" fill="black" r="5" stroke="black" /></g><g transform="translate(630,0)"><text font-size="14px" text-anchor="middle" x="100" y="124">•</text></g><g transform="translate(630,0)"><line stroke="black" x1="100" x2="150" y1="120" y2="170" /></g><g transform="translate(630,0)"><circle cx="150" cy="170" fill="black" r="5" stroke="black" /></g><g transform="translate(630,0)"><text font-size="14px" text-anchor="middle" x="150" y="174">•</text></g><g transform="translate(840,0)"><defs /></g><g transform="translate(840,0)"><circle cx="100" cy="20" fill="black" r="5" stroke="black" /></g><g transform="translate(840,0)"><text font-size="14px" text-anchor="middle" x="100" y="24">•</text></g><g transform="translate(840,0)"><line stroke="black" x1="100" x2="150" y1="20" y2="70" /></g><g transform="translate(840,0)"><circle cx="150" cy="70" fill="black" r="5" stroke="black" /></g><g transform="translate(840,0)"><text font-size="14px" text-anchor="middle" x="150" y="74">•</text></g><g transform="translate(840,0)"><line stroke="black" x1="150" x2="100" y1="70" y2="120" /></g><g transform="translate(840,0)"><circle cx="100" cy="120" fill="black" r="5" stroke="black" /></g><g transform="translate(840,0)"><text font-size="14px" text-anchor="middle" x="100" y="124">•</text></g><g transform="translate(840,0)"><line stroke="black" x1="100" x2="50" y1="120" y2="170" /></g><g transform="translate(840,0)"><circle cx="50" cy="170" fill="black" r="5" stroke="black" /></g><g transform="translate(840,0)"><text font-size="14px" text-anchor="middle" x="50" y="174">•</text></g><g transform="translate(1050,0)"><defs /></g><g transform="translate(1050,0)"><circle cx="125" cy="20" fill="black" r="5" stroke="black" /></g><g transform="translate(1050,0)"><text font-size="14px" text-anchor="middle" x="125" y="24">•</text></g><g transform="translate(1050,0)"><line stroke="black" x1="125" x2="75" y1="20" y2="70" /></g><g transform="translate(1050,0)"><circle cx="75" cy="70" fill="black" r="5" stroke="black" /></g><g transform="translate(1050,0)"><text font-size="14px" text-anchor="middle" x="75" y="74">•</text></g><g transform="translate(1050,0)"><line stroke="black" x1="125" x2="175" y1="20" y2="70" /></g><g transform="translate(1050,0)"><circle cx="175" cy="70" fill="black" r="5" stroke="black" /></g><g transform="translate(1050,0)"><text font-size="14px" text-anchor="middle" x="175" y="74">•</text></g><g transform="translate(1050,0)"><line stroke="black" x1="175" x2="225" y1="70" y2="120" /></g><g transform="translate(1050,0)"><circle cx="225" cy="120" fill="black" r="5" stroke="black" /></g><g transform="translate(1050,0)"><text font-size="14px" text-anchor="middle" x="225" y="124">•</text></g><g transform="translate(1260,0)"><defs /></g><g transform="translate(1260,0)"><circle cx="100" cy="20" fill="black" r="5" stroke="black" /></g><g transform="translate(1260,0)"><text font-size="14px" text-anchor="middle" x="100" y="24">•</text></g><g transform="translate(1260,0)"><line stroke="black" x1="100" x2="50" y1="20" y2="70" /></g><g transform="translate(1260,0)"><circle cx="50" cy="70" fill="black" r="5" stroke="black" /></g><g transform="translate(1260,0)"><text font-size="14px" text-anchor="middle" x="50" y="74">•</text></g><g transform="translate(1260,0)"><line stroke="black" x1="100" x2="150" y1="20" y2="70" /></g><g transform="translate(1260,0)"><circle cx="150" cy="70" fill="black" r="5" stroke="black" /></g><g transform="translate(1260,0)"><text font-size="14px" text-anchor="middle" x="150" y="74">•</text></g><g transform="translate(1260,0)"><line stroke="black" x1="150" x2="100" y1="70" y2="120" /></g><g transform="translate(1260,0)"><circle cx="100" cy="120" fill="black" r="5" stroke="black" /></g><g transform="translate(1260,0)"><text font-size="14px" text-anchor="middle" x="100" y="124">•</text></g><g transform="translate(0,210)"><defs /></g><g transform="translate(0,210)"><circle cx="100" cy="20" fill="black" r="5" stroke="black" /></g><g transform="translate(0,210)"><text font-size="14px" text-anchor="middle" x="100" y="24">•</text></g><g transform="translate(0,210)"><line stroke="black" x1="100" x2="50" y1="20" y2="70" /></g><g transform="translate(0,210)"><circle cx="50" cy="70" fill="black" r="5" stroke="black" /></g><g transform="translate(0,210)"><text font-size="14px" text-anchor="middle" x="50" y="74">•</text></g><g transform="translate(0,210)"><line stroke="black" x1="50" x2="100" y1="70" y2="120" /></g><g transform="translate(0,210)"><circle cx="100" cy="120" fill="black" r="5" stroke="black" /></g><g transform="translate(0,210)"><text font-size="14px" text-anchor="middle" x="100" y="124">•</text></g><g transform="translate(0,210)"><line stroke="black" x1="100" x2="150" y1="20" y2="70" /></g><g transform="translate(0,210)"><circle cx="150" cy="70" fill="black" r="5" stroke="black" /></g><g transform="translate(0,210)"><text font-size="14px" text-anchor="middle" x="150" y="74">•</text></g><g transform="translate(210,210)"><defs /></g><g transform="translate(210,210)"><circle cx="100" cy="20" fill="black" r="5" stroke="black" /></g><g transform="translate(210,210)"><text font-size="14px" text-anchor="middle" x="100" y="24">•</text></g><g transform="translate(210,210)"><line stroke="black" x1="100" x2="50" y1="20" y2="70" /></g><g transform="translate(210,210)"><circle cx="50" cy="70" fill="black" r="5" stroke="black" /></g><g transform="translate(210,210)"><text font-size="14px" text-anchor="middle" x="50" y="74">•</text></g><g transform="translate(210,210)"><line stroke="black" x1="50" x2="0" y1="70" y2="120" /></g><g transform="translate(210,210)"><circle cx="0" cy="120" fill="black" r="5" stroke="black" /></g><g transform="translate(210,210)"><text font-size="14px" text-anchor="middle" x="0" y="124">•</text></g><g transform="translate(210,210)"><line stroke="black" x1="100" x2="150" y1="20" y2="70" /></g><g transform="translate(210,210)"><circle cx="150" cy="70" fill="black" r="5" stroke="black" /></g><g transform="translate(210,210)"><text font-size="14px" text-anchor="middle" x="150" y="74">•</text></g><g transform="translate(420,210)"><defs /></g><g transform="translate(420,210)"><circle cx="100" cy="20" fill="black" r="5" stroke="black" /></g><g transform="translate(420,210)"><text font-size="14px" text-anchor="middle" x="100" y="24">•</text></g><g transform="translate(420,210)"><line stroke="black" x1="100" x2="50" y1="20" y2="70" /></g><g transform="translate(420,210)"><circle cx="50" cy="70" fill="black" r="5" stroke="black" /></g><g transform="translate(420,210)"><text font-size="14px" text-anchor="middle" x="50" y="74">•</text></g><g transform="translate(420,210)"><line stroke="black" x1="50" x2="100" y1="70" y2="120" /></g><g transform="translate(420,210)"><circle cx="100" cy="120" fill="black" r="5" stroke="black" /></g><g transform="translate(420,210)"><text font-size="14px" text-anchor="middle" x="100" y="124">•</text></g><g transform="translate(420,210)"><line stroke="black" x1="100" x2="150" y1="120" y2="170" /></g><g transform="translate(420,210)"><circle cx="150" cy="170" fill="black" r="5" stroke="black" /></g><g transform="translate(420,210)"><text font-size="14px" text-anchor="middle" x="150" y="174">•</text></g><g transform="translate(630,210)"><defs /></g><g transform="translate(630,210)"><circle cx="75" cy="20" fill="black" r="5" stroke="black" /></g><g transform="translate(630,210)"><text font-size="14px" text-anchor="middle" x="75" y="24">•</text></g><g transform="translate(630,210)"><line stroke="black" x1="75" x2="25" y1="20" y2="70" /></g><g transform="translate(630,210)"><circle cx="25" cy="70" fill="black" r="5" stroke="black" /></g><g transform="translate(630,210)"><text font-size="14px" text-anchor="middle" x="25" y="74">•</text></g><g transform="translate(630,210)"><line stroke="black" x1="25" x2="75" y1="70" y2="120" /></g><g transform="translate(630,210)"><circle cx="75" cy="120" fill="black" r="5" stroke="black" /></g><g transform="translate(630,210)"><text font-size="14px" text-anchor="middle" x="75" y="124">•</text></g><g transform="translate(630,210)"><line stroke="black" x1="75" x2="25" y1="120" y2="170" /></g><g transform="translate(630,210)"><circle cx="25" cy="170" fill="black" r="5" stroke="black" /></g><g transform="translate(630,210)"><text font-size="14px" text-anchor="middle" x="25" y="174">•</text></g><g transform="translate(840,210)"><defs /></g><g transform="translate(840,210)"><circle cx="75" cy="20" fill="black" r="5" stroke="black" /></g><g transform="translate(840,210)"><text font-size="14px" text-anchor="middle" x="75" y="24">•</text></g><g transform="translate(840,210)"><line stroke="black" x1="75" x2="25" y1="20" y2="70" /></g><g transform="translate(840,210)"><circle cx="25" cy="70" fill="black" r="5" stroke="black" /></g><g transform="translate(840,210)"><text font-size="14px" text-anchor="middle" x="25" y="74">•</text></g><g transform="translate(840,210)"><line stroke="black" x1="25" x2="-25" y1="70" y2="120" /></g><g transform="translate(840,210)"><circle cx="-25" cy="120" fill="black" r="5" stroke="black" /></g><g transform="translate(840,210)"><text font-size="14px" text-anchor="middle" x="-25" y="124">•</text></g><g transform="translate(840,210)"><line stroke="black" x1="25" x2="75" y1="70" y2="120" /></g><g transform="translate(840,210)"><circle cx="75" cy="120" fill="black" r="5" stroke="black" /></g><g transform="translate(840,210)"><text font-size="14px" text-anchor="middle" x="75" y="124">•</text></g><g transform="translate(1050,210)"><defs /></g><g transform="translate(1050,210)"><circle cx="75" cy="20" fill="black" r="5" stroke="black" /></g><g transform="translate(1050,210)"><text font-size="14px" text-anchor="middle" x="75" y="24">•</text></g><g transform="translate(1050,210)"><line stroke="black" x1="75" x2="25" y1="20" y2="70" /></g><g transform="translate(1050,210)"><circle cx="25" cy="70" fill="black" r="5" stroke="black" /></g><g transform="translate(1050,210)"><text font-size="14px" text-anchor="middle" x="25" y="74">•</text></g><g transform="translate(1050,210)"><line stroke="black" x1="25" x2="-25" y1="70" y2="120" /></g><g transform="translate(1050,210)"><circle cx="-25" cy="120" fill="black" r="5" stroke="black" /></g><g transform="translate(1050,210)"><text font-size="14px" text-anchor="middle" x="-25" y="124">•</text></g><g transform="translate(1050,210)"><line stroke="black" x1="-25" x2="25" y1="120" y2="170" /></g><g transform="translate(1050,210)"><circle cx="25" cy="170" fill="black" r="5" stroke="black" /></g><g transform="translate(1050,210)"><text font-size="14px" text-anchor="middle" x="25" y="174">•</text></g><g transform="translate(1260,210)"><defs /></g><g transform="translate(1260,210)"><circle cx="75" cy="20" fill="black" r="5" stroke="black" /></g><g transform="translate(1260,210)"><text font-size="14px" text-anchor="middle" x="75" y="24">•</text></g><g transform="translate(1260,210)"><line stroke="black" x1="75" x2="25" y1="20" y2="70" /></g><g transform="translate(1260,210)"><circle cx="25" cy="70" fill="black" r="5" stroke="black" /></g><g transform="translate(1260,210)"><text font-size="14px" text-anchor="middle" x="25" y="74">•</text></g><g transform="translate(1260,210)"><line stroke="black" x1="25" x2="-25" y1="70" y2="120" /></g><g transform="translate(1260,210)"><circle cx="-25" cy="120" fill="black" r="5" stroke="black" /></g><g transform="translate(1260,210)"><text font-size="14px" text-anchor="middle" x="-25" y="124">•</text></g><g transform="translate(1260,210)"><line stroke="black" x1="-25" x2="-75" y1="120" y2="170" /></g><g transform="translate(1260,210)"><circle cx="-75" cy="170" fill="black" r="5" stroke="black" /></g><g transform="translate(1260,210)"><text font-size="14px" text-anchor="middle" x="-75" y="174">•</text></g></svg>