<?xml version="1.0" encoding="utf-8" ?>
<svg baseProfile="full" height="570" version="1.1" width="570" xmlns="http://www.w3.org/2000/svg" xmlns:ev="http://www.w3.org/2001/xml-events" xmlns:xlink="http://www.w3.org/1999/xlink"><defs /><circle cx="285" cy="285" fill="none" r="30" stroke="black" stroke-width="2" /><path d="M314.85012495834076,282.00499750059515 A30,30 0 1,1 255.14987504165921,282.00499750059515" fill="none" stroke="black" stroke-width="5" /><circle cx="285" cy="285" fill="none" r="45" stroke="black" stroke-width="2" /><path d="M240.22481256248884,289.4925037491073 A45,45 0 1,1 329.77518743751114,289.49250374910724" fill="none" stroke="black" stroke-width="5" /><circle cx="285" cy="285" fill="none" r="60" stroke="black" stroke-width="2" /><path d="M225.29975008331846,290.9900049988097 A60,60 0 1,1 344.70024991668157,290.99000499880964" fill="none" stroke="black" stroke-width="5" /><circle cx="285" cy="285" fill="none" r="105" stroke="black" stroke-width="2" /><path d="M389.4754373541927,274.51749125208306 A105,105 0 0,1 274.51749125208306,389.4754373541927" fill="none" stroke="black" stroke-width="5" /><path d="M180.5245626458073,295.482508747917 A105,105 0 0,1 295.4825087479169,180.5245626458073" fill="none" stroke="black" stroke-width="5" /><circle cx="285" cy="285" fill="none" r="120" stroke="black" stroke-width="2" /><path d="M273.01999000238067,165.59950016663691 A120,120 0 0,1 404.4004998333631,296.98000999761933" fill="none" stroke="black" stroke-width="5" /><circle cx="285" cy="285" fill="none" r="135" stroke="black" stroke-width="2" /><path d="M419.3255623125335,271.5224887526782 A135,135 0 0,1 271.5224887526782,419.32556231253346" fill="none" stroke="black" stroke-width="5" /><path d="M150.67443768746654,298.47751124732184 A135,135 0 0,1 298.47751124732173,150.6744376874665" fill="none" stroke="black" stroke-width="5" /><circle cx="285" cy="285" fill="none" r="180" stroke="black" stroke-width="2" /><path d="M464.10074975004466,267.0299850035709 A180,180 0 0,1 398.9366352018525,424.35007412585037" fill="none" stroke="black" stroke-width="5" /><path d="M302.9700149964291,464.10074975004466 A180,180 0 0,1 145.64992587414963,398.9366352018525" fill="none" stroke="black" stroke-width="5" /><path d="M105.89925024995537,302.9700149964291 A180,180 0 0,1 171.06336479814746,145.6499258741497" fill="none" stroke="black" stroke-width="5" /><path d="M267.02998500357097,105.89925024995534 A180,180 0 0,1 424.3500741258503,171.06336479814746" fill="none" stroke="black" stroke-width="5" /><circle cx="285" cy="285" fill="none" r="195" stroke="black" stroke-width="2" /><path d="M479.02581222921503,265.5324837538685 A195,195 0 0,1 408.43135480200687,435.96258030300453" fill="none" stroke="black" stroke-width="5" /><path d="M161.5686451979932,435.9625803030046 A195,195 0 0,1 90.97418777078497,265.5324837538685" fill="none" stroke="black" stroke-width="5" /><path d="M265.5324837538685,90.97418777078497 A195,195 0 0,1 435.96258030300453,161.56864519799308" fill="none" stroke="black" stroke-width="5" /><circle cx="285" cy="285" fill="none" r="210" stroke="black" stroke-width="2" /><path d="M305.96501749583393,493.9508747083854 A210,210 0 0,1 122.42491351984125,417.92607440216125" fill="none" stroke="black" stroke-width="5" /><path d="M417.92607440216125,122.42491351984125 A210,210 0 0,1 493.9508747083854,305.96501749583376" fill="none" stroke="black" stroke-width="5" /><circle cx="285" cy="285" fill="none" r="225" stroke="black" stroke-width="2" /><path d="M459.18759265731296,427.4207940023156 A225,225 0 0,1 262.53748125446367,508.8759371875558" fill="none" stroke="black" stroke-width="5" /><path d="M142.57920599768443,459.18759265731296 A225,225 0 0,1 61.12406281244418,262.53748125446367" fill="none" stroke="black" stroke-width="5" /><path d="M262.5374812544637,61.12406281244418 A225,225 0 0,1 459.18759265731285,142.5792059976843" fill="none" stroke="black" stroke-width="5" /><circle cx="285" cy="285" fill="none" r="240" stroke="black" stroke-width="2" /><path d="M523.8009996667262,261.0399800047612 A240,240 0 0,1 436.91551360247,470.8000988344671" fill="none" stroke="black" stroke-width="5" /><path d="M261.0399800047613,46.1990003332738 A240,240 0 0,1 470.80009883446706,133.08448639752993" fill="none" stroke="black" stroke-width="5" /></svg>