<?xml version="1.0" encoding="utf-8" ?>
<svg baseProfile="full" height="310" version="1.1" width="1110" xmlns="http://www.w3.org/2000/svg" xmlns:ev="http://www.w3.org/2001/xml-events" xmlns:xlink="http://www.w3.org/1999/xlink"><defs /><rect fill="white" height="310" width="1110" x="0" y="0" /><g transform="translate(0,0)"><defs /></g><g transform="translate(0,0)"><circle cx="120.0" cy="70.0" fill="black" r="6" /></g><g transform="translate(0,0)"><circle cx="105.35533905932738" cy="105.35533905932738" fill="black" r="6" /></g><g transform="translate(0,0)"><circle cx="70.0" cy="120.0" fill="black" r="6" /></g><g transform="translate(0,0)"><circle cx="34.64466094067263" cy="105.35533905932738" fill="black" r="6" /></g><g transform="translate(0,0)"><circle cx="20.0" cy="70.0" fill="black" r="6" /></g><g transform="translate(0,0)"><circle cx="34.644660940672615" cy="34.64466094067263" fill="black" r="6" /></g><g transform="translate(0,0)"><circle cx="69.99999999999999" cy="20.0" fill="black" r="6" /></g><g transform="translate(0,0)"><circle cx="105.35533905932738" cy="34.644660940672615" fill="black" r="6" /></g><g transform="translate(0,0)"><line stroke="black" stroke-width="2" x1="34.64466094067263" x2="20.0" y1="105.35533905932738" y2="70.0" /></g><g transform="translate(0,0)"><line stroke="black" stroke-width="2" x1="70.0" x2="34.644660940672615" y1="120.0" y2="34.64466094067263" /></g><g transform="translate(0,0)"><line stroke="black" stroke-width="2" x1="105.35533905932738" x2="69.99999999999999" y1="105.35533905932738" y2="20.0" /></g><g transform="translate(0,0)"><line stroke="black" stroke-width="2" x1="120.0" x2="105.35533905932738" y1="70.0" y2="34.644660940672615" /></g><g transform="translate(160,0)"><defs /></g><g transform="translate(160,0)"><circle cx="120.0" cy="70.0" fill="black" r="6" /></g><g transform="translate(160,0)"><circle cx="105.35533905932738" cy="105.35533905932738" fill="black" r="6" /></g><g transform="translate(160,0)"><circle cx="70.0" cy="120.0" fill="black" r="6" /></g><g transform="translate(160,0)"><circle cx="34.64466094067263" cy="105.35533905932738" fill="black" r="6" /></g><g transform="translate(160,0)"><circle cx="20.0" cy="70.0" fill="black" r="6" /></g><g transform="translate(160,0)"><circle cx="34.644660940672615" cy="34.64466094067263" fill="black" r="6" /></g><g transform="translate(160,0)"><circle cx="69.99999999999999" cy="20.0" fill="black" r="6" /></g><g transform="translate(160,0)"><circle cx="105.35533905932738" cy="34.644660940672615" fill="black" r="6" /></g><g transform="translate(160,0)"><line stroke="black" stroke-width="2" x1="70.0" x2="34.64466094067263" y1="120.0" y2="105.35533905932738" /></g><g transform="translate(160,0)"><line stroke="black" stroke-width="2" x1="20.0" x2="34.644660940672615" y1="70.0" y2="34.64466094067263" /></g><g transform="translate(160,0)"><line stroke="black" stroke-width="2" x1="105.35533905932738" x2="69.99999999999999" y1="105.35533905932738" y2="20.0" /></g><g transform="translate(160,0)"><line stroke="black" stroke-width="2" x1="120.0" x2="105.35533905932738" y1="70.0" y2="34.644660940672615" /></g><g transform="translate(320,0)"><defs /></g><g transform="translate(320,0)"><circle cx="120.0" cy="70.0" fill="black" r="6" /></g><g transform="translate(320,0)"><circle cx="105.35533905932738" cy="105.35533905932738" fill="black" r="6" /></g><g transform="translate(320,0)"><circle cx="70.0" cy="120.0" fill="black" r="6" /></g><g transform="translate(320,0)"><circle cx="34.64466094067263" cy="105.35533905932738" fill="black" r="6" /></g><g transform="translate(320,0)"><circle cx="20.0" cy="70.0" fill="black" r="6" /></g><g transform="translate(320,0)"><circle cx="34.644660940672615" cy="34.64466094067263" fill="black" r="6" /></g><g transform="translate(320,0)"><circle cx="69.99999999999999" cy="20.0" fill="black" r="6" /></g><g transform="translate(320,0)"><circle cx="105.35533905932738" cy="34.644660940672615" fill="black" r="6" /></g><g transform="translate(320,0)"><line stroke="black" stroke-width="2" x1="70.0" x2="34.64466094067263" y1="120.0" y2="105.35533905932738" /></g><g transform="translate(320,0)"><line stroke="black" stroke-width="2" x1="105.35533905932738" x2="20.0" y1="105.35533905932738" y2="70.0" /></g><g transform="translate(320,0)"><line stroke="black" stroke-width="2" x1="34.644660940672615" x2="69.99999999999999" y1="34.64466094067263" y2="20.0" /></g><g transform="translate(320,0)"><line stroke="black" stroke-width="2" x1="120.0" x2="105.35533905932738" y1="70.0" y2="34.644660940672615" /></g><g transform="translate(480,0)"><defs /></g><g transform="translate(480,0)"><circle cx="120.0" cy="70.0" fill="black" r="6" /></g><g transform="translate(480,0)"><circle cx="105.35533905932738" cy="105.35533905932738" fill="black" r="6" /></g><g transform="translate(480,0)"><circle cx="70.0" cy="120.0" fill="black" r="6" /></g><g transform="translate(480,0)"><circle cx="34.64466094067263" cy="105.35533905932738" fill="black" r="6" /></g><g transform="translate(480,0)"><circle cx="20.0" cy="70.0" fill="black" r="6" /></g><g transform="translate(480,0)"><circle cx="34.644660940672615" cy="34.64466094067263" fill="black" r="6" /></g><g transform="translate(480,0)"><circle cx="69.99999999999999" cy="20.0" fill="black" r="6" /></g><g transform="translate(480,0)"><circle cx="105.35533905932738" cy="34.644660940672615" fill="black" r="6" /></g><g transform="translate(480,0)"><line stroke="black" stroke-width="2" x1="70.0" x2="34.64466094067263" y1="120.0" y2="105.35533905932738" /></g><g transform="translate(480,0)"><line stroke="black" stroke-width="2" x1="105.35533905932738" x2="20.0" y1="105.35533905932738" y2="70.0" /></g><g transform="translate(480,0)"><line stroke="black" stroke-width="2" x1="120.0" x2="34.644660940672615" y1="70.0" y2="34.64466094067263" /></g><g transform="translate(480,0)"><line stroke="black" stroke-width="2" x1="69.99999999999999" x2="105.35533905932738" y1="20.0" y2="34.644660940672615" /></g><g transform="translate(640,0)"><defs /></g><g transform="translate(640,0)"><circle cx="120.0" cy="70.0" fill="black" r="6" /></g><g transform="translate(640,0)"><circle cx="105.35533905932738" cy="105.35533905932738" fill="black" r="6" /></g><g transform="translate(640,0)"><circle cx="70.0" cy="120.0" fill="black" r="6" /></g><g transform="translate(640,0)"><circle cx="34.64466094067263" cy="105.35533905932738" fill="black" r="6" /></g><g transform="translate(640,0)"><circle cx="20.0" cy="70.0" fill="black" r="6" /></g><g transform="translate(640,0)"><circle cx="34.644660940672615" cy="34.64466094067263" fill="black" r="6" /></g><g transform="translate(640,0)"><circle cx="69.99999999999999" cy="20.0" fill="black" r="6" /></g><g transform="translate(640,0)"><circle cx="105.35533905932738" cy="34.644660940672615" fill="black" r="6" /></g><g transform="translate(640,0)"><line stroke="black" stroke-width="2" x1="105.35533905932738" x2="70.0" y1="105.35533905932738" y2="120.0" /></g><g transform="translate(640,0)"><line stroke="black" stroke-width="2" x1="20.0" x2="34.644660940672615" y1="70.0" y2="34.64466094067263" /></g><g transform="translate(640,0)"><line stroke="black" stroke-width="2" x1="34.64466094067263" x2="69.99999999999999" y1="105.35533905932738" y2="20.0" /></g><g transform="translate(640,0)"><line stroke="black" stroke-width="2" x1="120.0" x2="105.35533905932738" y1="70.0" y2="34.644660940672615" /></g><g transform="translate(800,0)"><defs /></g><g transform="translate(800,0)"><circle cx="120.0" cy="70.0" fill="black" r="6" /></g><g transform="translate(800,0)"><circle cx="105.35533905932738" cy="105.35533905932738" fill="black" r="6" /></g><g transform="translate(800,0)"><circle cx="70.0" cy="120.0" fill="black" r="6" /></g><g transform="translate(800,0)"><circle cx="34.64466094067263" cy="105.35533905932738" fill="black" r="6" /></g><g transform="translate(800,0)"><circle cx="20.0" cy="70.0" fill="black" r="6" /></g><g transform="translate(800,0)"><circle cx="34.644660940672615" cy="34.64466094067263" fill="black" r="6" /></g><g transform="translate(800,0)"><circle cx="69.99999999999999" cy="20.0" fill="black" r="6" /></g><g transform="translate(800,0)"><circle cx="105.35533905932738" cy="34.644660940672615" fill="black" r="6" /></g><g transform="translate(800,0)"><line stroke="black" stroke-width="2" x1="105.35533905932738" x2="70.0" y1="105.35533905932738" y2="120.0" /></g><g transform="translate(800,0)"><line stroke="black" stroke-width="2" x1="34.64466094067263" x2="20.0" y1="105.35533905932738" y2="70.0" /></g><g transform="translate(800,0)"><line stroke="black" stroke-width="2" x1="34.644660940672615" x2="69.99999999999999" y1="34.64466094067263" y2="20.0" /></g><g transform="translate(800,0)"><line stroke="black" stroke-width="2" x1="120.0" x2="105.35533905932738" y1="70.0" y2="34.644660940672615" /></g><g transform="translate(960,0)"><defs /></g><g transform="translate(960,0)"><circle cx="120.0" cy="70.0" fill="black" r="6" /></g><g transform="translate(960,0)"><circle cx="105.35533905932738" cy="105.35533905932738" fill="black" r="6" /></g><g transform="translate(960,0)"><circle cx="70.0" cy="120.0" fill="black" r="6" /></g><g transform="translate(960,0)"><circle cx="34.64466094067263" cy="105.35533905932738" fill="black" r="6" /></g><g transform="translate(960,0)"><circle cx="20.0" cy="70.0" fill="black" r="6" /></g><g transform="translate(960,0)"><circle cx="34.644660940672615" cy="34.64466094067263" fill="black" r="6" /></g><g transform="translate(960,0)"><circle cx="69.99999999999999" cy="20.0" fill="black" r="6" /></g><g transform="translate(960,0)"><circle cx="105.35533905932738" cy="34.644660940672615" fill="black" r="6" /></g><g transform="translate(960,0)"><line stroke="black" stroke-width="2" x1="105.35533905932738" x2="70.0" y1="105.35533905932738" y2="120.0" /></g><g transform="translate(960,0)"><line stroke="black" stroke-width="2" x1="34.64466094067263" x2="20.0" y1="105.35533905932738" y2="70.0" /></g><g transform="translate(960,0)"><line stroke="black" stroke-width="2" x1="120.0" x2="34.644660940672615" y1="70.0" y2="34.64466094067263" /></g><g transform="translate(960,0)"><line stroke="black" stroke-width="2" x1="69.99999999999999" x2="105.35533905932738" y1="20.0" y2="34.644660940672615" /></g><g transform="translate(0,160)"><defs /></g><g transform="translate(0,160)"><circle cx="120.0" cy="70.0" fill="black" r="6" /></g><g transform="translate(0,160)"><circle cx="105.35533905932738" cy="105.35533905932738" fill="black" r="6" /></g><g transform="translate(0,160)"><circle cx="70.0" cy="120.0" fill="black" r="6" /></g><g transform="translate(0,160)"><circle cx="34.64466094067263" cy="105.35533905932738" fill="black" r="6" /></g><g transform="translate(0,160)"><circle cx="20.0" cy="70.0" fill="black" r="6" /></g><g transform="translate(0,160)"><circle cx="34.644660940672615" cy="34.64466094067263" fill="black" r="6" /></g><g transform="translate(0,160)"><circle cx="69.99999999999999" cy="20.0" fill="black" r="6" /></g><g transform="translate(0,160)"><circle cx="105.35533905932738" cy="34.644660940672615" fill="black" r="6" /></g><g transform="translate(0,160)"><line stroke="black" stroke-width="2" x1="105.35533905932738" x2="70.0" y1="105.35533905932738" y2="120.0" /></g><g transform="translate(0,160)"><line stroke="black" stroke-width="2" x1="120.0" x2="34.64466094067263" y1="70.0" y2="105.35533905932738" /></g><g transform="translate(0,160)"><line stroke="black" stroke-width="2" x1="34.644660940672615" x2="69.99999999999999" y1="34.64466094067263" y2="20.0" /></g><g transform="translate(0,160)"><line stroke="black" stroke-width="2" x1="20.0" x2="105.35533905932738" y1="70.0" y2="34.644660940672615" /></g><g transform="translate(160,160)"><defs /></g><g transform="translate(160,160)"><circle cx="120.0" cy="70.0" fill="black" r="6" /></g><g transform="translate(160,160)"><circle cx="105.35533905932738" cy="105.35533905932738" fill="black" r="6" /></g><g transform="translate(160,160)"><circle cx="70.0" cy="120.0" fill="black" r="6" /></g><g transform="translate(160,160)"><circle cx="34.64466094067263" cy="105.35533905932738" fill="black" r="6" /></g><g transform="translate(160,160)"><circle cx="20.0" cy="70.0" fill="black" r="6" /></g><g transform="translate(160,160)"><circle cx="34.644660940672615" cy="34.64466094067263" fill="black" r="6" /></g><g transform="translate(160,160)"><circle cx="69.99999999999999" cy="20.0" fill="black" r="6" /></g><g transform="translate(160,160)"><circle cx="105.35533905932738" cy="34.644660940672615" fill="black" r="6" /></g><g transform="translate(160,160)"><line stroke="black" stroke-width="2" x1="105.35533905932738" x2="70.0" y1="105.35533905932738" y2="120.0" /></g><g transform="translate(160,160)"><line stroke="black" stroke-width="2" x1="120.0" x2="34.64466094067263" y1="70.0" y2="105.35533905932738" /></g><g transform="translate(160,160)"><line stroke="black" stroke-width="2" x1="20.0" x2="34.644660940672615" y1="70.0" y2="34.64466094067263" /></g><g transform="translate(160,160)"><line stroke="black" stroke-width="2" x1="69.99999999999999" x2="105.35533905932738" y1="20.0" y2="34.644660940672615" /></g><g transform="translate(320,160)"><defs /></g><g transform="translate(320,160)"><circle cx="120.0" cy="70.0" fill="black" r="6" /></g><g transform="translate(320,160)"><circle cx="105.35533905932738" cy="105.35533905932738" fill="black" r="6" /></g><g transform="translate(320,160)"><circle cx="70.0" cy="120.0" fill="black" r="6" /></g><g transform="translate(320,160)"><circle cx="34.64466094067263" cy="105.35533905932738" fill="black" r="6" /></g><g transform="translate(320,160)"><circle cx="20.0" cy="70.0" fill="black" r="6" /></g><g transform="translate(320,160)"><circle cx="34.644660940672615" cy="34.64466094067263" fill="black" r="6" /></g><g transform="translate(320,160)"><circle cx="69.99999999999999" cy="20.0" fill="black" r="6" /></g><g transform="translate(320,160)"><circle cx="105.35533905932738" cy="34.644660940672615" fill="black" r="6" /></g><g transform="translate(320,160)"><line stroke="black" stroke-width="2" x1="120.0" x2="105.35533905932738" y1="70.0" y2="105.35533905932738" /></g><g transform="translate(320,160)"><line stroke="black" stroke-width="2" x1="20.0" x2="34.644660940672615" y1="70.0" y2="34.64466094067263" /></g><g transform="translate(320,160)"><line stroke="black" stroke-width="2" x1="34.64466094067263" x2="69.99999999999999" y1="105.35533905932738" y2="20.0" /></g><g transform="translate(320,160)"><line stroke="black" stroke-width="2" x1="70.0" x2="105.35533905932738" y1="120.0" y2="34.644660940672615" /></g><g transform="translate(480,160)"><defs /></g><g transform="translate(480,160)"><circle cx="120.0" cy="70.0" fill="black" r="6" /></g><g transform="translate(480,160)"><circle cx="105.35533905932738" cy="105.35533905932738" fill="black" r="6" /></g><g transform="translate(480,160)"><circle cx="70.0" cy="120.0" fill="black" r="6" /></g><g transform="translate(480,160)"><circle cx="34.64466094067263" cy="105.35533905932738" fill="black" r="6" /></g><g transform="translate(480,160)"><circle cx="20.0" cy="70.0" fill="black" r="6" /></g><g transform="translate(480,160)"><circle cx="34.644660940672615" cy="34.64466094067263" fill="black" r="6" /></g><g transform="translate(480,160)"><circle cx="69.99999999999999" cy="20.0" fill="black" r="6" /></g><g transform="translate(480,160)"><circle cx="105.35533905932738" cy="34.644660940672615" fill="black" r="6" /></g><g transform="translate(480,160)"><line stroke="black" stroke-width="2" x1="120.0" x2="105.35533905932738" y1="70.0" y2="105.35533905932738" /></g><g transform="translate(480,160)"><line stroke="black" stroke-width="2" x1="34.64466094067263" x2="20.0" y1="105.35533905932738" y2="70.0" /></g><g transform="translate(480,160)"><line stroke="black" stroke-width="2" x1="34.644660940672615" x2="69.99999999999999" y1="34.64466094067263" y2="20.0" /></g><g transform="translate(480,160)"><line stroke="black" stroke-width="2" x1="70.0" x2="105.35533905932738" y1="120.0" y2="34.644660940672615" /></g><g transform="translate(640,160)"><defs /></g><g transform="translate(640,160)"><circle cx="120.0" cy="70.0" fill="black" r="6" /></g><g transform="translate(640,160)"><circle cx="105.35533905932738" cy="105.35533905932738" fill="black" r="6" /></g><g transform="translate(640,160)"><circle cx="70.0" cy="120.0" fill="black" r="6" /></g><g transform="translate(640,160)"><circle cx="34.64466094067263" cy="105.35533905932738" fill="black" r="6" /></g><g transform="translate(640,160)"><circle cx="20.0" cy="70.0" fill="black" r="6" /></g><g transform="translate(640,160)"><circle cx="34.644660940672615" cy="34.64466094067263" fill="black" r="6" /></g><g transform="translate(640,160)"><circle cx="69.99999999999999" cy="20.0" fill="black" r="6" /></g><g transform="translate(640,160)"><circle cx="105.35533905932738" cy="34.644660940672615" fill="black" r="6" /></g><g transform="translate(640,160)"><line stroke="black" stroke-width="2" x1="120.0" x2="105.35533905932738" y1="70.0" y2="105.35533905932738" /></g><g transform="translate(640,160)"><line stroke="black" stroke-width="2" x1="34.64466094067263" x2="20.0" y1="105.35533905932738" y2="70.0" /></g><g transform="translate(640,160)"><line stroke="black" stroke-width="2" x1="70.0" x2="34.644660940672615" y1="120.0" y2="34.64466094067263" /></g><g transform="translate(640,160)"><line stroke="black" stroke-width="2" x1="69.99999999999999" x2="105.35533905932738" y1="20.0" y2="34.644660940672615" /></g><g transform="translate(800,160)"><defs /></g><g transform="translate(800,160)"><circle cx="120.0" cy="70.0" fill="black" r="6" /></g><g transform="translate(800,160)"><circle cx="105.35533905932738" cy="105.35533905932738" fill="black" r="6" /></g><g transform="translate(800,160)"><circle cx="70.0" cy="120.0" fill="black" r="6" /></g><g transform="translate(800,160)"><circle cx="34.64466094067263" cy="105.35533905932738" fill="black" r="6" /></g><g transform="translate(800,160)"><circle cx="20.0" cy="70.0" fill="black" r="6" /></g><g transform="translate(800,160)"><circle cx="34.644660940672615" cy="34.64466094067263" fill="black" r="6" /></g><g transform="translate(800,160)"><circle cx="69.99999999999999" cy="20.0" fill="black" r="6" /></g><g transform="translate(800,160)"><circle cx="105.35533905932738" cy="34.644660940672615" fill="black" r="6" /></g><g transform="translate(800,160)"><line stroke="black" stroke-width="2" x1="120.0" x2="105.35533905932738" y1="70.0" y2="105.35533905932738" /></g><g transform="translate(800,160)"><line stroke="black" stroke-width="2" x1="70.0" x2="34.64466094067263" y1="120.0" y2="105.35533905932738" /></g><g transform="translate(800,160)"><line stroke="black" stroke-width="2" x1="34.644660940672615" x2="69.99999999999999" y1="34.64466094067263" y2="20.0" /></g><g transform="translate(800,160)"><line stroke="black" stroke-width="2" x1="20.0" x2="105.35533905932738" y1="70.0" y2="34.644660940672615" /></g><g transform="translate(960,160)"><defs /></g><g transform="translate(960,160)"><circle cx="120.0" cy="70.0" fill="black" r="6" /></g><g transform="translate(960,160)"><circle cx="105.35533905932738" cy="105.35533905932738" fill="black" r="6" /></g><g transform="translate(960,160)"><circle cx="70.0" cy="120.0" fill="black" r="6" /></g><g transform="translate(960,160)"><circle cx="34.64466094067263" cy="105.35533905932738" fill="black" r="6" /></g><g transform="translate(960,160)"><circle cx="20.0" cy="70.0" fill="black" r="6" /></g><g transform="translate(960,160)"><circle cx="34.644660940672615" cy="34.64466094067263" fill="black" r="6" /></g><g transform="translate(960,160)"><circle cx="69.99999999999999" cy="20.0" fill="black" r="6" /></g><g transform="translate(960,160)"><circle cx="105.35533905932738" cy="34.644660940672615" fill="black" r="6" /></g><g transform="translate(960,160)"><line stroke="black" stroke-width="2" x1="120.0" x2="105.35533905932738" y1="70.0" y2="105.35533905932738" /></g><g transform="translate(960,160)"><line stroke="black" stroke-width="2" x1="70.0" x2="34.64466094067263" y1="120.0" y2="105.35533905932738" /></g><g transform="translate(960,160)"><line stroke="black" stroke-width="2" x1="20.0" x2="34.644660940672615" y1="70.0" y2="34.64466094067263" /></g><g transform="translate(960,160)"><line stroke="black" stroke-width="2" x1="69.99999999999999" x2="105.35533905932738" y1="20.0" y2="34.644660940672615" /></g></svg>