<?xml version="1.0" encoding="utf-8" ?>
<svg baseProfile="full" height="470" version="1.1" width="1290" xmlns="http://www.w3.org/2000/svg" xmlns:ev="http://www.w3.org/2001/xml-events" xmlns:xlink="http://www.w3.org/1999/xlink"><defs /><rect fill="white" height="470" width="1290" x="0" y="0" /><g transform="translate(0,0)"><defs /></g><g transform="translate(0,0)"><circle cx="20" cy="92" fill="black" r="3" /></g><g transform="translate(0,0)"><circle cx="50" cy="92" fill="black" r="3" /></g><g transform="translate(0,0)"><circle cx="80" cy="92" fill="black" r="3" /></g><g transform="translate(0,0)"><circle cx="110" cy="92" fill="black" r="3" /></g><g transform="translate(0,0)"><circle cx="140" cy="92" fill="black" r="3" /></g><g transform="translate(0,0)"><circle cx="170" cy="92" fill="black" r="3" /></g><g transform="translate(0,0)"><circle cx="200" cy="92" fill="black" r="3" /></g><g transform="translate(0,0)"><circle cx="230" cy="92" fill="black" r="3" /></g><g transform="translate(0,0)"><path d="M110,92 A15.0,9.0 0 0,1 140,92" fill="none" stroke="black" /></g><g transform="translate(0,0)"><path d="M80,92 A45.0,27.0 0 0,1 170,92" fill="none" stroke="black" /></g><g transform="translate(0,0)"><path d="M50,92 A75.0,45.0 0 0,1 200,92" fill="none" stroke="black" /></g><g transform="translate(0,0)"><path d="M20,92 A105.0,63.0 0 0,1 230,92" fill="none" stroke="black" /></g><g transform="translate(260,0)"><defs /></g><g transform="translate(260,0)"><circle cx="20" cy="92" fill="black" r="3" /></g><g transform="translate(260,0)"><circle cx="50" cy="92" fill="black" r="3" /></g><g transform="translate(260,0)"><circle cx="80" cy="92" fill="black" r="3" /></g><g transform="translate(260,0)"><circle cx="110" cy="92" fill="black" r="3" /></g><g transform="translate(260,0)"><circle cx="140" cy="92" fill="black" r="3" /></g><g transform="translate(260,0)"><circle cx="170" cy="92" fill="black" r="3" /></g><g transform="translate(260,0)"><circle cx="200" cy="92" fill="black" r="3" /></g><g transform="translate(260,0)"><circle cx="230" cy="92" fill="black" r="3" /></g><g transform="translate(260,0)"><path d="M80,92 A15.0,9.0 0 0,1 110,92" fill="none" stroke="black" /></g><g transform="translate(260,0)"><path d="M140,92 A15.0,9.0 0 0,1 170,92" fill="none" stroke="black" /></g><g transform="translate(260,0)"><path d="M50,92 A75.0,45.0 0 0,1 200,92" fill="none" stroke="black" /></g><g transform="translate(260,0)"><path d="M20,92 A105.0,63.0 0 0,1 230,92" fill="none" stroke="black" /></g><g transform="translate(520,0)"><defs /></g><g transform="translate(520,0)"><circle cx="20" cy="92" fill="black" r="3" /></g><g transform="translate(520,0)"><circle cx="50" cy="92" fill="black" r="3" /></g><g transform="translate(520,0)"><circle cx="80" cy="92" fill="black" r="3" /></g><g transform="translate(520,0)"><circle cx="110" cy="92" fill="black" r="3" /></g><g transform="translate(520,0)"><circle cx="140" cy="92" fill="black" r="3" /></g><g transform="translate(520,0)"><circle cx="170" cy="92" fill="black" r="3" /></g><g transform="translate(520,0)"><circle cx="200" cy="92" fill="black" r="3" /></g><g transform="translate(520,0)"><circle cx="230" cy="92" fill="black" r="3" /></g><g transform="translate(520,0)"><path d="M80,92 A15.0,9.0 0 0,1 110,92" fill="none" stroke="black" /></g><g transform="translate(520,0)"><path d="M50,92 A45.0,27.0 0 0,1 140,92" fill="none" stroke="black" /></g><g transform="translate(520,0)"><path d="M170,92 A15.0,9.0 0 0,1 200,92" fill="none" stroke="black" /></g><g transform="translate(520,0)"><path d="M20,92 A105.0,63.0 0 0,1 230,92" fill="none" stroke="black" /></g><g transform="translate(780,0)"><defs /></g><g transform="translate(780,0)"><circle cx="20" cy="92" fill="black" r="3" /></g><g transform="translate(780,0)"><circle cx="50" cy="92" fill="black" r="3" /></g><g transform="translate(780,0)"><circle cx="80" cy="92" fill="black" r="3" /></g><g transform="translate(780,0)"><circle cx="110" cy="92" fill="black" r="3" /></g><g transform="translate(780,0)"><circle cx="140" cy="92" fill="black" r="3" /></g><g transform="translate(780,0)"><circle cx="170" cy="92" fill="black" r="3" /></g><g transform="translate(780,0)"><circle cx="200" cy="92" fill="black" r="3" /></g><g transform="translate(780,0)"><circle cx="230" cy="92" fill="black" r="3" /></g><g transform="translate(780,0)"><path d="M80,92 A15.0,9.0 0 0,1 110,92" fill="none" stroke="black" /></g><g transform="translate(780,0)"><path d="M50,92 A45.0,27.0 0 0,1 140,92" fill="none" stroke="black" /></g><g transform="translate(780,0)"><path d="M20,92 A75.0,45.0 0 0,1 170,92" fill="none" stroke="black" /></g><g transform="translate(780,0)"><path d="M200,92 A15.0,9.0 0 0,1 230,92" fill="none" stroke="black" /></g><g transform="translate(1040,0)"><defs /></g><g transform="translate(1040,0)"><circle cx="20" cy="92" fill="black" r="3" /></g><g transform="translate(1040,0)"><circle cx="50" cy="92" fill="black" r="3" /></g><g transform="translate(1040,0)"><circle cx="80" cy="92" fill="black" r="3" /></g><g transform="translate(1040,0)"><circle cx="110" cy="92" fill="black" r="3" /></g><g transform="translate(1040,0)"><circle cx="140" cy="92" fill="black" r="3" /></g><g transform="translate(1040,0)"><circle cx="170" cy="92" fill="black" r="3" /></g><g transform="translate(1040,0)"><circle cx="200" cy="92" fill="black" r="3" /></g><g transform="translate(1040,0)"><circle cx="230" cy="92" fill="black" r="3" /></g><g transform="translate(1040,0)"><path d="M50,92 A15.0,9.0 0 0,1 80,92" fill="none" stroke="black" /></g><g transform="translate(1040,0)"><path d="M140,92 A15.0,9.0 0 0,1 170,92" fill="none" stroke="black" /></g><g transform="translate(1040,0)"><path d="M110,92 A45.0,27.0 0 0,1 200,92" fill="none" stroke="black" /></g><g transform="translate(1040,0)"><path d="M20,92 A105.0,63.0 0 0,1 230,92" fill="none" stroke="black" /></g><g transform="translate(0,160)"><defs /></g><g transform="translate(0,160)"><circle cx="20" cy="92" fill="black" r="3" /></g><g transform="translate(0,160)"><circle cx="50" cy="92" fill="black" r="3" /></g><g transform="translate(0,160)"><circle cx="80" cy="92" fill="black" r="3" /></g><g transform="translate(0,160)"><circle cx="110" cy="92" fill="black" r="3" /></g><g transform="translate(0,160)"><circle cx="140" cy="92" fill="black" r="3" /></g><g transform="translate(0,160)"><circle cx="170" cy="92" fill="black" r="3" /></g><g transform="translate(0,160)"><circle cx="200" cy="92" fill="black" r="3" /></g><g transform="translate(0,160)"><circle cx="230" cy="92" fill="black" r="3" /></g><g transform="translate(0,160)"><path d="M50,92 A15.0,9.0 0 0,1 80,92" fill="none" stroke="black" /></g><g transform="translate(0,160)"><path d="M110,92 A15.0,9.0 0 0,1 140,92" fill="none" stroke="black" /></g><g transform="translate(0,160)"><path d="M170,92 A15.0,9.0 0 0,1 200,92" fill="none" stroke="black" /></g><g transform="translate(0,160)"><path d="M20,92 A105.0,63.0 0 0,1 230,92" fill="none" stroke="black" /></g><g transform="translate(260,160)"><defs /></g><g transform="translate(260,160)"><circle cx="20" cy="92" fill="black" r="3" /></g><g transform="translate(260,160)"><circle cx="50" cy="92" fill="black" r="3" /></g><g transform="translate(260,160)"><circle cx="80" cy="92" fill="black" r="3" /></g><g transform="translate(260,160)"><circle cx="110" cy="92" fill="black" r="3" /></g><g transform="translate(260,160)"><circle cx="140" cy="92" fill="black" r="3" /></g><g transform="translate(260,160)"><circle cx="170" cy="92" fill="black" r="3" /></g><g transform="translate(260,160)"><circle cx="200" cy="92" fill="black" r="3" /></g><g transform="translate(260,160)"><circle cx="230" cy="92" fill="black" r="3" /></g><g transform="translate(260,160)"><path d="M50,92 A15.0,9.0 0 0,1 80,92" fill="none" stroke="black" /></g><g transform="translate(260,160)"><path d="M110,92 A15.0,9.0 0 0,1 140,92" fill="none" stroke="black" /></g><g transform="translate(260,160)"><path d="M20,92 A75.0,45.0 0 0,1 170,92" fill="none" stroke="black" /></g><g transform="translate(260,160)"><path d="M200,92 A15.0,9.0 0 0,1 230,92" fill="none" stroke="black" /></g><g transform="translate(520,160)"><defs /></g><g transform="translate(520,160)"><circle cx="20" cy="92" fill="black" r="3" /></g><g transform="translate(520,160)"><circle cx="50" cy="92" fill="black" r="3" /></g><g transform="translate(520,160)"><circle cx="80" cy="92" fill="black" r="3" /></g><g transform="translate(520,160)"><circle cx="110" cy="92" fill="black" r="3" /></g><g transform="translate(520,160)"><circle cx="140" cy="92" fill="black" r="3" /></g><g transform="translate(520,160)"><circle cx="170" cy="92" fill="black" r="3" /></g><g transform="translate(520,160)"><circle cx="200" cy="92" fill="black" r="3" /></g><g transform="translate(520,160)"><circle cx="230" cy="92" fill="black" r="3" /></g><g transform="translate(520,160)"><path d="M50,92 A15.0,9.0 0 0,1 80,92" fill="none" stroke="black" /></g><g transform="translate(520,160)"><path d="M20,92 A45.0,27.0 0 0,1 110,92" fill="none" stroke="black" /></g><g transform="translate(520,160)"><path d="M170,92 A15.0,9.0 0 0,1 200,92" fill="none" stroke="black" /></g><g transform="translate(520,160)"><path d="M140,92 A45.0,27.0 0 0,1 230,92" fill="none" stroke="black" /></g><g transform="translate(780,160)"><defs /></g><g transform="translate(780,160)"><circle cx="20" cy="92" fill="black" r="3" /></g><g transform="translate(780,160)"><circle cx="50" cy="92" fill="black" r="3" /></g><g transform="translate(780,160)"><circle cx="80" cy="92" fill="black" r="3" /></g><g transform="translate(780,160)"><circle cx="110" cy="92" fill="black" r="3" /></g><g transform="translate(780,160)"><circle cx="140" cy="92" fill="black" r="3" /></g><g transform="translate(780,160)"><circle cx="170" cy="92" fill="black" r="3" /></g><g transform="translate(780,160)"><circle cx="200" cy="92" fill="black" r="3" /></g><g transform="translate(780,160)"><circle cx="230" cy="92" fill="black" r="3" /></g><g transform="translate(780,160)"><path d="M50,92 A15.0,9.0 0 0,1 80,92" fill="none" stroke="black" /></g><g transform="translate(780,160)"><path d="M20,92 A45.0,27.0 0 0,1 110,92" fill="none" stroke="black" /></g><g transform="translate(780,160)"><path d="M140,92 A15.0,9.0 0 0,1 170,92" fill="none" stroke="black" /></g><g transform="translate(780,160)"><path d="M200,92 A15.0,9.0 0 0,1 230,92" fill="none" stroke="black" /></g><g transform="translate(1040,160)"><defs /></g><g transform="translate(1040,160)"><circle cx="20" cy="92" fill="black" r="3" /></g><g transform="translate(1040,160)"><circle cx="50" cy="92" fill="black" r="3" /></g><g transform="translate(1040,160)"><circle cx="80" cy="92" fill="black" r="3" /></g><g transform="translate(1040,160)"><circle cx="110" cy="92" fill="black" r="3" /></g><g transform="translate(1040,160)"><circle cx="140" cy="92" fill="black" r="3" /></g><g transform="translate(1040,160)"><circle cx="170" cy="92" fill="black" r="3" /></g><g transform="translate(1040,160)"><circle cx="200" cy="92" fill="black" r="3" /></g><g transform="translate(1040,160)"><circle cx="230" cy="92" fill="black" r="3" /></g><g transform="translate(1040,160)"><path d="M20,92 A15.0,9.0 0 0,1 50,92" fill="none" stroke="black" /></g><g transform="translate(1040,160)"><path d="M140,92 A15.0,9.0 0 0,1 170,92" fill="none" stroke="black" /></g><g transform="translate(1040,160)"><path d="M110,92 A45.0,27.0 0 0,1 200,92" fill="none" stroke="black" /></g><g transform="translate(1040,160)"><path d="M80,92 A75.0,45.0 0 0,1 230,92" fill="none" stroke="black" /></g><g transform="translate(0,320)"><defs /></g><g transform="translate(0,320)"><circle cx="20" cy="92" fill="black" r="3" /></g><g transform="translate(0,320)"><circle cx="50" cy="92" fill="black" r="3" /></g><g transform="translate(0,320)"><circle cx="80" cy="92" fill="black" r="3" /></g><g transform="translate(0,320)"><circle cx="110" cy="92" fill="black" r="3" /></g><g transform="translate(0,320)"><circle cx="140" cy="92" fill="black" r="3" /></g><g transform="translate(0,320)"><circle cx="170" cy="92" fill="black" r="3" /></g><g transform="translate(0,320)"><circle cx="200" cy="92" fill="black" r="3" /></g><g transform="translate(0,320)"><circle cx="230" cy="92" fill="black" r="3" /></g><g transform="translate(0,320)"><path d="M20,92 A15.0,9.0 0 0,1 50,92" fill="none" stroke="black" /></g><g transform="translate(0,320)"><path d="M110,92 A15.0,9.0 0 0,1 140,92" fill="none" stroke="black" /></g><g transform="translate(0,320)"><path d="M170,92 A15.0,9.0 0 0,1 200,92" fill="none" stroke="black" /></g><g transform="translate(0,320)"><path d="M80,92 A75.0,45.0 0 0,1 230,92" fill="none" stroke="black" /></g><g transform="translate(260,320)"><defs /></g><g transform="translate(260,320)"><circle cx="20" cy="92" fill="black" r="3" /></g><g transform="translate(260,320)"><circle cx="50" cy="92" fill="black" r="3" /></g><g transform="translate(260,320)"><circle cx="80" cy="92" fill="black" r="3" /></g><g transform="translate(260,320)"><circle cx="110" cy="92" fill="black" r="3" /></g><g transform="translate(260,320)"><circle cx="140" cy="92" fill="black" r="3" /></g><g transform="translate(260,320)"><circle cx="170" cy="92" fill="black" r="3" /></g><g transform="translate(260,320)"><circle cx="200" cy="92" fill="black" r="3" /></g><g transform="translate(260,320)"><circle cx="230" cy="92" fill="black" r="3" /></g><g transform="translate(260,320)"><path d="M20,92 A15.0,9.0 0 0,1 50,92" fill="none" stroke="black" /></g><g transform="translate(260,320)"><path d="M110,92 A15.0,9.0 0 0,1 140,92" fill="none" stroke="black" /></g><g transform="translate(260,320)"><path d="M80,92 A45.0,27.0 0 0,1 170,92" fill="none" stroke="black" /></g><g transform="translate(260,320)"><path d="M200,92 A15.0,9.0 0 0,1 230,92" fill="none" stroke="black" /></g><g transform="translate(520,320)"><defs /></g><g transform="translate(520,320)"><circle cx="20" cy="92" fill="black" r="3" /></g><g transform="translate(520,320)"><circle cx="50" cy="92" fill="black" r="3" /></g><g transform="translate(520,320)"><circle cx="80" cy="92" fill="black" r="3" /></g><g transform="translate(520,320)"><circle cx="110" cy="92" fill="black" r="3" /></g><g transform="translate(520,320)"><circle cx="140" cy="92" fill="black" r="3" /></g><g transform="translate(520,320)"><circle cx="170" cy="92" fill="black" r="3" /></g><g transform="translate(520,320)"><circle cx="200" cy="92" fill="black" r="3" /></g><g transform="translate(520,320)"><circle cx="230" cy="92" fill="black" r="3" /></g><g transform="translate(520,320)"><path d="M20,92 A15.0,9.0 0 0,1 50,92" fill="none" stroke="black" /></g><g transform="translate(520,320)"><path d="M80,92 A15.0,9.0 0 0,1 110,92" fill="none" stroke="black" /></g><g transform="translate(520,320)"><path d="M170,92 A15.0,9.0 0 0,1 200,92" fill="none" stroke="black" /></g><g transform="translate(520,320)"><path d="M140,92 A45.0,27.0 0 0,1 230,92" fill="none" stroke="black" /></g><g transform="translate(780,320)"><defs /></g><g transform="translate(780,320)"><circle cx="20" cy="92" fill="black" r="3" /></g><g transform="translate(780,320)"><circle cx="50" cy="92" fill="black" r="3" /></g><g transform="translate(780,320)"><circle cx="80" cy="92" fill="black" r="3" /></g><g transform="translate(780,320)"><circle cx="110" cy="92" fill="black" r="3" /></g><g transform="translate(780,320)"><circle cx="140" cy="92" fill="black" r="3" /></g><g transform="translate(780,320)"><circle cx="170" cy="92" fill="black" r="3" /></g><g transform="translate(780,320)"><circle cx="200" cy="92" fill="black" r="3" /></g><g transform="translate(780,320)"><circle cx="230" cy="92" fill="black" r="3" /></g><g transform="translate(780,320)"><path d="M20,92 A15.0,9.0 0 0,1 50,92" fill="none" stroke="black" /></g><g transform="translate(780,320)"><path d="M80,92 A15.0,9.0 0 0,1 110,92" fill="none" stroke="black" /></g><g transform="translate(780,320)"><path d="M140,92 A15.0,9.0 0 0,1 170,92" fill="none" stroke="black" /></g><g transform="translate(780,320)"><path d="M200,92 A15.0,9.0 0 0,1 230,92" fill="none" stroke="black" /></g></svg>