<?xml version="1.0" encoding="UTF-8" standalone="no"?>
<svg
   xmlns:dc="http://purl.org/dc/elements/1.1/"
   xmlns:cc="http://creativecommons.org/ns#"
   xmlns:rdf="http://www.w3.org/1999/02/22-rdf-syntax-ns#"
   xmlns:svg="http://www.w3.org/2000/svg"
   xmlns="http://www.w3.org/2000/svg"
   xmlns:sodipodi="http://sodipodi.sourceforge.net/DTD/sodipodi-0.dtd"
   xmlns:inkscape="http://www.inkscape.org/namespaces/inkscape"
   width="392.35001"
   height="392.35001"
   id="svg2"
   sodipodi:version="0.32"
   inkscape:version="0.92.4 (5da689c313, 2019-01-14)"
   sodipodi:docname="TrigSumFormula.svg"
   inkscape:output_extension="org.inkscape.output.svg.inkscape"
   version="1.0">
  <metadata
     id="metadata57">
    <rdf:RDF>
      <cc:Work
         rdf:about="">
        <dc:format>image/svg+xml</dc:format>
        <dc:type
           rdf:resource="http://purl.org/dc/dcmitype/StillImage" />
      </cc:Work>
    </rdf:RDF>
  </metadata>
  <sodipodi:namedview
     inkscape:window-height="1017"
     inkscape:window-width="1920"
     inkscape:pageshadow="2"
     inkscape:pageopacity="0.0"
     guidetolerance="10.0"
     gridtolerance="10.0"
     objecttolerance="10.0"
     borderopacity="1.0"
     bordercolor="#666666"
     pagecolor="#ffffff"
     id="base"
     showgrid="false"
     units="px"
     inkscape:zoom="2.0000001"
     inkscape:cx="-634.08955"
     inkscape:cy="-587.35"
     inkscape:window-x="-8"
     inkscape:window-y="-8"
     inkscape:current-layer="svg2"
     inkscape:window-maximized="1" />
  <defs
     id="defs4">
    <inkscape:path-effect
       effect="bspline"
       id="path-effect3510"
       is_visible="true"
       weight="33.333333"
       steps="2"
       helper_size="0"
       apply_no_weight="true"
       apply_with_weight="true"
       only_selected="false" />
    <inkscape:path-effect
       effect="bspline"
       id="path-effect956"
       is_visible="true"
       weight="33.333333"
       steps="2"
       helper_size="0"
       apply_no_weight="true"
       apply_with_weight="true"
       only_selected="false" />
    <inkscape:perspective
       sodipodi:type="inkscape:persp3d"
       inkscape:vp_x="0 : 81.739998 : 1"
       inkscape:vp_y="0 : 1000 : 0"
       inkscape:vp_z="163.48 : 81.739998 : 1"
       inkscape:persp3d-origin="81.739998 : 54.493332 : 1"
       id="perspective59" />
    <marker
       id="ArrowEnd"
       viewBox="0 0 10 10"
       refX="0"
       refY="5"
       markerUnits="strokeWidth"
       markerWidth="4"
       markerHeight="3"
       orient="auto">
      <path
         d="M 0,0 L 10,5 L 0,10 L 0,0 z"
         id="path7" />
    </marker>
    <marker
       id="ArrowStart"
       viewBox="0 0 10 10"
       refX="10"
       refY="5"
       markerUnits="strokeWidth"
       markerWidth="4"
       markerHeight="3"
       orient="auto">
      <path
         d="M 10,0 L 0,5 L 10,10 L 10,0 z"
         id="path10" />
    </marker>
    <inkscape:path-effect
       effect="bspline"
       id="path-effect956-0"
       is_visible="true"
       weight="33.333333"
       steps="2"
       helper_size="0"
       apply_no_weight="true"
       apply_with_weight="true"
       only_selected="false" />
    <inkscape:path-effect
       effect="bspline"
       id="path-effect3510-0"
       is_visible="true"
       weight="33.333333"
       steps="2"
       helper_size="0"
       apply_no_weight="true"
       apply_with_weight="true"
       only_selected="false" />
    <inkscape:path-effect
       effect="bspline"
       id="path-effect956-0-9"
       is_visible="true"
       weight="33.333333"
       steps="2"
       helper_size="0"
       apply_no_weight="true"
       apply_with_weight="true"
       only_selected="false" />
  </defs>
  <path
     inkscape:connector-curvature="0"
     id="path14-1-5"
     d="m -669.67681,-279.65599 c 6.4344,0 12.7992,-1.3536 18.6768,-3.9696"
     style="fill:none;stroke:#000000;stroke-width:1.19551682" />
  <path
     inkscape:connector-curvature="0"
     id="path16-2-9"
     d="m -776.82721,-60.45679 c 0,-6.4344 -1.3536,-12.7992 -3.9696,-18.6768"
     style="fill:none;stroke:#000000;stroke-width:1.19551682" />
  <path
     inkscape:connector-curvature="0"
     id="path18-3-0"
     d="m -787.78801,-76.02079 c -3.288,-7.3824 -8.8272,-13.536 -15.8256,-17.5752"
     style="fill:none;stroke:#000000;stroke-width:1.19551682" />
  <path
     inkscape:connector-curvature="0"
     id="path20-4-2"
     d="m -587.51521,-173.44879 c 0,-2.376 -1.9272,-4.3032 -4.3032,-4.3032 -2.376,0 -4.3032,1.9272 -4.3032,4.3032 0,2.376 1.9272,4.3032 4.3032,4.3032 2.376,0 4.3032,-1.9272 4.3032,-4.3032"
     style="fill:#000000;fill-rule:evenodd;stroke:none;stroke-width:2.4000001" />
  <path
     inkscape:connector-curvature="0"
     id="path22-2-7"
     d="m -579.70081,-168.67759 -7.4688,-16.7736 -16.7736,7.4688"
     style="fill:none;stroke:#000000;stroke-width:1.19551682" />
  <path
     inkscape:connector-curvature="0"
     id="path24-7-3"
     d="m -831.57841,-49.21279 c 0,-3.8256 -2.5416,-6.396 -6.1128,-6.396 -5.1768,0 -10.4472,5.3976 -10.4472,10.9344 0,3.9432 2.6832,6.3456 6.1344,6.3456 5.0808,0 10.4256,-5.2056 10.4256,-10.884 z m -10.3368,10.164 c -2.3808,0 -4.0632,-1.9272 -4.0632,-5.0664 0,-1.0464 0.336,-4.5168 2.1888,-7.3008 1.6584,-2.4744 4.0152,-3.7128 5.916,-3.7128 1.9704,0 4.1352,1.3344 4.1352,4.8792 0,1.7112 -0.6504,5.4216 -3.0312,8.3472 -1.1544,1.452 -3.1248,2.8536 -5.1456,2.8536 z"
     style="fill:#000000;fill-rule:evenodd;stroke:none;stroke-width:2.4000001" />
  <path
     inkscape:connector-curvature="0"
     id="path26-8-6"
     d="m -683.70481,-341.68879 h 4.0584 c 3.3888,0 6.708,-2.5152 6.708,-5.2272 0,-1.8624 -1.5768,-3.6552 -4.704,-3.6552 h -7.7328 c -0.4536,0 -0.7152,0 -0.7152,0.4416 0,0.2784 0.2136,0.2784 0.6936,0.2784 0.3096,0 0.7392,0.0264 1.0248,0.0502 0.3816,0.0482 0.5256,0.12024 0.5256,0.38424 0,0.096 -0.024,0.168 -0.096,0.45336 l -3.1992,12.86664 c -0.24,0.93336 -0.288,1.1256 -2.172,1.1256 -0.4056,0 -0.6696,0 -0.6696,0.4416 0,0.2784 0.288,0.2784 0.3576,0.2784 h 6.1104 c 0.168,0 0.4776,0 0.4776,-0.4632 0,-0.2568 -0.2136,-0.2568 -0.6696,-0.2568 -0.8832,0 -1.5504,0 -1.5504,-0.4248 0,-0.1416 0.048,-0.2592 0.072,-0.4008 z m 1.74,-7.248 c 0.216,-0.84 0.264,-0.912 1.296,-0.912 h 2.304 c 1.992,0 3.2664,0.6504 3.2664,2.3064 0,0.936 -0.4824,3 -1.4184,3.864 -1.2,1.08 -2.64,1.272 -3.696,1.272 h -3.384 z"
     style="fill:#000000;fill-rule:evenodd;stroke:none;stroke-width:2.4000001" />
  <path
     inkscape:connector-curvature="0"
     id="path28-6-3"
     d="m -576.97681,-142.52479 c 3.7152,-1.3944 7.2384,-5.6016 7.2384,-10.164 0,-3.8064 -2.5416,-6.36 -6.1128,-6.36 -5.1768,0 -10.4472,5.3976 -10.4472,10.9344 0,3.9432 2.6832,6.3456 6.1344,6.3456 0.6,0 1.4136,-0.084 2.3496,-0.312 -0.096,1.4568 -0.096,1.5024 -0.096,1.8096 0,0.7512 0,2.5824 1.9896,2.5824 2.8512,0 4.0008,-4.3032 4.0008,-4.5624 0,-0.1656 -0.168,-0.2352 -0.264,-0.2352 -0.192,0 -0.24,0.1128 -0.288,0.2472 -0.5736,1.5912 -1.9656,2.1504 -2.8032,2.1504 -1.1016,0 -1.4616,-0.6384 -1.7016,-2.4336 z m -4.5672,-0.0576 c -1.8072,-0.744 -2.5944,-2.616 -2.5944,-4.776 0,-1.656 0.6168,-5.064 2.424,-7.656 1.7352,-2.448 3.9696,-3.5544 5.7048,-3.5544 2.376,0 4.1112,1.872 4.1112,5.0904 0,2.4 -1.2288,8.0184 -5.2704,10.2744 -0.12,-0.8568 -0.36,-2.6448 -2.1168,-2.6448 -1.2744,0 -2.4552,1.2192 -2.4552,2.4864 0,0.4872 0.1944,0.756 0.1944,0.78 z m 1.416,0.3336 c -0.3432,0 -1.1304,0 -1.1304,-1.0896 0,-1.0152 0.9336,-2.0304 1.968,-2.0304 1.032,0 1.5,0.6096 1.5,2.1552 0,0.3816 -0.0264,0.4056 -0.2712,0.5064 -0.6384,0.2784 -1.3776,0.456 -2.0664,0.456 z"
     style="fill:#000000;fill-rule:evenodd;stroke:none;stroke-width:2.4000001" />
  <path
     inkscape:connector-curvature="0"
     id="path30-3-1"
     d="m -688.22881,-167.51383 c 0.1416,-0.58056 0.2136,-0.82056 0.6624,-0.89496 0.2136,0 0.9696,0 1.4424,0 1.68,0 4.3056,0 4.3056,2.3832 0,0.81816 -0.3792,2.4792 -1.3032,3.42 -0.6144,0.6264 -1.8672,1.3968 -3.996,1.3968 h -2.6496 z m 3.4608,6.58104 c 2.3448,-0.5256 5.1096,-2.1984 5.1096,-4.6104 0,-2.0544 -2.1336,-3.5856 -5.2368,-3.5856 h -6.7536 c -0.4728,0 -0.6864,0 -0.6864,0.4632 0,0.2568 0.2136,0.2568 0.6648,0.2568 0.048,0 0.4968,0 0.9,0.0504 0.4272,0.048 0.6408,0.072 0.6408,0.384 0,0.096 -0.024,0.168 -0.0936,0.4536 l -3.1752,12.8664 c -0.2376,0.9336 -0.2832,1.1256 -2.1552,1.1256 -0.4272,0 -0.6384,0 -0.6384,0.4656 0,0.2544 0.288,0.2544 0.3336,0.2544 h 6.048 c 0.192,0 0.4776,0 0.4776,-0.4632 0,-0.2568 -0.2136,-0.2568 -0.6696,-0.2568 -0.8832,0 -1.5528,0 -1.5528,-0.432 0,-0.144 0.048,-0.264 0.072,-0.408 l 1.5768,-6.36 h 2.8464 c 2.1768,0 2.6064,1.332 2.6064,2.1648 0,0.3576 -0.192,1.0944 -0.3336,1.6416 -0.168,0.6672 -0.3816,1.548 -0.3816,2.0232 0,2.5704 2.8704,2.5704 3.18,2.5704 2.0328,0 2.8704,-2.3784 2.8704,-2.7072 0,-0.2832 -0.264,-0.2832 -0.288,-0.2832 -0.216,0 -0.264,0.168 -0.312,0.3336 -0.5976,1.7688 -1.6248,2.1768 -2.1768,2.1768 -0.7896,0 -0.9552,-0.5256 -0.9552,-1.4568 0,-0.7416 0.1368,-1.9584 0.228,-2.724 0.0456,-0.3336 0.0912,-0.7896 0.0912,-1.1232 0,-1.8408 -1.5912,-2.58 -2.232,-2.82 z"
     style="fill:#000000;fill-rule:evenodd;stroke:none;stroke-width:2.4000001" />
  <path
     inkscape:connector-curvature="0"
     id="path32-4-9"
     d="m -600.97921,-37.45039 c -0.9552,1.596 -1.8888,1.9296 -2.94,2.0016 -0.288,0.024 -0.5016,0.024 -0.5016,0.4656 0,0.1392 0.12,0.2544 0.3096,0.2544 h 4.4472 c 0.144,0 0.4536,0 0.4536,-0.4416 0,-0.2544 -0.216,-0.2784 -0.3816,-0.2784 -0.5496,-0.048 -1.1232,-0.24 -1.1232,-0.84 0,-0.288 0.144,-0.552 0.3336,-0.888 0.168,-0.288 0.192,-0.288 1.8168,-3.072 h 6.0024 c 0.048,0.504 0.3816,3.768 0.3816,4.008 0,0.72 -1.2432,0.792 -1.7208,0.792 -0.336,0 -0.5736,0 -0.5736,0.4656 0,0.2544 0.288,0.2544 0.336,0.2544 h 5.6904 c 0.144,0 0.4296,0 0.4296,-0.4632 0,-0.2568 -0.24,-0.2568 -0.5496,-0.2568 -1.4832,0 -1.4832,-0.168 -1.5552,-0.8568 l -1.4592,-14.8896 c -0.048,-0.4752 -0.048,-0.5736 -0.4536,-0.5736 -0.3816,0 -0.4776,0.168 -0.6216,0.408 z m 2.8704,-3.5184 4.7112,-7.9152 0.7656,7.9152 z"
     style="fill:#000000;fill-rule:evenodd;stroke:none;stroke-width:2.4000001" />
  <path
     inkscape:connector-curvature="0"
     id="path34-2-4"
     d="m -675.59281,-36.57439 c -0.24,0.9336 -0.288,1.1256 -2.1768,1.1256 -0.408,0 -0.6456,0 -0.6456,0.4656 0,0.2544 0.216,0.2544 0.6456,0.2544 h 8.5416 c 3.78,0 6.6072,-2.82 6.6072,-5.16 0,-1.7208 -1.392,-3.1056 -3.72,-3.3696 2.4864,-0.4536 4.9968,-2.2224 4.9968,-4.4928 0,-1.7688 -1.5768,-3.2976 -4.4472,-3.2976 h -8.0328 c -0.4536,0 -0.6936,0 -0.6936,0.4632 0,0.2568 0.216,0.2568 0.6696,0.2568 0.048,0 0.5016,0 0.9096,0.0504 0.4296,0.048 0.6456,0.072 0.6456,0.384 0,0.096 -0.024,0.168 -0.096,0.4536 z m 3.6096,-6.7944 1.4832,-6.036 c 0.216,-0.852 0.264,-0.9264 1.2912,-0.9264 h 3.084 c 2.1048,0 2.6064,1.4352 2.6064,2.508 0,2.1432 -2.0568,4.4544 -4.9728,4.4544 z m -1.068,7.92 c -0.3384,0 -0.3864,0 -0.5304,0 -0.24,-0.024 -0.312,-0.048 -0.312,-0.2376 0,-0.072 0,-0.12 0.12,-0.5496 l 1.6632,-6.6528 h 4.5576 c 2.316,0 2.7744,1.7592 2.7744,2.7816 0,2.352 -2.148,4.6584 -4.992,4.6584 z"
     style="fill:#000000;fill-rule:evenodd;stroke:none;stroke-width:2.4000001" />
  <path
     inkscape:connector-curvature="0"
     id="path36-5-2"
     d="m -652.53841,-265.95439 c 0,-3.7584 -2.2536,-4.932 -4.0464,-4.932 -3.3192,0 -6.516,3.41016 -6.516,6.7704 0,2.2176 1.4376,4.0296 3.8784,4.0296 1.5096,0 3.2328,-0.5448 5.052,-1.9872 0.312,1.2528 1.1016,1.9872 2.1792,1.9872 1.2696,0 2.0136,-1.3008 2.0136,-1.6776 0,-0.1656 -0.1368,-0.2352 -0.2736,-0.2352 -0.1608,0 -0.228,0.072 -0.2976,0.2424 -0.4104,1.1904 -1.236,1.1904 -1.2816,1.1904 -0.708,0 -0.708,-1.8672 -0.708,-2.4432 0,-0.5016 0,-0.5496 0.2304,-0.8376 2.16,-2.8248 2.6448,-5.6016 2.6448,-5.6256 0,-0.048 -0.024,-0.24 -0.276,-0.24 -0.2304,0 -0.2304,0.072 -0.3456,0.5016 -0.4128,1.5096 -1.1712,3.3288 -2.2512,4.74 z m -1.68,3.2688 c -2.148,1.8504 -4.0296,2.1168 -5.004,2.1168 -1.464,0 -2.196,-1.0824 -2.196,-2.6232 0,-1.1784 0.6384,-3.77784 1.4256,-5.004 1.1544,-1.7568 2.4816,-2.2128 3.3432,-2.2128 2.4336,0 2.4336,3.1512 2.4336,5.028 0,0.8904 0,2.2848 0,2.6952 z"
     style="fill:#000000;fill-rule:evenodd;stroke:none;stroke-width:2.4000001" />
  <path
     inkscape:connector-curvature="0"
     id="path38-8-4"
     d="m -759.81841,-72.99439 c 0,-3.7584 -2.2536,-4.932 -4.0464,-4.932 -3.3192,0 -6.516,3.4104 -6.516,6.7704 0,2.2176 1.4376,4.0296 3.8784,4.0296 1.5096,0 3.2328,-0.5448 5.052,-1.9872 0.312,1.2528 1.1016,1.9872 2.1792,1.9872 1.2696,0 2.0136,-1.3008 2.0136,-1.6776 0,-0.1656 -0.1368,-0.2352 -0.2736,-0.2352 -0.1608,0 -0.228,0.072 -0.2976,0.2424 -0.4104,1.1904 -1.236,1.1904 -1.2816,1.1904 -0.708,0 -0.708,-1.8672 -0.708,-2.4432 0,-0.5016 0,-0.5496 0.2304,-0.8376 2.16,-2.8248 2.6448,-5.6016 2.6448,-5.6256 0,-0.048 -0.024,-0.24 -0.276,-0.24 -0.2304,0 -0.2304,0.072 -0.3456,0.5016 -0.4128,1.5096 -1.1712,3.3288 -2.2512,4.74 z m -1.68,3.2688 c -2.148,1.8504 -4.0296,2.1168 -5.004,2.1168 -1.464,0 -2.196,-1.0824 -2.196,-2.6232 0,-1.1784 0.6384,-3.7776 1.4256,-5.004 1.1544,-1.7568 2.4816,-2.2128 3.3432,-2.2128 2.4336,0 2.4336,3.1512 2.4336,5.028 0,0.8904 0,2.2848 0,2.6952 z"
     style="fill:#000000;fill-rule:evenodd;stroke:none;stroke-width:2.4000001" />
  <path
     inkscape:connector-curvature="0"
     id="path40-0-2"
     d="m -787.46881,-91.24399 c -0.024,0.0936 -0.072,0.2376 -0.072,0.3552 0,0.2376 0.24,0.2376 0.288,0.2376 0.12,0 0.168,-0.024 0.24,-0.0936 0.12,-0.12 0.792,-3.144 1.824,-6.9768 0.36,1.3632 1.608,2.7504 3.84,2.7504 3.168,0 6.384,-3.1848 6.384,-6.5592 0,-1.6872 -0.768,-2.7336 -1.608,-3.3024 1.656,-0.9984 2.5944,-2.6856 2.5944,-4.1352 0,-1.5432 -1.1064,-3.0432 -3.2184,-3.0432 -3.12,0 -5.832,3.2544 -6.624,6.3672 z m 7.1736,-13.5312 c 0.24,-0.1704 0.408,-0.2736 1.2192,-0.2736 0.36,0 0.6456,0 0.9552,0.2064 -0.4296,0.2736 -0.9552,0.2736 -1.1472,0.2736 -0.5976,0 -0.6216,0 -1.0296,-0.2064 z m 3.0096,-0.4992 c -0.6768,-0.2544 -1.452,-0.2544 -1.6704,-0.2544 -0.5808,0 -1.8888,0 -1.8888,0.7944 0,0.6456 1.0656,0.6456 1.6464,0.6456 0.3384,0 1.0416,0 1.8168,-0.3504 0.5328,0.552 0.7248,1.2456 0.7248,2.0088 0,0.9552 -0.4848,3.204 -1.1856,4.5168 -0.5568,1.0032 -1.7904,2.4624 -3.5352,2.4624 -2.1552,0 -3.3888,-1.5768 -3.3888,-3.4896 0,-0.5736 0.096,-0.9312 0.3144,-1.7928 0.2184,-0.8832 0.9696,-3.8712 1.1136,-4.4208 1.1376,-4.4184 4.02,-6.3792 6.1752,-6.3792 0.7272,0 1.7448,0.36 1.7448,1.9344 0,0.5736 -0.2904,3.1488 -1.8648,4.32 z"
     style="fill:#000000;fill-rule:evenodd;stroke:none;stroke-width:2.4000001" />
  <path
     inkscape:connector-curvature="0"
     id="path42-8-0"
     d="m -669.67681,-325.57519 73.2,164.3664"
     style="fill:none;stroke:#000000;stroke-width:1.19551682" />
  <path
     inkscape:connector-curvature="0"
     id="path44-0-1"
     d="m -596.47681,-161.20879 h -73.2"
     style="fill:none;stroke:#000000;stroke-width:1.19551682" />
  <path
     inkscape:connector-curvature="0"
     id="path46-1-5"
     d="m -669.67681,-325.57519 v 265.1184"
     style="fill:none;stroke:#000000;stroke-width:1.19551682" />
  <path
     inkscape:connector-curvature="0"
     id="path48-8-3"
     d="m -596.47681,-161.20879 v 100.752"
     style="fill:none;stroke:#000000;stroke-width:1.19551682" />
  <path
     inkscape:connector-curvature="0"
     id="path50-7-2"
     d="m -822.74641,-60.45679 h 306.1416"
     style="fill:none;stroke:#000000;stroke-width:1.19551682" />
  <path
     inkscape:connector-curvature="0"
     id="path52-5-7"
     d="m -822.74641,-60.45679 307.6416,-136.968"
     style="fill:none;stroke:#000000;stroke-width:1.19599998;stroke-miterlimit:4;stroke-dasharray:none" />
  <path
     inkscape:connector-curvature="0"
     id="path54-4-3"
     d="m -822.83241,-60.40713 153.16946,-265.28685"
     style="fill:none;stroke:#000000;stroke-width:1.20000005;stroke-miterlimit:4;stroke-dasharray:none" />
  <g
     id="g889"
     transform="translate(-266.99999,-24.499999)">
    <path
       style="fill:none;stroke:#000000;stroke-width:1.19551682"
       d="m -677.12276,283.78997 c 0,-6.4344 -1.3536,-12.7992 -3.9696,-18.6768"
       id="path16-2"
       inkscape:connector-curvature="0" />
    <path
       style="fill:none;stroke:#000000;stroke-width:1.19551682"
       d="m -688.08356,268.22597 c -3.288,-7.3824 -8.8272,-13.536 -15.8256,-17.5752"
       id="path18-3"
       inkscape:connector-curvature="0" />
    <path
       style="fill:#000000;fill-rule:evenodd;stroke:none;stroke-width:2.4000001"
       d="m -731.87396,295.03397 c 0,-3.8256 -2.5416,-6.396 -6.1128,-6.396 -5.1768,0 -10.4472,5.3976 -10.4472,10.9344 0,3.9432 2.6832,6.3456 6.1344,6.3456 5.0808,0 10.4256,-5.2056 10.4256,-10.884 z m -10.3368,10.164 c -2.3808,0 -4.0632,-1.9272 -4.0632,-5.0664 0,-1.0464 0.336,-4.5168 2.1888,-7.3008 1.6584,-2.4744 4.0152,-3.7128 5.916,-3.7128 1.9704,0 4.1352,1.3344 4.1352,4.8792 0,1.7112 -0.6504,5.4216 -3.0312,8.3472 -1.1544,1.452 -3.1248,2.8536 -5.1456,2.8536 z"
       id="path24-7"
       inkscape:connector-curvature="0" />
    <path
       style="fill:#000000;fill-rule:evenodd;stroke:none;stroke-width:2.4000001"
       d="m -576.94902,304.13683 c -0.24,0.9336 -0.288,1.1256 -2.1768,1.1256 -0.408,0 -0.6456,0 -0.6456,0.4656 0,0.2544 0.216,0.2544 0.6456,0.2544 h 8.5416 c 3.78,0 6.6072,-2.82 6.6072,-5.16 0,-1.7208 -1.392,-3.1056 -3.72,-3.3696 2.4864,-0.4536 4.9968,-2.2224 4.9968,-4.4928 0,-1.7688 -1.5768,-3.2976 -4.4472,-3.2976 h -8.0328 c -0.4536,0 -0.6936,0 -0.6936,0.4632 0,0.2568 0.216,0.2568 0.6696,0.2568 0.048,0 0.5016,0 0.9096,0.0504 0.4296,0.048 0.6456,0.072 0.6456,0.384 0,0.096 -0.024,0.168 -0.096,0.4536 z m 3.6096,-6.7944 1.4832,-6.036 c 0.216,-0.852 0.264,-0.9264 1.2912,-0.9264 h 3.084 c 2.1048,0 2.6064,1.4352 2.6064,2.508 0,2.1432 -2.0568,4.4544 -4.9728,4.4544 z m -1.068,7.92 c -0.3384,0 -0.3864,0 -0.5304,0 -0.24,-0.024 -0.312,-0.048 -0.312,-0.2376 0,-0.072 0,-0.12 0.12,-0.5496 l 1.6632,-6.6528 h 4.5576 c 2.316,0 2.7744,1.7592 2.7744,2.7816 0,2.352 -2.148,4.6584 -4.992,4.6584 z"
       id="path34-2"
       inkscape:connector-curvature="0" />
    <path
       style="fill:#000000;fill-rule:evenodd;stroke:none;stroke-width:2.4000001"
       d="m -660.11396,271.25237 c 0,-3.7584 -2.2536,-4.932 -4.0464,-4.932 -3.3192,0 -6.516,3.4104 -6.516,6.7704 0,2.2176 1.4376,4.0296 3.8784,4.0296 1.5096,0 3.2328,-0.5448 5.052,-1.9872 0.312,1.2528 1.1016,1.9872 2.1792,1.9872 1.2696,0 2.0136,-1.3008 2.0136,-1.6776 0,-0.1656 -0.1368,-0.2352 -0.2736,-0.2352 -0.1608,0 -0.228,0.072 -0.2976,0.2424 -0.4104,1.1904 -1.236,1.1904 -1.2816,1.1904 -0.708,0 -0.708,-1.8672 -0.708,-2.4432 0,-0.5016 0,-0.5496 0.2304,-0.8376 2.16,-2.8248 2.6448,-5.6016 2.6448,-5.6256 0,-0.048 -0.024,-0.24 -0.276,-0.24 -0.2304,0 -0.2304,0.072 -0.3456,0.5016 -0.4128,1.5096 -1.1712,3.3288 -2.2512,4.74 z m -1.68,3.2688 c -2.148,1.8504 -4.0296,2.1168 -5.004,2.1168 -1.464,0 -2.196,-1.0824 -2.196,-2.6232 0,-1.1784 0.6384,-3.7776 1.4256,-5.004 1.1544,-1.7568 2.4816,-2.2128 3.3432,-2.2128 2.4336,0 2.4336,3.1512 2.4336,5.028 0,0.8904 0,2.2848 0,2.6952 z"
       id="path38-8"
       inkscape:connector-curvature="0" />
    <path
       style="fill:#000000;fill-rule:evenodd;stroke:none;stroke-width:2.4000001"
       d="m -687.76436,253.00277 c -0.024,0.0936 -0.072,0.2376 -0.072,0.3552 0,0.2376 0.24,0.2376 0.288,0.2376 0.12,0 0.168,-0.024 0.24,-0.0936 0.12,-0.12 0.792,-3.144 1.824,-6.9768 0.36,1.3632 1.608,2.7504 3.84,2.7504 3.168,0 6.384,-3.1848 6.384,-6.5592 0,-1.6872 -0.768,-2.7336 -1.608,-3.3024 1.656,-0.9984 2.5944,-2.6856 2.5944,-4.1352 0,-1.5432 -1.1064,-3.0432 -3.2184,-3.0432 -3.12,0 -5.832,3.2544 -6.624,6.3672 z m 7.1736,-13.5312 c 0.24,-0.1704 0.408,-0.2736 1.2192,-0.2736 0.36,0 0.6456,0 0.9552,0.2064 -0.4296,0.2736 -0.9552,0.2736 -1.1472,0.2736 -0.5976,0 -0.6216,0 -1.0296,-0.2064 z m 3.0096,-0.4992 c -0.6768,-0.2544 -1.452,-0.2544 -1.6704,-0.2544 -0.5808,0 -1.8888,0 -1.8888,0.7944 0,0.6456 1.0656,0.6456 1.6464,0.6456 0.3384,0 1.0416,0 1.8168,-0.3504 0.5328,0.552 0.7248,1.2456 0.7248,2.0088 0,0.9552 -0.4848,3.204 -1.1856,4.5168 -0.5568,1.0032 -1.7904,2.4624 -3.5352,2.4624 -2.1552,0 -3.3888,-1.5768 -3.3888,-3.4896 0,-0.5736 0.096,-0.9312 0.3144,-1.7928 0.2184,-0.8832 0.9696,-3.8712 1.1136,-4.4208 1.1376,-4.4184 4.02,-6.3792 6.1752,-6.3792 0.7272,0 1.7448,0.36 1.7448,1.9344 0,0.5736 -0.2904,3.1488 -1.8648,4.32 z"
       id="path40-0"
       inkscape:connector-curvature="0" />
    <path
       style="fill:none;stroke:#000000;stroke-width:1.19551682"
       d="M -569.97236,18.671568 V 283.78997"
       id="path46-1"
       inkscape:connector-curvature="0" />
    <path
       style="fill:none;stroke:#000000;stroke-width:1.20000005;stroke-miterlimit:4;stroke-dasharray:none"
       d="m -723.04196,283.78997 h 153.0696"
       id="path50-7"
       inkscape:connector-curvature="0" />
    <path
       style="fill:none;stroke:#000000;stroke-width:1.20000005;stroke-miterlimit:4;stroke-dasharray:none"
       d="m -723.16392,284.0639 153.38269,-68.28894"
       id="path52-5"
       inkscape:connector-curvature="0" />
    <path
       style="fill:none;stroke:#000000;stroke-width:1.20000005;stroke-miterlimit:4;stroke-dasharray:none"
       d="M -723.12796,283.83963 -569.9585,18.552777"
       id="path54-4"
       inkscape:connector-curvature="0" />
    <path
       style="fill:#000000;fill-rule:evenodd;stroke:none;stroke-width:2.4000001"
       d="m -575.54687,9.3303617 c -0.9552,1.5960003 -1.8888,1.9296003 -2.94,2.0016003 -0.288,0.024 -0.5016,0.024 -0.5016,0.4656 0,0.1392 0.12,0.2544 0.3096,0.2544 h 4.4472 c 0.144,0 0.4536,0 0.4536,-0.4416 0,-0.2544 -0.216,-0.2784 -0.3816,-0.2784 -0.5496,-0.048 -1.1232,-0.24 -1.1232,-0.84 0,-0.288 0.144,-0.5520003 0.3336,-0.8880003 0.168,-0.288 0.192,-0.288 1.8168,-3.072 h 6.0024 c 0.048,0.504 0.3816,3.7680003 0.3816,4.0080003 0,0.72 -1.2432,0.792 -1.7208,0.792 -0.336,0 -0.5736,0 -0.5736,0.4656 0,0.2544 0.288,0.2544 0.336,0.2544 h 5.6904 c 0.144,0 0.4296,0 0.4296,-0.4632 0,-0.2568 -0.24,-0.2568 -0.5496,-0.2568 -1.4832,0 -1.4832,-0.168 -1.5552,-0.8568 l -1.4592,-14.8896003 c -0.048,-0.4752 -0.048,-0.5736 -0.4536,-0.5736 -0.3816,0 -0.4776,0.168 -0.6216,0.408 z m 2.8704,-3.5184 4.7112,-7.9152 0.7656,7.9152 z"
       id="path32-4-9-7"
       inkscape:connector-curvature="0" />
    <rect
       y="275.6774"
       x="-576.99908"
       height="8.1125793"
       width="7.0267582"
       id="rect875"
       style="fill:none;fill-opacity:1;stroke:#000000;stroke-width:1;stroke-miterlimit:4;stroke-dasharray:none" />
  </g>
  <path
     inkscape:connector-curvature="0"
     id="path16-2-8"
     d="m -613.11233,300.14279 c 0,-6.4344 -1.3536,-12.7992 -3.9696,-18.6768"
     style="fill:none;stroke:#000000;stroke-width:1.19551682" />
  <path
     inkscape:connector-curvature="0"
     id="path18-3-3"
     d="m -624.07313,284.57879 c -3.288,-7.3824 -8.8272,-13.536 -15.8256,-17.5752"
     style="fill:none;stroke:#000000;stroke-width:1.19551682" />
  <path
     inkscape:connector-curvature="0"
     id="path24-7-4"
     d="m -667.86353,311.38679 c 0,-3.8256 -2.5416,-6.396 -6.1128,-6.396 -5.1768,0 -10.4472,5.3976 -10.4472,10.9344 0,3.9432 2.6832,6.3456 6.1344,6.3456 5.0808,0 10.4256,-5.2056 10.4256,-10.884 z m -10.3368,10.164 c -2.3808,0 -4.0632,-1.9272 -4.0632,-5.0664 0,-1.0464 0.336,-4.5168 2.1888,-7.3008 1.6584,-2.4744 4.0152,-3.7128 5.916,-3.7128 1.9704,0 4.1352,1.3344 4.1352,4.8792 0,1.7112 -0.6504,5.4216 -3.0312,8.3472 -1.1544,1.452 -3.1248,2.8536 -5.1456,2.8536 z"
     style="fill:#000000;fill-rule:evenodd;stroke:none;stroke-width:2.4000001" />
  <path
     inkscape:connector-curvature="0"
     id="path34-2-0"
     d="m -512.93859,320.48965 c -0.24,0.9336 -0.288,1.1256 -2.1768,1.1256 -0.408,0 -0.6456,0 -0.6456,0.4656 0,0.2544 0.216,0.2544 0.6456,0.2544 h 8.5416 c 3.78,0 6.6072,-2.82 6.6072,-5.16 0,-1.7208 -1.392,-3.1056 -3.72,-3.3696 2.4864,-0.4536 4.9968,-2.2224 4.9968,-4.4928 0,-1.7688 -1.5768,-3.2976 -4.4472,-3.2976 h -8.0328 c -0.4536,0 -0.6936,0 -0.6936,0.4632 0,0.2568 0.216,0.2568 0.6696,0.2568 0.048,0 0.5016,0 0.9096,0.0504 0.4296,0.048 0.6456,0.072 0.6456,0.384 0,0.096 -0.024,0.168 -0.096,0.4536 z m 3.6096,-6.7944 1.4832,-6.036 c 0.216,-0.852 0.264,-0.9264 1.2912,-0.9264 h 3.084 c 2.1048,0 2.6064,1.4352 2.6064,2.508 0,2.1432 -2.0568,4.4544 -4.9728,4.4544 z m -1.068,7.92 c -0.3384,0 -0.3864,0 -0.5304,0 -0.24,-0.024 -0.312,-0.048 -0.312,-0.2376 0,-0.072 0,-0.12 0.12,-0.5496 l 1.6632,-6.6528 h 4.5576 c 2.316,0 2.7744,1.7592 2.7744,2.7816 0,2.352 -2.148,4.6584 -4.992,4.6584 z"
     style="fill:#000000;fill-rule:evenodd;stroke:none;stroke-width:2.4000001" />
  <path
     inkscape:connector-curvature="0"
     id="path38-8-0"
     d="m -596.10353,287.60519 c 0,-3.7584 -2.2536,-4.932 -4.0464,-4.932 -3.3192,0 -6.516,3.4104 -6.516,6.7704 0,2.2176 1.4376,4.0296 3.8784,4.0296 1.5096,0 3.2328,-0.5448 5.052,-1.9872 0.312,1.2528 1.1016,1.9872 2.1792,1.9872 1.2696,0 2.0136,-1.3008 2.0136,-1.6776 0,-0.1656 -0.1368,-0.2352 -0.2736,-0.2352 -0.1608,0 -0.228,0.072 -0.2976,0.2424 -0.4104,1.1904 -1.236,1.1904 -1.2816,1.1904 -0.708,0 -0.708,-1.8672 -0.708,-2.4432 0,-0.5016 0,-0.5496 0.2304,-0.8376 2.16,-2.8248 2.6448,-5.6016 2.6448,-5.6256 0,-0.048 -0.024,-0.24 -0.276,-0.24 -0.2304,0 -0.2304,0.072 -0.3456,0.5016 -0.4128,1.5096 -1.1712,3.3288 -2.2512,4.74 z m -1.68,3.2688 c -2.148,1.8504 -4.0296,2.1168 -5.004,2.1168 -1.464,0 -2.196,-1.0824 -2.196,-2.6232 0,-1.1784 0.6384,-3.7776 1.4256,-5.004 1.1544,-1.7568 2.4816,-2.2128 3.3432,-2.2128 2.4336,0 2.4336,3.1512 2.4336,5.028 0,0.8904 0,2.2848 0,2.6952 z"
     style="fill:#000000;fill-rule:evenodd;stroke:none;stroke-width:2.4000001" />
  <path
     inkscape:connector-curvature="0"
     id="path40-0-5"
     d="m -623.75393,269.35559 c -0.024,0.0936 -0.072,0.2376 -0.072,0.3552 0,0.2376 0.24,0.2376 0.288,0.2376 0.12,0 0.168,-0.024 0.24,-0.0936 0.12,-0.12 0.792,-3.144 1.824,-6.9768 0.36,1.3632 1.608,2.7504 3.84,2.7504 3.168,0 6.384,-3.1848 6.384,-6.5592 0,-1.6872 -0.768,-2.7336 -1.608,-3.3024 1.656,-0.9984 2.5944,-2.6856 2.5944,-4.1352 0,-1.5432 -1.1064,-3.0432 -3.2184,-3.0432 -3.12,0 -5.832,3.2544 -6.624,6.3672 z m 7.1736,-13.5312 c 0.24,-0.1704 0.408,-0.2736 1.2192,-0.2736 0.36,0 0.6456,0 0.9552,0.2064 -0.4296,0.2736 -0.9552,0.2736 -1.1472,0.2736 -0.5976,0 -0.6216,0 -1.0296,-0.2064 z m 3.0096,-0.4992 c -0.6768,-0.2544 -1.452,-0.2544 -1.6704,-0.2544 -0.5808,0 -1.8888,0 -1.8888,0.7944 0,0.6456 1.0656,0.6456 1.6464,0.6456 0.3384,0 1.0416,0 1.8168,-0.3504 0.5328,0.552 0.7248,1.2456 0.7248,2.0088 0,0.9552 -0.4848,3.204 -1.1856,4.5168 -0.5568,1.0032 -1.7904,2.4624 -3.5352,2.4624 -2.1552,0 -3.3888,-1.5768 -3.3888,-3.4896 0,-0.5736 0.096,-0.9312 0.3144,-1.7928 0.2184,-0.8832 0.9696,-3.8712 1.1136,-4.4208 1.1376,-4.4184 4.02,-6.3792 6.1752,-6.3792 0.7272,0 1.7448,0.36 1.7448,1.9344 0,0.5736 -0.2904,3.1488 -1.8648,4.32 z"
     style="fill:#000000;fill-rule:evenodd;stroke:none;stroke-width:2.4000001" />
  <path
     inkscape:connector-curvature="0"
     id="path46-1-3"
     d="M -505.96193,35.024385 V 300.14279"
     style="fill:none;stroke:#000000;stroke-width:1.19551682" />
  <path
     inkscape:connector-curvature="0"
     id="path50-7-3"
     d="m -659.03153,300.14279 h 153.0696"
     style="fill:none;stroke:#000000;stroke-width:1.20000005;stroke-miterlimit:4;stroke-dasharray:none" />
  <path
     inkscape:connector-curvature="0"
     id="path52-5-5"
     d="M -658.9899,300.04926 -435.87366,200.7136"
     style="fill:none;stroke:#000000;stroke-width:1.2;stroke-miterlimit:4;stroke-dasharray:none" />
  <path
     inkscape:connector-curvature="0"
     id="path54-4-6"
     d="M -659.11753,300.19245 -505.94807,34.905594"
     style="fill:none;stroke:#000000;stroke-width:1.20000005;stroke-miterlimit:4;stroke-dasharray:none" />
  <path
     inkscape:connector-curvature="0"
     id="path32-4-9-7-6"
     d="m -511.53644,25.683179 c -0.9552,1.596 -1.8888,1.9296 -2.94,2.0016 -0.288,0.024 -0.5016,0.024 -0.5016,0.4656 0,0.1392 0.12,0.2544 0.3096,0.2544 h 4.4472 c 0.144,0 0.4536,0 0.4536,-0.4416 0,-0.2544 -0.216,-0.2784 -0.3816,-0.2784 -0.5496,-0.048 -1.1232,-0.24 -1.1232,-0.84 0,-0.288 0.144,-0.552 0.3336,-0.888 0.168,-0.288 0.192,-0.288 1.8168,-3.072 h 6.0024 c 0.048,0.504 0.3816,3.768 0.3816,4.008 0,0.72 -1.2432,0.792 -1.7208,0.792 -0.336,0 -0.5736,0 -0.5736,0.4656 0,0.2544 0.288,0.2544 0.336,0.2544 h 5.6904 c 0.144,0 0.4296,0 0.4296,-0.4632 0,-0.2568 -0.24,-0.2568 -0.5496,-0.2568 -1.4832,0 -1.4832,-0.168 -1.5552,-0.8568 l -1.4592,-14.8896 c -0.048,-0.4752 -0.048,-0.5736 -0.4536,-0.5736 -0.3816,0 -0.4776,0.168 -0.6216,0.408 z m 2.8704,-3.5184 4.7112,-7.9152 0.7656,7.9152 z"
     style="fill:#000000;fill-rule:evenodd;stroke:none;stroke-width:2.4000001" />
  <rect
     style="fill:none;fill-opacity:1;stroke:#000000;stroke-width:1;stroke-miterlimit:4;stroke-dasharray:none"
     id="rect875-0"
     width="7.0267582"
     height="8.1125793"
     x="-512.98865"
     y="292.03021" />
  <path
     style="fill:none;stroke:#000000;stroke-width:1.32731172;stroke-linecap:butt;stroke-linejoin:miter;stroke-miterlimit:4;stroke-dasharray:none;stroke-opacity:1"
     d="m -505.94807,34.905594 c 30.14248,52.208313 60.28515,104.416936 90.428,156.625886"
     id="path954"
     inkscape:connector-curvature="0"
     inkscape:path-effect="#path-effect956"
     inkscape:original-d="m -505.94807,34.905594 c 30.14367,52.207629 60.28633,104.416256 90.428,156.625886"
     transform="matrix(0.77028093,0,0,1.0611273,-116.2498,-2.1490274)" />
  <rect
     style="fill:none;fill-opacity:1;stroke:#000000;stroke-width:1;stroke-miterlimit:4;stroke-dasharray:none"
     id="rect875-0-4"
     width="7.0267582"
     height="8.1125793"
     x="-487.37744"
     y="0.43327659"
     transform="rotate(-23.724849)" />
  <text
     xml:space="preserve"
     style="font-style:normal;font-weight:normal;font-size:40px;line-height:1.25;font-family:sans-serif;letter-spacing:0px;word-spacing:0px;fill:#000000;fill-opacity:1;stroke:none"
     x="-408.7077"
     y="207.44159"
     id="text1005"><tspan
       sodipodi:role="line"
       id="tspan1003"
       x="-408.7077"
       y="243.9348" /></text>
  <path
     inkscape:connector-curvature="0"
     id="path28-6-3-2"
     d="m -425.69733,212.57848 c 3.7152,-1.3944 7.2384,-5.6016 7.2384,-10.164 0,-3.8064 -2.5416,-6.36 -6.1128,-6.36 -5.1768,0 -10.4472,5.3976 -10.4472,10.9344 0,3.9432 2.6832,6.3456 6.1344,6.3456 0.6,0 1.4136,-0.084 2.3496,-0.312 -0.096,1.4568 -0.096,1.5024 -0.096,1.8096 0,0.7512 0,2.5824 1.9896,2.5824 2.8512,0 4.0008,-4.3032 4.0008,-4.5624 0,-0.1656 -0.168,-0.2352 -0.264,-0.2352 -0.192,0 -0.24,0.1128 -0.288,0.2472 -0.5736,1.5912 -1.9656,2.1504 -2.8032,2.1504 -1.1016,0 -1.4616,-0.6384 -1.7016,-2.4336 z m -4.5672,-0.0576 c -1.8072,-0.744 -2.5944,-2.616 -2.5944,-4.776 0,-1.656 0.6168,-5.064 2.424,-7.656 1.7352,-2.448 3.9696,-3.5544 5.7048,-3.5544 2.376,0 4.1112,1.872 4.1112,5.0904 0,2.4 -1.2288,8.0184 -5.2704,10.2744 -0.12,-0.8568 -0.36,-2.6448 -2.1168,-2.6448 -1.2744,0 -2.4552,1.2192 -2.4552,2.4864 0,0.4872 0.1944,0.756 0.1944,0.78 z m 1.416,0.3336 c -0.3432,0 -1.1304,0 -1.1304,-1.0896 0,-1.0152 0.9336,-2.0304 1.968,-2.0304 1.032,0 1.5,0.6096 1.5,2.1552 0,0.3816 -0.0264,0.4056 -0.2712,0.5064 -0.6384,0.2784 -1.3776,0.456 -2.0664,0.456 z"
     style="fill:#000000;fill-rule:evenodd;stroke:none;stroke-width:2.4000001" />
  <ellipse
     style="fill:none;fill-opacity:1;stroke:#ff0000;stroke-width:3.37730145;stroke-miterlimit:4;stroke-dasharray:none"
     id="path3339"
     cx="-506.24997"
     cy="231.35002"
     rx="20.561348"
     ry="20.811348" />
  <text
     xml:space="preserve"
     style="font-style:normal;font-weight:normal;font-size:11.54790401px;line-height:1.25;font-family:sans-serif;letter-spacing:0px;word-spacing:0px;fill:#000000;fill-opacity:1;stroke:none;stroke-width:0.2886976"
     x="-513.63782"
     y="245.09442"
     id="text3355"><tspan
       sodipodi:role="line"
       id="tspan3353"
       x="-513.63782"
       y="245.09442"
       style="stroke-width:0.2886976">1</tspan></text>
  <text
     xml:space="preserve"
     style="font-style:normal;font-weight:normal;font-size:11.54790401px;line-height:1.25;font-family:sans-serif;letter-spacing:0px;word-spacing:0px;fill:#000000;fill-opacity:1;stroke:none;stroke-width:0.2886976"
     x="-514.3399"
     y="231.06207"
     id="text3355-5"><tspan
       sodipodi:role="line"
       id="tspan3353-5"
       x="-514.3399"
       y="231.06207"
       style="stroke-width:0.2886976">2</tspan></text>
  <text
     xml:space="preserve"
     style="font-style:normal;font-weight:normal;font-size:11.54790401px;line-height:1.25;font-family:sans-serif;letter-spacing:0px;word-spacing:0px;fill:#000000;fill-opacity:1;stroke:none;stroke-width:0.2886976"
     x="-503.83987"
     y="242.56207"
     id="text3355-4"><tspan
       sodipodi:role="line"
       id="tspan3353-4"
       x="-503.83987"
       y="242.56207"
       style="stroke-width:0.2886976">4</tspan></text>
  <text
     xml:space="preserve"
     style="font-style:normal;font-weight:normal;font-size:11.54790401px;line-height:1.25;font-family:sans-serif;letter-spacing:0px;word-spacing:0px;fill:#000000;fill-opacity:1;stroke:none;stroke-width:0.2886976"
     x="-503.83987"
     y="226.56207"
     id="text3355-6"><tspan
       sodipodi:role="line"
       id="tspan3353-1"
       x="-503.83987"
       y="226.56207"
       style="stroke-width:0.2886976">3</tspan></text>
  <path
     inkscape:connector-curvature="0"
     id="path16-2-8-0"
     d="m -708.67107,743.64277 c 0,-6.4344 -1.3536,-12.7992 -3.9696,-18.6768"
     style="fill:none;stroke:#000000;stroke-width:1.19551682" />
  <path
     inkscape:connector-curvature="0"
     id="path18-3-3-6"
     d="m -719.63187,728.07877 c -3.288,-7.3824 -8.8272,-13.536 -15.8256,-17.5752"
     style="fill:none;stroke:#000000;stroke-width:1.19551682" />
  <path
     inkscape:connector-curvature="0"
     id="path24-7-4-8"
     d="m -763.42227,754.88677 c 0,-3.8256 -2.5416,-6.396 -6.1128,-6.396 -5.1768,0 -10.4472,5.3976 -10.4472,10.9344 0,3.9432 2.6832,6.3456 6.1344,6.3456 5.0808,0 10.4256,-5.2056 10.4256,-10.884 z m -10.3368,10.164 c -2.3808,0 -4.0632,-1.9272 -4.0632,-5.0664 0,-1.0464 0.336,-4.5168 2.1888,-7.3008 1.6584,-2.4744 4.0152,-3.7128 5.916,-3.7128 1.9704,0 4.1352,1.3344 4.1352,4.8792 0,1.7112 -0.6504,5.4216 -3.0312,8.3472 -1.1544,1.452 -3.1248,2.8536 -5.1456,2.8536 z"
     style="fill:#000000;fill-rule:evenodd;stroke:none;stroke-width:2.4000001" />
  <path
     inkscape:connector-curvature="0"
     id="path34-2-0-3"
     d="m -608.49733,763.98963 c -0.24,0.9336 -0.288,1.1256 -2.1768,1.1256 -0.408,0 -0.6456,0 -0.6456,0.4656 0,0.2544 0.216,0.2544 0.6456,0.2544 h 8.5416 c 3.78,0 6.6072,-2.82 6.6072,-5.16 0,-1.7208 -1.392,-3.1056 -3.72,-3.3696 2.4864,-0.4536 4.9968,-2.2224 4.9968,-4.4928 0,-1.7688 -1.5768,-3.2976 -4.4472,-3.2976 h -8.0328 c -0.4536,0 -0.6936,0 -0.6936,0.4632 0,0.2568 0.216,0.2568 0.6696,0.2568 0.048,0 0.5016,0 0.9096,0.0504 0.4296,0.048 0.6456,0.072 0.6456,0.384 0,0.096 -0.024,0.168 -0.096,0.4536 z m 3.6096,-6.7944 1.4832,-6.036 c 0.216,-0.852 0.264,-0.9264 1.2912,-0.9264 h 3.084 c 2.1048,0 2.6064,1.4352 2.6064,2.508 0,2.1432 -2.0568,4.4544 -4.9728,4.4544 z m -1.068,7.92 c -0.3384,0 -0.3864,0 -0.5304,0 -0.24,-0.024 -0.312,-0.048 -0.312,-0.2376 0,-0.072 0,-0.12 0.12,-0.5496 l 1.6632,-6.6528 h 4.5576 c 2.316,0 2.7744,1.7592 2.7744,2.7816 0,2.352 -2.148,4.6584 -4.992,4.6584 z"
     style="fill:#000000;fill-rule:evenodd;stroke:none;stroke-width:2.4000001" />
  <path
     inkscape:connector-curvature="0"
     id="path38-8-0-4"
     d="m -691.66227,731.10517 c 0,-3.7584 -2.2536,-4.932 -4.0464,-4.932 -3.3192,0 -6.516,3.4104 -6.516,6.7704 0,2.2176 1.4376,4.0296 3.8784,4.0296 1.5096,0 3.2328,-0.5448 5.052,-1.9872 0.312,1.2528 1.1016,1.9872 2.1792,1.9872 1.2696,0 2.0136,-1.3008 2.0136,-1.6776 0,-0.1656 -0.1368,-0.2352 -0.2736,-0.2352 -0.1608,0 -0.228,0.072 -0.2976,0.2424 -0.4104,1.1904 -1.236,1.1904 -1.2816,1.1904 -0.708,0 -0.708,-1.8672 -0.708,-2.4432 0,-0.5016 0,-0.5496 0.2304,-0.8376 2.16,-2.8248 2.6448,-5.6016 2.6448,-5.6256 0,-0.048 -0.024,-0.24 -0.276,-0.24 -0.2304,0 -0.2304,0.072 -0.3456,0.5016 -0.4128,1.5096 -1.1712,3.3288 -2.2512,4.74 z m -1.68,3.2688 c -2.148,1.8504 -4.0296,2.1168 -5.004,2.1168 -1.464,0 -2.196,-1.0824 -2.196,-2.6232 0,-1.1784 0.6384,-3.7776 1.4256,-5.004 1.1544,-1.7568 2.4816,-2.2128 3.3432,-2.2128 2.4336,0 2.4336,3.1512 2.4336,5.028 0,0.8904 0,2.2848 0,2.6952 z"
     style="fill:#000000;fill-rule:evenodd;stroke:none;stroke-width:2.4000001" />
  <path
     inkscape:connector-curvature="0"
     id="path40-0-5-1"
     d="m -719.31267,712.85557 c -0.024,0.0936 -0.072,0.2376 -0.072,0.3552 0,0.2376 0.24,0.2376 0.288,0.2376 0.12,0 0.168,-0.024 0.24,-0.0936 0.12,-0.12 0.792,-3.144 1.824,-6.9768 0.36,1.3632 1.608,2.7504 3.84,2.7504 3.168,0 6.384,-3.1848 6.384,-6.5592 0,-1.6872 -0.768,-2.7336 -1.608,-3.3024 1.656,-0.9984 2.5944,-2.6856 2.5944,-4.1352 0,-1.5432 -1.1064,-3.0432 -3.2184,-3.0432 -3.12,0 -5.832,3.2544 -6.624,6.3672 z m 7.1736,-13.5312 c 0.24,-0.1704 0.408,-0.2736 1.2192,-0.2736 0.36,0 0.6456,0 0.9552,0.2064 -0.4296,0.2736 -0.9552,0.2736 -1.1472,0.2736 -0.5976,0 -0.6216,0 -1.0296,-0.2064 z m 3.0096,-0.4992 c -0.6768,-0.2544 -1.452,-0.2544 -1.6704,-0.2544 -0.5808,0 -1.8888,0 -1.8888,0.7944 0,0.6456 1.0656,0.6456 1.6464,0.6456 0.3384,0 1.0416,0 1.8168,-0.3504 0.5328,0.552 0.7248,1.2456 0.7248,2.0088 0,0.9552 -0.4848,3.204 -1.1856,4.5168 -0.5568,1.0032 -1.7904,2.4624 -3.5352,2.4624 -2.1552,0 -3.3888,-1.5768 -3.3888,-3.4896 0,-0.5736 0.096,-0.9312 0.3144,-1.7928 0.2184,-0.8832 0.9696,-3.8712 1.1136,-4.4208 1.1376,-4.4184 4.02,-6.3792 6.1752,-6.3792 0.7272,0 1.7448,0.36 1.7448,1.9344 0,0.5736 -0.2904,3.1488 -1.8648,4.32 z"
     style="fill:#000000;fill-rule:evenodd;stroke:none;stroke-width:2.4000001" />
  <path
     inkscape:connector-curvature="0"
     id="path46-1-3-9"
     d="m -601.52067,478.52437 v 265.1184"
     style="fill:none;stroke:#000000;stroke-width:1.19551682" />
  <path
     inkscape:connector-curvature="0"
     id="path50-7-3-3"
     d="m -754.59027,743.64277 h 223.0696"
     style="fill:none;stroke:#000000;stroke-width:1.44862831;stroke-miterlimit:4;stroke-dasharray:none" />
  <path
     inkscape:connector-curvature="0"
     id="path52-5-5-9"
     d="M -754.54864,743.54924 -531.4324,644.21358"
     style="fill:none;stroke:#000000;stroke-width:1.20000005;stroke-miterlimit:4;stroke-dasharray:none" />
  <path
     inkscape:connector-curvature="0"
     id="path54-4-6-7"
     d="M -754.67627,743.69243 -601.50681,478.40558"
     style="fill:none;stroke:#000000;stroke-width:1.20000005;stroke-miterlimit:4;stroke-dasharray:none" />
  <path
     inkscape:connector-curvature="0"
     id="path32-4-9-7-6-0"
     d="m -607.09518,469.18316 c -0.9552,1.596 -1.8888,1.9296 -2.94,2.0016 -0.288,0.024 -0.5016,0.024 -0.5016,0.4656 0,0.1392 0.12,0.2544 0.3096,0.2544 h 4.4472 c 0.144,0 0.4536,0 0.4536,-0.4416 0,-0.2544 -0.216,-0.2784 -0.3816,-0.2784 -0.5496,-0.048 -1.1232,-0.24 -1.1232,-0.84 0,-0.288 0.144,-0.552 0.3336,-0.888 0.168,-0.288 0.192,-0.288 1.8168,-3.072 h 6.0024 c 0.048,0.504 0.3816,3.768 0.3816,4.008 0,0.72 -1.2432,0.792 -1.7208,0.792 -0.336,0 -0.5736,0 -0.5736,0.4656 0,0.2544 0.288,0.2544 0.336,0.2544 h 5.6904 c 0.144,0 0.4296,0 0.4296,-0.4632 0,-0.2568 -0.24,-0.2568 -0.5496,-0.2568 -1.4832,0 -1.4832,-0.168 -1.5552,-0.8568 l -1.4592,-14.8896 c -0.048,-0.4752 -0.048,-0.5736 -0.4536,-0.5736 -0.3816,0 -0.4776,0.168 -0.6216,0.408 z m 2.8704,-3.5184 4.7112,-7.9152 0.7656,7.9152 z"
     style="fill:#000000;fill-rule:evenodd;stroke:none;stroke-width:2.4000001" />
  <rect
     style="fill:none;fill-opacity:1;stroke:#000000;stroke-width:1;stroke-miterlimit:4;stroke-dasharray:none"
     id="rect875-0-9"
     width="7.0267582"
     height="8.1125793"
     x="-608.54736"
     y="735.53021" />
  <path
     style="fill:none;stroke:#000000;stroke-width:1.32731175;stroke-linecap:butt;stroke-linejoin:miter;stroke-miterlimit:4;stroke-dasharray:none;stroke-opacity:1"
     d="m -505.94807,34.905594 c 30.14248,52.208313 60.28515,104.416936 90.428,156.625886"
     id="path954-5"
     inkscape:connector-curvature="0"
     inkscape:path-effect="#path-effect956-0"
     inkscape:original-d="m -505.94807,34.905594 c 30.14367,52.207629 60.28633,104.416256 90.428,156.625886"
     transform="matrix(0.77028093,0,0,1.0611273,-211.80854,441.35096)" />
  <rect
     style="fill:none;fill-opacity:1;stroke:#000000;stroke-width:1;stroke-miterlimit:4;stroke-dasharray:none"
     id="rect875-0-4-1"
     width="7.0267582"
     height="8.1125793"
     x="-753.30029"
     y="368.00473"
     transform="rotate(-23.724849)" />
  <path
     inkscape:connector-curvature="0"
     id="path28-6-3-2-5"
     d="m -521.25607,656.07846 c 3.7152,-1.3944 7.2384,-5.6016 7.2384,-10.164 0,-3.8064 -2.5416,-6.36 -6.1128,-6.36 -5.1768,0 -10.4472,5.3976 -10.4472,10.9344 0,3.9432 2.6832,6.3456 6.1344,6.3456 0.6,0 1.4136,-0.084 2.3496,-0.312 -0.096,1.4568 -0.096,1.5024 -0.096,1.8096 0,0.7512 0,2.5824 1.9896,2.5824 2.8512,0 4.0008,-4.3032 4.0008,-4.5624 0,-0.1656 -0.168,-0.2352 -0.264,-0.2352 -0.192,0 -0.24,0.1128 -0.288,0.2472 -0.5736,1.5912 -1.9656,2.1504 -2.8032,2.1504 -1.1016,0 -1.4616,-0.6384 -1.7016,-2.4336 z m -4.5672,-0.0576 c -1.8072,-0.744 -2.5944,-2.616 -2.5944,-4.776 0,-1.656 0.6168,-5.064 2.424,-7.656 1.7352,-2.448 3.9696,-3.5544 5.7048,-3.5544 2.376,0 4.1112,1.872 4.1112,5.0904 0,2.4 -1.2288,8.0184 -5.2704,10.2744 -0.12,-0.8568 -0.36,-2.6448 -2.1168,-2.6448 -1.2744,0 -2.4552,1.2192 -2.4552,2.4864 0,0.4872 0.1944,0.756 0.1944,0.78 z m 1.416,0.3336 c -0.3432,0 -1.1304,0 -1.1304,-1.0896 0,-1.0152 0.9336,-2.0304 1.968,-2.0304 1.032,0 1.5,0.6096 1.5,2.1552 0,0.3816 -0.0264,0.4056 -0.2712,0.5064 -0.6384,0.2784 -1.3776,0.456 -2.0664,0.456 z"
     style="fill:#000000;fill-rule:evenodd;stroke:none;stroke-width:2.4000001" />
  <path
     inkscape:connector-curvature="0"
     id="path38-8-0-4-3"
     d="m -587.15638,534.882 c 0,-3.7584 -2.2536,-4.932 -4.0464,-4.932 -3.3192,0 -6.516,3.4104 -6.516,6.7704 0,2.2176 1.4376,4.0296 3.8784,4.0296 1.5096,0 3.2328,-0.5448 5.052,-1.9872 0.312,1.2528 1.1016,1.9872 2.1792,1.9872 1.2696,0 2.0136,-1.3008 2.0136,-1.6776 0,-0.1656 -0.1368,-0.2352 -0.2736,-0.2352 -0.1608,0 -0.228,0.072 -0.2976,0.2424 -0.4104,1.1904 -1.236,1.1904 -1.2816,1.1904 -0.708,0 -0.708,-1.8672 -0.708,-2.4432 0,-0.5016 0,-0.5496 0.2304,-0.8376 2.16,-2.8248 2.6448,-5.6016 2.6448,-5.6256 0,-0.048 -0.024,-0.24 -0.276,-0.24 -0.2304,0 -0.2304,0.072 -0.3456,0.5016 -0.4128,1.5096 -1.1712,3.3288 -2.2512,4.74 z m -1.68,3.2688 c -2.148,1.8504 -4.0296,2.1168 -5.004,2.1168 -1.464,0 -2.196,-1.0824 -2.196,-2.6232 0,-1.1784 0.6384,-3.7776 1.4256,-5.004 1.1544,-1.7568 2.4816,-2.2128 3.3432,-2.2128 2.4336,0 2.4336,3.1512 2.4336,5.028 0,0.8904 0,2.2848 0,2.6952 z"
     style="fill:#000000;fill-rule:evenodd;stroke:none;stroke-width:2.4000001" />
  <path
     style="fill:none;stroke:#000000;stroke-width:1px;stroke-linecap:butt;stroke-linejoin:miter;stroke-opacity:1"
     d="m -584.99997,519.35 c -2.55479,1.91609 -5.33093,3.9982 -8.08252,4.49896 -2.75159,0.50076 -5.58357,-0.49876 -8.41748,-1.49896"
     id="path3508"
     inkscape:connector-curvature="0"
     inkscape:path-effect="#path-effect3510"
     inkscape:original-d="m -584.99997,519.35 c -2.55491,1.91593 -5.33105,3.99804 -8,6 -2.83369,-1.00148 -5.66567,-2.001 -8.5,-3"
     sodipodi:nodetypes="ccc" />
  <path
     inkscape:connector-curvature="0"
     id="path48-8-3-5"
     d="M -531.4324,644.21358 V 744.43525"
     style="fill:none;stroke:#000000;stroke-width:1.19236624" />
  <path
     inkscape:connector-curvature="0"
     id="path30-3-1-8"
     d="m -524.57357,745.06495 c 0.1416,-0.58056 0.2136,-0.82056 0.6624,-0.89496 0.2136,0 0.9696,0 1.4424,0 1.68,0 4.3056,0 4.3056,2.3832 0,0.81816 -0.3792,2.4792 -1.3032,3.42 -0.6144,0.6264 -1.8672,1.3968 -3.996,1.3968 h -2.6496 z m 3.4608,6.58104 c 2.3448,-0.5256 5.1096,-2.1984 5.1096,-4.6104 0,-2.0544 -2.1336,-3.5856 -5.2368,-3.5856 h -6.7536 c -0.4728,0 -0.6864,0 -0.6864,0.4632 0,0.2568 0.2136,0.2568 0.6648,0.2568 0.048,0 0.4968,0 0.9,0.0504 0.4272,0.048 0.6408,0.072 0.6408,0.384 0,0.096 -0.024,0.168 -0.0936,0.4536 l -3.1752,12.8664 c -0.2376,0.9336 -0.2832,1.1256 -2.1552,1.1256 -0.4272,0 -0.6384,0 -0.6384,0.4656 0,0.2544 0.288,0.2544 0.3336,0.2544 h 6.048 c 0.192,0 0.4776,0 0.4776,-0.4632 0,-0.2568 -0.2136,-0.2568 -0.6696,-0.2568 -0.8832,0 -1.5528,0 -1.5528,-0.432 0,-0.144 0.048,-0.264 0.072,-0.408 l 1.5768,-6.36 h 2.8464 c 2.1768,0 2.6064,1.332 2.6064,2.1648 0,0.3576 -0.192,1.0944 -0.3336,1.6416 -0.168,0.6672 -0.3816,1.548 -0.3816,2.0232 0,2.5704 2.8704,2.5704 3.18,2.5704 2.0328,0 2.8704,-2.3784 2.8704,-2.7072 0,-0.2832 -0.264,-0.2832 -0.288,-0.2832 -0.216,0 -0.264,0.168 -0.312,0.3336 -0.5976,1.7688 -1.6248,2.1768 -2.1768,2.1768 -0.7896,0 -0.9552,-0.5256 -0.9552,-1.4568 0,-0.7416 0.1368,-1.9584 0.228,-2.724 0.0456,-0.3336 0.0912,-0.7896 0.0912,-1.1232 0,-1.8408 -1.5912,-2.58 -2.232,-2.82 z"
     style="fill:#000000;fill-rule:evenodd;stroke:none;stroke-width:2.4000001" />
  <path
     inkscape:connector-curvature="0"
     id="path16-2-8-0-9"
     d="m -799.17107,1131.6427 c 0,-6.4344 -1.3536,-12.7992 -3.9696,-18.6768"
     style="fill:none;stroke:#000000;stroke-width:1.19551682" />
  <path
     inkscape:connector-curvature="0"
     id="path18-3-3-6-9"
     d="m -810.13187,1116.0787 c -3.288,-7.3824 -8.8272,-13.536 -15.8256,-17.5752"
     style="fill:none;stroke:#000000;stroke-width:1.19551682" />
  <path
     inkscape:connector-curvature="0"
     id="path24-7-4-8-5"
     d="m -853.92227,1142.8867 c 0,-3.8256 -2.5416,-6.396 -6.1128,-6.396 -5.1768,0 -10.4472,5.3976 -10.4472,10.9344 0,3.9432 2.6832,6.3456 6.1344,6.3456 5.0808,0 10.4256,-5.2056 10.4256,-10.884 z m -10.3368,10.164 c -2.3808,0 -4.0632,-1.9272 -4.0632,-5.0664 0,-1.0464 0.336,-4.5168 2.1888,-7.3008 1.6584,-2.4744 4.0152,-3.7128 5.916,-3.7128 1.9704,0 4.1352,1.3344 4.1352,4.8792 0,1.7112 -0.6504,5.4216 -3.0312,8.3472 -1.1544,1.452 -3.1248,2.8536 -5.1456,2.8536 z"
     style="fill:#000000;fill-rule:evenodd;stroke:none;stroke-width:2.4000001" />
  <path
     inkscape:connector-curvature="0"
     id="path34-2-0-3-0"
     d="m -698.99733,1151.9896 c -0.24,0.9336 -0.288,1.1256 -2.1768,1.1256 -0.408,0 -0.6456,0 -0.6456,0.4656 0,0.2544 0.216,0.2544 0.6456,0.2544 h 8.5416 c 3.78,0 6.6072,-2.82 6.6072,-5.16 0,-1.7208 -1.392,-3.1056 -3.72,-3.3696 2.4864,-0.4536 4.9968,-2.2224 4.9968,-4.4928 0,-1.7688 -1.5768,-3.2976 -4.4472,-3.2976 h -8.0328 c -0.4536,0 -0.6936,0 -0.6936,0.4632 0,0.2568 0.216,0.2568 0.6696,0.2568 0.048,0 0.5016,0 0.9096,0.05 0.4296,0.048 0.6456,0.072 0.6456,0.384 0,0.096 -0.024,0.168 -0.096,0.4536 z m 3.6096,-6.7944 1.4832,-6.036 c 0.216,-0.852 0.264,-0.9264 1.2912,-0.9264 h 3.084 c 2.1048,0 2.6064,1.4352 2.6064,2.508 0,2.1432 -2.0568,4.4544 -4.9728,4.4544 z m -1.068,7.92 c -0.3384,0 -0.3864,0 -0.5304,0 -0.24,-0.024 -0.312,-0.048 -0.312,-0.2376 0,-0.072 0,-0.12 0.12,-0.5496 l 1.6632,-6.6528 h 4.5576 c 2.316,0 2.7744,1.7592 2.7744,2.7816 0,2.352 -2.148,4.6584 -4.992,4.6584 z"
     style="fill:#000000;fill-rule:evenodd;stroke:none;stroke-width:2.4000001" />
  <path
     inkscape:connector-curvature="0"
     id="path38-8-0-4-0"
     d="m -782.16227,1119.1051 c 0,-3.7584 -2.2536,-4.932 -4.0464,-4.932 -3.3192,0 -6.516,3.4104 -6.516,6.7704 0,2.2176 1.4376,4.0296 3.8784,4.0296 1.5096,0 3.2328,-0.5448 5.052,-1.9872 0.312,1.2528 1.1016,1.9872 2.1792,1.9872 1.2696,0 2.0136,-1.3008 2.0136,-1.6776 0,-0.1656 -0.1368,-0.2352 -0.2736,-0.2352 -0.1608,0 -0.228,0.072 -0.2976,0.2424 -0.4104,1.1904 -1.236,1.1904 -1.2816,1.1904 -0.708,0 -0.708,-1.8672 -0.708,-2.4432 0,-0.5016 0,-0.5496 0.2304,-0.8376 2.16,-2.8248 2.6448,-5.6016 2.6448,-5.6256 0,-0.048 -0.024,-0.24 -0.276,-0.24 -0.2304,0 -0.2304,0.072 -0.3456,0.5016 -0.4128,1.5096 -1.1712,3.3288 -2.2512,4.74 z m -1.68,3.2688 c -2.148,1.8504 -4.0296,2.1168 -5.004,2.1168 -1.464,0 -2.196,-1.0824 -2.196,-2.6232 0,-1.1784 0.6384,-3.7776 1.4256,-5.004 1.1544,-1.7568 2.4816,-2.2128 3.3432,-2.2128 2.4336,0 2.4336,3.1512 2.4336,5.028 0,0.8904 0,2.2848 0,2.6952 z"
     style="fill:#000000;fill-rule:evenodd;stroke:none;stroke-width:2.4000001" />
  <path
     inkscape:connector-curvature="0"
     id="path40-0-5-1-8"
     d="m -809.81267,1100.8555 c -0.024,0.094 -0.072,0.2376 -0.072,0.3552 0,0.2376 0.24,0.2376 0.288,0.2376 0.12,0 0.168,-0.024 0.24,-0.094 0.12,-0.12 0.792,-3.144 1.824,-6.9768 0.36,1.3632 1.608,2.7504 3.84,2.7504 3.168,0 6.384,-3.1848 6.384,-6.5592 0,-1.6872 -0.768,-2.7336 -1.608,-3.3024 1.656,-0.9984 2.5944,-2.6856 2.5944,-4.1352 0,-1.5432 -1.1064,-3.0432 -3.2184,-3.0432 -3.12,0 -5.832,3.2544 -6.624,6.3672 z m 7.1736,-13.5312 c 0.24,-0.1704 0.408,-0.2736 1.2192,-0.2736 0.36,0 0.6456,0 0.9552,0.2064 -0.4296,0.2736 -0.9552,0.2736 -1.1472,0.2736 -0.5976,0 -0.6216,0 -1.0296,-0.2064 z m 3.0096,-0.4992 c -0.6768,-0.2544 -1.452,-0.2544 -1.6704,-0.2544 -0.5808,0 -1.8888,0 -1.8888,0.7944 0,0.6456 1.0656,0.6456 1.6464,0.6456 0.3384,0 1.0416,0 1.8168,-0.3504 0.5328,0.552 0.7248,1.2456 0.7248,2.0088 0,0.9552 -0.4848,3.204 -1.1856,4.5168 -0.5568,1.0032 -1.7904,2.4624 -3.5352,2.4624 -2.1552,0 -3.3888,-1.5768 -3.3888,-3.4896 0,-0.5736 0.096,-0.9312 0.3144,-1.7928 0.2184,-0.8832 0.9696,-3.8712 1.1136,-4.4208 1.1376,-4.4184 4.02,-6.3792 6.1752,-6.3792 0.7272,0 1.7448,0.36 1.7448,1.9344 0,0.5736 -0.2904,3.1488 -1.8648,4.32 z"
     style="fill:#000000;fill-rule:evenodd;stroke:none;stroke-width:2.4000001" />
  <path
     inkscape:connector-curvature="0"
     id="path46-1-3-9-6"
     d="M -692.02067,866.52435 V 1131.6427"
     style="fill:none;stroke:#000000;stroke-width:1.19551682" />
  <path
     inkscape:connector-curvature="0"
     id="path50-7-3-3-5"
     d="m -845.09027,1131.6427 h 223.0696"
     style="fill:none;stroke:#000000;stroke-width:1.44862831;stroke-miterlimit:4;stroke-dasharray:none" />
  <path
     inkscape:connector-curvature="0"
     id="path52-5-5-9-9"
     d="m -845.04864,1131.5492 223.11624,-99.3356"
     style="fill:none;stroke:#000000;stroke-width:1.20000005;stroke-miterlimit:4;stroke-dasharray:none" />
  <path
     inkscape:connector-curvature="0"
     id="path54-4-6-7-7"
     d="M -845.17627,1131.6924 -692.00681,866.40556"
     style="fill:none;stroke:#000000;stroke-width:1.20000005;stroke-miterlimit:4;stroke-dasharray:none" />
  <path
     inkscape:connector-curvature="0"
     id="path32-4-9-7-6-0-0"
     d="m -697.59518,857.18314 c -0.9552,1.596 -1.8888,1.9296 -2.94,2.0016 -0.288,0.024 -0.5016,0.024 -0.5016,0.4656 0,0.1392 0.12,0.2544 0.3096,0.2544 h 4.4472 c 0.144,0 0.4536,0 0.4536,-0.4416 0,-0.2544 -0.216,-0.2784 -0.3816,-0.2784 -0.5496,-0.048 -1.1232,-0.24 -1.1232,-0.84 0,-0.288 0.144,-0.552 0.3336,-0.888 0.168,-0.288 0.192,-0.288 1.8168,-3.072 h 6.0024 c 0.048,0.504 0.3816,3.768 0.3816,4.008 0,0.72 -1.2432,0.792 -1.7208,0.792 -0.336,0 -0.5736,0 -0.5736,0.4656 0,0.2544 0.288,0.2544 0.336,0.2544 h 5.6904 c 0.144,0 0.4296,0 0.4296,-0.4632 0,-0.2568 -0.24,-0.2568 -0.5496,-0.2568 -1.4832,0 -1.4832,-0.168 -1.5552,-0.8568 l -1.4592,-14.8896 c -0.048,-0.4752 -0.048,-0.5736 -0.4536,-0.5736 -0.3816,0 -0.4776,0.168 -0.6216,0.408 z m 2.8704,-3.5184 4.7112,-7.9152 0.7656,7.9152 z"
     style="fill:#000000;fill-rule:evenodd;stroke:none;stroke-width:2.4000001" />
  <rect
     style="fill:none;fill-opacity:1;stroke:#000000;stroke-width:1;stroke-miterlimit:4;stroke-dasharray:none"
     id="rect875-0-9-6"
     width="7.0267582"
     height="8.1125793"
     x="-699.04736"
     y="1123.5302" />
  <path
     style="fill:none;stroke:#000000;stroke-width:1.32731175;stroke-linecap:butt;stroke-linejoin:miter;stroke-miterlimit:4;stroke-dasharray:none;stroke-opacity:1"
     d="m -505.94807,34.905594 c 30.14248,52.208313 60.28515,104.416936 90.428,156.625886"
     id="path954-5-7"
     inkscape:connector-curvature="0"
     inkscape:path-effect="#path-effect956-0-9"
     inkscape:original-d="m -505.94807,34.905594 c 30.14367,52.207629 60.28633,104.416256 90.428,156.625886"
     transform="matrix(0.77028093,0,0,1.0611273,-302.30853,829.35094)" />
  <path
     inkscape:connector-curvature="0"
     id="path28-6-3-2-5-6"
     d="m -611.75607,1044.0784 c 3.7152,-1.3944 7.2384,-5.6016 7.2384,-10.164 0,-3.8064 -2.5416,-6.36 -6.1128,-6.36 -5.1768,0 -10.4472,5.3976 -10.4472,10.9344 0,3.9432 2.6832,6.3456 6.1344,6.3456 0.6,0 1.4136,-0.084 2.3496,-0.312 -0.096,1.4568 -0.096,1.5024 -0.096,1.8096 0,0.7512 0,2.5824 1.9896,2.5824 2.8512,0 4.0008,-4.3032 4.0008,-4.5624 0,-0.1656 -0.168,-0.2352 -0.264,-0.2352 -0.192,0 -0.24,0.1128 -0.288,0.2472 -0.5736,1.5912 -1.9656,2.1504 -2.8032,2.1504 -1.1016,0 -1.4616,-0.6384 -1.7016,-2.4336 z m -4.5672,-0.058 c -1.8072,-0.744 -2.5944,-2.616 -2.5944,-4.776 0,-1.656 0.6168,-5.064 2.424,-7.656 1.7352,-2.448 3.9696,-3.5544 5.7048,-3.5544 2.376,0 4.1112,1.872 4.1112,5.0904 0,2.4 -1.2288,8.0184 -5.2704,10.2744 -0.12,-0.8568 -0.36,-2.6448 -2.1168,-2.6448 -1.2744,0 -2.4552,1.2192 -2.4552,2.4864 0,0.4872 0.1944,0.756 0.1944,0.78 z m 1.416,0.3336 c -0.3432,0 -1.1304,0 -1.1304,-1.0896 0,-1.0152 0.9336,-2.0304 1.968,-2.0304 1.032,0 1.5,0.6096 1.5,2.1552 0,0.3816 -0.0264,0.4056 -0.2712,0.5064 -0.6384,0.2784 -1.3776,0.456 -2.0664,0.456 z"
     style="fill:#000000;fill-rule:evenodd;stroke:none;stroke-width:2.4000001" />
  <path
     inkscape:connector-curvature="0"
     id="path38-8-0-4-3-5"
     d="m -677.65638,922.88198 c 0,-3.7584 -2.2536,-4.932 -4.0464,-4.932 -3.3192,0 -6.516,3.4104 -6.516,6.7704 0,2.2176 1.4376,4.0296 3.8784,4.0296 1.5096,0 3.2328,-0.5448 5.052,-1.9872 0.312,1.2528 1.1016,1.9872 2.1792,1.9872 1.2696,0 2.0136,-1.3008 2.0136,-1.6776 0,-0.1656 -0.1368,-0.2352 -0.2736,-0.2352 -0.1608,0 -0.228,0.072 -0.2976,0.2424 -0.4104,1.1904 -1.236,1.1904 -1.2816,1.1904 -0.708,0 -0.708,-1.8672 -0.708,-2.4432 0,-0.5016 0,-0.5496 0.2304,-0.8376 2.16,-2.8248 2.6448,-5.6016 2.6448,-5.6256 0,-0.048 -0.024,-0.24 -0.276,-0.24 -0.2304,0 -0.2304,0.072 -0.3456,0.5016 -0.4128,1.5096 -1.1712,3.3288 -2.2512,4.74 z m -1.68,3.2688 c -2.148,1.8504 -4.0296,2.1168 -5.004,2.1168 -1.464,0 -2.196,-1.0824 -2.196,-2.6232 0,-1.1784 0.6384,-3.7776 1.4256,-5.004 1.1544,-1.7568 2.4816,-2.2128 3.3432,-2.2128 2.4336,0 2.4336,3.1512 2.4336,5.028 0,0.8904 0,2.2848 0,2.6952 z"
     style="fill:#000000;fill-rule:evenodd;stroke:none;stroke-width:2.4000001" />
  <path
     transform="translate(-90.499996,387.99998)"
     style="fill:none;stroke:#000000;stroke-width:1px;stroke-linecap:butt;stroke-linejoin:miter;stroke-opacity:1"
     d="m -584.99997,519.35 c -2.55479,1.91609 -5.33093,3.9982 -8.08252,4.49896 -2.75159,0.50076 -5.58357,-0.49876 -8.41748,-1.49896"
     id="path3508-4"
     inkscape:connector-curvature="0"
     inkscape:path-effect="#path-effect3510-0"
     inkscape:original-d="m -584.99997,519.35 c -2.55491,1.91593 -5.33105,3.99804 -8,6 -2.83369,-1.00148 -5.66567,-2.001 -8.5,-3"
     sodipodi:nodetypes="ccc" />
  <path
     inkscape:connector-curvature="0"
     id="path48-8-3-5-2"
     d="m -621.9324,1032.2136 v 100.2216"
     style="fill:none;stroke:#000000;stroke-width:1.19236624" />
  <path
     inkscape:connector-curvature="0"
     id="path30-3-1-8-2"
     d="m -615.07357,1133.0649 c 0.1416,-0.5805 0.2136,-0.8205 0.6624,-0.8949 0.2136,0 0.9696,0 1.4424,0 1.68,0 4.3056,0 4.3056,2.3832 0,0.8181 -0.3792,2.4792 -1.3032,3.42 -0.6144,0.6264 -1.8672,1.3968 -3.996,1.3968 h -2.6496 z m 3.4608,6.5811 c 2.3448,-0.5256 5.1096,-2.1984 5.1096,-4.6104 0,-2.0544 -2.1336,-3.5856 -5.2368,-3.5856 h -6.7536 c -0.4728,0 -0.6864,0 -0.6864,0.4632 0,0.2568 0.2136,0.2568 0.6648,0.2568 0.048,0 0.4968,0 0.9,0.05 0.4272,0.048 0.6408,0.072 0.6408,0.384 0,0.096 -0.024,0.168 -0.0936,0.4536 l -3.1752,12.8664 c -0.2376,0.9336 -0.2832,1.1256 -2.1552,1.1256 -0.4272,0 -0.6384,0 -0.6384,0.4656 0,0.2544 0.288,0.2544 0.3336,0.2544 h 6.048 c 0.192,0 0.4776,0 0.4776,-0.4632 0,-0.2568 -0.2136,-0.2568 -0.6696,-0.2568 -0.8832,0 -1.5528,0 -1.5528,-0.432 0,-0.144 0.048,-0.264 0.072,-0.408 l 1.5768,-6.36 h 2.8464 c 2.1768,0 2.6064,1.332 2.6064,2.1648 0,0.3576 -0.192,1.0944 -0.3336,1.6416 -0.168,0.6672 -0.3816,1.548 -0.3816,2.0232 0,2.5704 2.8704,2.5704 3.18,2.5704 2.0328,0 2.8704,-2.3784 2.8704,-2.7072 0,-0.2832 -0.264,-0.2832 -0.288,-0.2832 -0.216,0 -0.264,0.168 -0.312,0.3336 -0.5976,1.7688 -1.6248,2.1768 -2.1768,2.1768 -0.7896,0 -0.9552,-0.5256 -0.9552,-1.4568 0,-0.7416 0.1368,-1.9584 0.228,-2.724 0.0456,-0.3336 0.0912,-0.7896 0.0912,-1.1232 0,-1.8408 -1.5912,-2.58 -2.232,-2.82 z"
     style="fill:#000000;fill-rule:evenodd;stroke:none;stroke-width:2.4000001" />
  <path
     inkscape:connector-curvature="0"
     id="path26-8-6-8"
     d="m -705.97476,1031.7523 h 4.0584 c 3.3888,0 6.708,-2.5152 6.708,-5.2272 0,-1.8624 -1.5768,-3.6552 -4.704,-3.6552 h -7.7328 c -0.4536,0 -0.7152,0 -0.7152,0.4416 0,0.2784 0.2136,0.2784 0.6936,0.2784 0.3096,0 0.7392,0.026 1.0248,0.05 0.3816,0.048 0.5256,0.1202 0.5256,0.3842 0,0.096 -0.024,0.168 -0.096,0.4534 l -3.1992,12.8666 c -0.24,0.9334 -0.288,1.1256 -2.172,1.1256 -0.4056,0 -0.6696,0 -0.6696,0.4416 0,0.2784 0.288,0.2784 0.3576,0.2784 h 6.1104 c 0.168,0 0.4776,0 0.4776,-0.4632 0,-0.2568 -0.2136,-0.2568 -0.6696,-0.2568 -0.8832,0 -1.5504,0 -1.5504,-0.4248 0,-0.1416 0.048,-0.2592 0.072,-0.4008 z m 1.74,-7.248 c 0.216,-0.84 0.264,-0.912 1.296,-0.912 h 2.304 c 1.992,0 3.2664,0.6504 3.2664,2.3064 0,0.936 -0.4824,3 -1.4184,3.864 -1.2,1.08 -2.64,1.272 -3.696,1.272 h -3.384 z"
     style="fill:#000000;fill-rule:evenodd;stroke:none;stroke-width:2.4000001" />
  <path
     inkscape:connector-curvature="0"
     id="path44-0-1-9"
     d="m -621.9324,1032.2136 h -70.2"
     style="fill:none;stroke:#000000;stroke-width:1.1707623" />
</svg>
