<?xml version="1.0" encoding="utf-8" ?>
<svg baseProfile="full" height="180" version="1.1" width="1020" xmlns="http://www.w3.org/2000/svg" xmlns:ev="http://www.w3.org/2001/xml-events" xmlns:xlink="http://www.w3.org/1999/xlink"><defs /><polyline fill="none" points="10,160 30,140 50,120 70,140 90,120 110,140 130,120 150,140 170,160 190,140 210,120 230,100" stroke="lightblue" stroke-width="2" /><polyline fill="none" points="230,100 250,120 270,100 290,120 310,140 330,120 350,100 370,120 390,140 410,160 430,140 450,160 470,140 490,160 510,140 530,120 550,100 570,80 590,60 610,80 630,60 650,40 670,20" stroke="lightgreen" stroke-width="2" /><polyline fill="none" points="670,20 690,40 710,60 730,80 750,60 770,80 790,100 810,120 830,100 850,80 870,100 890,80 910,60 930,80 950,100 970,120 990,140 1010,160" stroke="lightcoral" stroke-width="2" /><polyline fill="none" points="10,160 30,140" stroke="black" stroke-width="2" /><line stroke="gray" stroke-dasharray="5,5" stroke-width="1" x1="0" x2="1020" y1="140" y2="140" /><text fill="gray" font-size="16px" text-anchor="start" x="5" y="144">1</text><line stroke="gray" stroke-dasharray="5,5" stroke-width="1" x1="0" x2="1020" y1="100" y2="100" /><text fill="gray" font-size="16px" text-anchor="start" x="5" y="104">3</text><line stroke="gray" stroke-dasharray="5,5" stroke-width="1" x1="0" x2="1020" y1="20" y2="20" /><text fill="gray" font-size="16px" text-anchor="start" x="5" y="24">7</text><text fill="black" font-size="16px" text-anchor="start" x="56.66666666666667" y="175">0</text><text fill="black" font-size="16px" text-anchor="start" x="96.66666666666667" y="175">0</text><text fill="black" font-size="16px" text-anchor="start" x="136.66666666666666" y="175">0</text><text fill="black" font-size="16px" text-anchor="start" x="176.66666666666666" y="175">1</text><text fill="black" font-size="16px" text-anchor="start" x="256.6666666666667" y="175">3</text><text fill="black" font-size="16px" text-anchor="start" x="316.6666666666667" y="175">2</text><text fill="black" font-size="16px" text-anchor="start" x="336.6666666666667" y="175">3</text><text fill="black" font-size="16px" text-anchor="start" x="416.6666666666667" y="175">1</text><text fill="black" font-size="16px" text-anchor="start" x="456.6666666666667" y="175">1</text><text fill="black" font-size="16px" text-anchor="start" x="496.66666666666674" y="175">1</text><text fill="black" font-size="16px" text-anchor="start" x="516.6666666666666" y="175">2</text><text fill="black" font-size="16px" text-anchor="start" x="536.6666666666666" y="175">3</text><text fill="black" font-size="16px" text-anchor="start" x="596.6666666666666" y="175">1</text><text fill="black" font-size="16px" text-anchor="start" x="736.6666666666666" y="175">5</text><text fill="black" font-size="16px" text-anchor="start" x="816.6666666666666" y="175">3</text><text fill="black" font-size="16px" text-anchor="start" x="836.6666666666666" y="175">4</text><text fill="black" font-size="16px" text-anchor="start" x="876.6666666666666" y="175">4</text><text fill="black" font-size="16px" text-anchor="start" x="896.6666666666666" y="175">5</text></svg>