<?xml version="1.0" encoding="utf-8" ?>
<svg baseProfile="full" height="300" version="1.1" width="300" xmlns="http://www.w3.org/2000/svg" xmlns:ev="http://www.w3.org/2001/xml-events" xmlns:xlink="http://www.w3.org/1999/xlink"><defs /><line stroke="black" stroke-width="2" x1="290.0" x2="220.0" y1="150.0" y2="271.2435565298214" /><line stroke="black" stroke-width="2" x1="220.0" x2="80.00000000000003" y1="271.2435565298214" y2="271.24355652982143" /><line stroke="black" stroke-width="2" x1="80.00000000000003" x2="10.0" y1="271.24355652982143" y2="150.00000000000003" /><line stroke="black" stroke-width="2" x1="10.0" x2="79.99999999999994" y1="150.00000000000003" y2="28.75644347017861" /><line stroke="black" stroke-width="2" x1="79.99999999999994" x2="220.0" y1="28.75644347017861" y2="28.756443470178596" /><line stroke="black" stroke-width="2" x1="220.0" x2="290.0" y1="28.756443470178596" y2="150.0" /><line stroke="black" stroke-width="2" x1="80.00000000000003" x2="10.0" y1="271.24355652982143" y2="150.00000000000003" /><line stroke="black" stroke-width="2" x1="10.0" x2="79.99999999999994" y1="150.00000000000003" y2="28.75644347017861" /><line stroke="black" stroke-width="2" x1="79.99999999999994" x2="80.00000000000003" y1="28.75644347017861" y2="271.24355652982143" /><line stroke="black" stroke-width="2" x1="80.00000000000003" x2="79.99999999999994" y1="271.24355652982143" y2="28.75644347017861" /><line stroke="black" stroke-width="2" x1="79.99999999999994" x2="220.0" y1="28.75644347017861" y2="28.756443470178596" /><line stroke="black" stroke-width="2" x1="220.0" x2="80.00000000000003" y1="28.756443470178596" y2="271.24355652982143" /><line stroke="black" stroke-width="2" x1="220.0" x2="80.00000000000003" y1="271.2435565298214" y2="271.24355652982143" /><line stroke="black" stroke-width="2" x1="80.00000000000003" x2="220.0" y1="271.24355652982143" y2="28.756443470178596" /><line stroke="black" stroke-width="2" x1="220.0" x2="220.0" y1="28.756443470178596" y2="271.2435565298214" /><line stroke="black" stroke-width="2" x1="290.0" x2="220.0" y1="150.0" y2="271.2435565298214" /><line stroke="black" stroke-width="2" x1="220.0" x2="220.0" y1="271.2435565298214" y2="28.756443470178596" /><line stroke="black" stroke-width="2" x1="220.0" x2="290.0" y1="28.756443470178596" y2="150.0" /></svg>