<?xml version="1.0" encoding="utf-8" ?>
<svg baseProfile="full" height="210" version="1.1" width="1460" xmlns="http://www.w3.org/2000/svg" xmlns:ev="http://www.w3.org/2001/xml-events" xmlns:xlink="http://www.w3.org/1999/xlink"><defs /><rect fill="white" height="210" width="1460" x="0" y="0" /><g transform="translate(0,0)"><defs /></g><g transform="translate(0,0)"><polyline fill="none" points="0,100 20,80 40,60 60,40 80,20 100,40 120,60 140,80 160,100" stroke="black" stroke-width="2" /></g><g transform="translate(210,0)"><defs /></g><g transform="translate(210,0)"><polyline fill="none" points="0,80 20,60 40,40 60,20 80,40 100,20 120,40 140,60 160,80" stroke="black" stroke-width="2" /></g><g transform="translate(420,0)"><defs /></g><g transform="translate(420,0)"><polyline fill="none" points="0,80 20,60 40,40 60,20 80,40 100,60 120,40 140,60 160,80" stroke="black" stroke-width="2" /></g><g transform="translate(630,0)"><defs /></g><g transform="translate(630,0)"><polyline fill="none" points="0,80 20,60 40,40 60,20 80,40 100,60 120,80 140,60 160,80" stroke="black" stroke-width="2" /></g><g transform="translate(840,0)"><defs /></g><g transform="translate(840,0)"><polyline fill="none" points="0,80 20,60 40,40 60,60 80,40 100,20 120,40 140,60 160,80" stroke="black" stroke-width="2" /></g><g transform="translate(1050,0)"><defs /></g><g transform="translate(1050,0)"><polyline fill="none" points="0,60 20,40 40,20 60,40 80,20 100,40 120,20 140,40 160,60" stroke="black" stroke-width="2" /></g><g transform="translate(1260,0)"><defs /></g><g transform="translate(1260,0)"><polyline fill="none" points="0,60 20,40 40,20 60,40 80,20 100,40 120,60 140,40 160,60" stroke="black" stroke-width="2" /></g><g transform="translate(0,110)"><defs /></g><g transform="translate(0,110)"><polyline fill="none" points="0,60 20,40 40,20 60,40 80,60 100,40 120,20 140,40 160,60" stroke="black" stroke-width="2" /></g><g transform="translate(210,110)"><defs /></g><g transform="translate(210,110)"><polyline fill="none" points="0,60 20,40 40,20 60,40 80,60 100,40 120,60 140,40 160,60" stroke="black" stroke-width="2" /></g><g transform="translate(420,110)"><defs /></g><g transform="translate(420,110)"><polyline fill="none" points="0,80 20,60 40,80 60,60 80,40 100,20 120,40 140,60 160,80" stroke="black" stroke-width="2" /></g><g transform="translate(630,110)"><defs /></g><g transform="translate(630,110)"><polyline fill="none" points="0,60 20,40 40,60 60,40 80,20 100,40 120,20 140,40 160,60" stroke="black" stroke-width="2" /></g><g transform="translate(840,110)"><defs /></g><g transform="translate(840,110)"><polyline fill="none" points="0,60 20,40 40,60 60,40 80,20 100,40 120,60 140,40 160,60" stroke="black" stroke-width="2" /></g><g transform="translate(1050,110)"><defs /></g><g transform="translate(1050,110)"><polyline fill="none" points="0,60 20,40 40,60 60,40 80,60 100,40 120,20 140,40 160,60" stroke="black" stroke-width="2" /></g><g transform="translate(1260,110)"><defs /></g><g transform="translate(1260,110)"><polyline fill="none" points="0,40 20,20 40,40 60,20 80,40 100,20 120,40 140,20 160,40" stroke="black" stroke-width="2" /></g></svg>