<?xml version="1.0" encoding="utf-8" ?>
<svg baseProfile="full" fill="none" height="500" version="1.1" width="500" xmlns="http://www.w3.org/2000/svg" xmlns:ev="http://www.w3.org/2001/xml-events" xmlns:xlink="http://www.w3.org/1999/xlink"><defs><marker id="arrow" markerHeight="10" markerWidth="10" orient="auto" refX="2" refY="3"><path d="M0,0 L6,3 L0,6 Z" fill="black" /></marker></defs><rect fill="lightcyan" height="40" stroke="black" stroke-width="1" width="40" x="50" y="410" /><rect fill="lightcyan" height="40" stroke="black" stroke-width="1" width="40" x="50" y="370" /><rect fill="lightcyan" height="40" stroke="black" stroke-width="1" width="40" x="50" y="330" /><rect fill="lightcyan" height="40" stroke="black" stroke-width="1" width="40" x="50" y="290" /><rect fill="lightcyan" height="40" stroke="black" stroke-width="1" width="40" x="50" y="250" /><rect fill="lightcyan" height="40" stroke="black" stroke-width="1" width="40" x="50" y="210" /><rect fill="lightcyan" height="40" stroke="black" stroke-width="1" width="40" x="50" y="170" /><rect fill="lightcyan" height="40" stroke="black" stroke-width="1" width="40" x="50" y="130" /><rect fill="lightcyan" height="40" stroke="black" stroke-width="1" width="40" x="50" y="90" /><rect fill="lightcyan" height="40" stroke="black" stroke-width="1" width="40" x="50" y="50" /><rect fill="lightcyan" height="40" stroke="black" stroke-width="1" width="40" x="90" y="410" /><rect fill="lightcyan" height="40" stroke="black" stroke-width="1" width="40" x="90" y="370" /><rect fill="lightcyan" height="40" stroke="black" stroke-width="1" width="40" x="90" y="330" /><rect fill="lightcyan" height="40" stroke="black" stroke-width="1" width="40" x="90" y="290" /><rect fill="lightcyan" height="40" stroke="black" stroke-width="1" width="40" x="90" y="250" /><rect fill="lightcyan" height="40" stroke="black" stroke-width="1" width="40" x="90" y="210" /><rect fill="lightcyan" height="40" stroke="black" stroke-width="1" width="40" x="90" y="170" /><rect fill="lightcyan" height="40" stroke="black" stroke-width="1" width="40" x="90" y="130" /><rect fill="lightcyan" height="40" stroke="black" stroke-width="1" width="40" x="90" y="90" /><rect fill="lightcyan" height="40" stroke="black" stroke-width="1" width="40" x="90" y="50" /><rect fill="lightcyan" height="40" stroke="black" stroke-width="1" width="40" x="130" y="410" /><rect fill="lightcyan" height="40" stroke="black" stroke-width="1" width="40" x="130" y="370" /><rect fill="lightcyan" height="40" stroke="black" stroke-width="1" width="40" x="130" y="330" /><rect fill="lightcyan" height="40" stroke="black" stroke-width="1" width="40" x="130" y="290" /><rect fill="lightcyan" height="40" stroke="black" stroke-width="1" width="40" x="130" y="250" /><rect fill="lightcyan" height="40" stroke="black" stroke-width="1" width="40" x="130" y="210" /><rect fill="lightcyan" height="40" stroke="black" stroke-width="1" width="40" x="130" y="170" /><rect fill="lightcyan" height="40" stroke="black" stroke-width="1" width="40" x="130" y="130" /><rect fill="lightcyan" height="40" stroke="black" stroke-width="1" width="40" x="130" y="90" /><rect fill="lightcyan" height="40" stroke="black" stroke-width="1" width="40" x="130" y="50" /><rect fill="lightcyan" height="40" stroke="black" stroke-width="1" width="40" x="170" y="410" /><rect fill="lightcyan" height="40" stroke="black" stroke-width="1" width="40" x="170" y="370" /><rect fill="lightcyan" height="40" stroke="black" stroke-width="1" width="40" x="170" y="330" /><rect fill="lightcyan" height="40" stroke="black" stroke-width="1" width="40" x="170" y="290" /><rect fill="lightcyan" height="40" stroke="black" stroke-width="1" width="40" x="170" y="250" /><rect fill="lightcyan" height="40" stroke="black" stroke-width="1" width="40" x="170" y="210" /><rect fill="lightcyan" height="40" stroke="black" stroke-width="1" width="40" x="170" y="170" /><rect fill="lightcyan" height="40" stroke="black" stroke-width="1" width="40" x="170" y="130" /><rect fill="lightcyan" height="40" stroke="black" stroke-width="1" width="40" x="170" y="90" /><rect fill="lightcyan" height="40" stroke="black" stroke-width="1" width="40" x="170" y="50" /><rect fill="lightcyan" height="40" stroke="black" stroke-width="1" width="40" x="210" y="410" /><rect fill="lightcyan" height="40" stroke="black" stroke-width="1" width="40" x="210" y="370" /><rect fill="lightcyan" height="40" stroke="black" stroke-width="1" width="40" x="210" y="330" /><rect fill="lightcyan" height="40" stroke="black" stroke-width="1" width="40" x="210" y="290" /><rect fill="lightcyan" height="40" stroke="black" stroke-width="1" width="40" x="210" y="250" /><rect fill="lightcyan" height="40" stroke="black" stroke-width="1" width="40" x="210" y="210" /><rect fill="lightcyan" height="40" stroke="black" stroke-width="1" width="40" x="210" y="170" /><rect fill="lightcyan" height="40" stroke="black" stroke-width="1" width="40" x="210" y="130" /><rect fill="lightcyan" height="40" stroke="black" stroke-width="1" width="40" x="210" y="90" /><rect fill="lightcyan" height="40" stroke="black" stroke-width="1" width="40" x="210" y="50" /><rect fill="lightcyan" height="40" stroke="black" stroke-width="1" width="40" x="250" y="410" /><rect fill="lightcyan" height="40" stroke="black" stroke-width="1" width="40" x="250" y="370" /><rect fill="lightcyan" height="40" stroke="black" stroke-width="1" width="40" x="250" y="330" /><rect fill="lightcyan" height="40" stroke="black" stroke-width="1" width="40" x="250" y="290" /><rect fill="lightcyan" height="40" stroke="black" stroke-width="1" width="40" x="250" y="250" /><rect fill="lightcyan" height="40" stroke="black" stroke-width="1" width="40" x="250" y="210" /><rect fill="lightcyan" height="40" stroke="black" stroke-width="1" width="40" x="250" y="170" /><rect fill="lightcyan" height="40" stroke="black" stroke-width="1" width="40" x="250" y="130" /><rect fill="lightcyan" height="40" stroke="black" stroke-width="1" width="40" x="250" y="90" /><rect fill="lightcyan" height="40" stroke="black" stroke-width="1" width="40" x="250" y="50" /><rect fill="lightcyan" height="40" stroke="black" stroke-width="1" width="40" x="290" y="410" /><rect fill="lightcyan" height="40" stroke="black" stroke-width="1" width="40" x="290" y="370" /><rect fill="lightcyan" height="40" stroke="black" stroke-width="1" width="40" x="290" y="330" /><rect fill="lightcyan" height="40" stroke="black" stroke-width="1" width="40" x="290" y="290" /><rect fill="lightcyan" height="40" stroke="black" stroke-width="1" width="40" x="290" y="250" /><rect fill="lightcyan" height="40" stroke="black" stroke-width="1" width="40" x="290" y="210" /><rect fill="lightcyan" height="40" stroke="black" stroke-width="1" width="40" x="290" y="170" /><rect fill="lightcyan" height="40" stroke="black" stroke-width="1" width="40" x="290" y="130" /><rect fill="lightcyan" height="40" stroke="black" stroke-width="1" width="40" x="290" y="90" /><rect fill="lightcyan" height="40" stroke="black" stroke-width="1" width="40" x="290" y="50" /><rect fill="lightcyan" height="40" stroke="black" stroke-width="1" width="40" x="330" y="410" /><rect fill="lightcyan" height="40" stroke="black" stroke-width="1" width="40" x="330" y="370" /><rect fill="lightcyan" height="40" stroke="black" stroke-width="1" width="40" x="330" y="330" /><rect fill="lightcyan" height="40" stroke="black" stroke-width="1" width="40" x="330" y="290" /><rect fill="lightcyan" height="40" stroke="black" stroke-width="1" width="40" x="330" y="250" /><rect fill="lightcyan" height="40" stroke="black" stroke-width="1" width="40" x="330" y="210" /><rect fill="lightcyan" height="40" stroke="black" stroke-width="1" width="40" x="330" y="170" /><rect fill="lightcyan" height="40" stroke="black" stroke-width="1" width="40" x="330" y="130" /><rect fill="lightcyan" height="40" stroke="black" stroke-width="1" width="40" x="330" y="90" /><rect fill="lightcyan" height="40" stroke="black" stroke-width="1" width="40" x="330" y="50" /><rect fill="lightcyan" height="40" stroke="black" stroke-width="1" width="40" x="370" y="410" /><rect fill="lightcyan" height="40" stroke="black" stroke-width="1" width="40" x="370" y="370" /><rect fill="lightcyan" height="40" stroke="black" stroke-width="1" width="40" x="370" y="330" /><rect fill="lightcyan" height="40" stroke="black" stroke-width="1" width="40" x="370" y="290" /><rect fill="lightcyan" height="40" stroke="black" stroke-width="1" width="40" x="370" y="250" /><rect fill="lightcyan" height="40" stroke="black" stroke-width="1" width="40" x="370" y="210" /><rect fill="lightcyan" height="40" stroke="black" stroke-width="1" width="40" x="370" y="170" /><rect fill="lightcyan" height="40" stroke="black" stroke-width="1" width="40" x="370" y="130" /><rect fill="lightcyan" height="40" stroke="black" stroke-width="1" width="40" x="370" y="90" /><rect fill="lightcyan" height="40" stroke="black" stroke-width="1" width="40" x="370" y="50" /><rect fill="lightcyan" height="40" stroke="black" stroke-width="1" width="40" x="410" y="410" /><rect fill="lightcyan" height="40" stroke="black" stroke-width="1" width="40" x="410" y="370" /><rect fill="lightcyan" height="40" stroke="black" stroke-width="1" width="40" x="410" y="330" /><rect fill="lightcyan" height="40" stroke="black" stroke-width="1" width="40" x="410" y="290" /><rect fill="lightcyan" height="40" stroke="black" stroke-width="1" width="40" x="410" y="250" /><rect fill="lightcyan" height="40" stroke="black" stroke-width="1" width="40" x="410" y="210" /><rect fill="lightcyan" height="40" stroke="black" stroke-width="1" width="40" x="410" y="170" /><rect fill="lightcyan" height="40" stroke="black" stroke-width="1" width="40" x="410" y="130" /><rect fill="lightcyan" height="40" stroke="black" stroke-width="1" width="40" x="410" y="90" /><rect fill="lightcyan" height="40" stroke="black" stroke-width="1" width="40" x="410" y="50" /><rect fill="peachpuff" height="40" stroke="black" stroke-width="1" width="40" x="90" y="410" /><rect fill="peachpuff" height="40" stroke="black" stroke-width="1" width="40" x="130" y="410" /><rect fill="peachpuff" height="40" stroke="black" stroke-width="1" width="40" x="130" y="370" /><rect fill="peachpuff" height="40" stroke="black" stroke-width="1" width="40" x="170" y="410" /><rect fill="peachpuff" height="40" stroke="black" stroke-width="1" width="40" x="170" y="370" /><rect fill="peachpuff" height="40" stroke="black" stroke-width="1" width="40" x="210" y="410" /><rect fill="peachpuff" height="40" stroke="black" stroke-width="1" width="40" x="210" y="370" /><rect fill="peachpuff" height="40" stroke="black" stroke-width="1" width="40" x="210" y="330" /><rect fill="peachpuff" height="40" stroke="black" stroke-width="1" width="40" x="210" y="290" /><rect fill="peachpuff" height="40" stroke="black" stroke-width="1" width="40" x="210" y="250" /><rect fill="peachpuff" height="40" stroke="black" stroke-width="1" width="40" x="250" y="410" /><rect fill="peachpuff" height="40" stroke="black" stroke-width="1" width="40" x="250" y="370" /><rect fill="peachpuff" height="40" stroke="black" stroke-width="1" width="40" x="250" y="330" /><rect fill="peachpuff" height="40" stroke="black" stroke-width="1" width="40" x="250" y="290" /><rect fill="peachpuff" height="40" stroke="black" stroke-width="1" width="40" x="250" y="250" /><rect fill="peachpuff" height="40" stroke="black" stroke-width="1" width="40" x="290" y="410" /><rect fill="peachpuff" height="40" stroke="black" stroke-width="1" width="40" x="290" y="370" /><rect fill="peachpuff" height="40" stroke="black" stroke-width="1" width="40" x="290" y="330" /><rect fill="peachpuff" height="40" stroke="black" stroke-width="1" width="40" x="290" y="290" /><rect fill="peachpuff" height="40" stroke="black" stroke-width="1" width="40" x="290" y="250" /><rect fill="peachpuff" height="40" stroke="black" stroke-width="1" width="40" x="290" y="210" /><rect fill="peachpuff" height="40" stroke="black" stroke-width="1" width="40" x="330" y="410" /><rect fill="peachpuff" height="40" stroke="black" stroke-width="1" width="40" x="330" y="370" /><rect fill="peachpuff" height="40" stroke="black" stroke-width="1" width="40" x="330" y="330" /><rect fill="peachpuff" height="40" stroke="black" stroke-width="1" width="40" x="330" y="290" /><rect fill="peachpuff" height="40" stroke="black" stroke-width="1" width="40" x="330" y="250" /><rect fill="peachpuff" height="40" stroke="black" stroke-width="1" width="40" x="330" y="210" /><rect fill="peachpuff" height="40" stroke="black" stroke-width="1" width="40" x="330" y="170" /><rect fill="peachpuff" height="40" stroke="black" stroke-width="1" width="40" x="370" y="410" /><rect fill="peachpuff" height="40" stroke="black" stroke-width="1" width="40" x="370" y="370" /><rect fill="peachpuff" height="40" stroke="black" stroke-width="1" width="40" x="370" y="330" /><rect fill="peachpuff" height="40" stroke="black" stroke-width="1" width="40" x="370" y="290" /><rect fill="peachpuff" height="40" stroke="black" stroke-width="1" width="40" x="370" y="250" /><rect fill="peachpuff" height="40" stroke="black" stroke-width="1" width="40" x="370" y="210" /><rect fill="peachpuff" height="40" stroke="black" stroke-width="1" width="40" x="370" y="170" /><rect fill="peachpuff" height="40" stroke="black" stroke-width="1" width="40" x="370" y="130" /><rect fill="peachpuff" height="40" stroke="black" stroke-width="1" width="40" x="370" y="90" /><rect fill="peachpuff" height="40" stroke="black" stroke-width="1" width="40" x="410" y="410" /><rect fill="peachpuff" height="40" stroke="black" stroke-width="1" width="40" x="410" y="370" /><rect fill="peachpuff" height="40" stroke="black" stroke-width="1" width="40" x="410" y="330" /><rect fill="peachpuff" height="40" stroke="black" stroke-width="1" width="40" x="410" y="290" /><rect fill="peachpuff" height="40" stroke="black" stroke-width="1" width="40" x="410" y="250" /><rect fill="peachpuff" height="40" stroke="black" stroke-width="1" width="40" x="410" y="210" /><rect fill="peachpuff" height="40" stroke="black" stroke-width="1" width="40" x="410" y="170" /><rect fill="peachpuff" height="40" stroke="black" stroke-width="1" width="40" x="410" y="130" /><rect fill="peachpuff" height="40" stroke="black" stroke-width="1" width="40" x="410" y="90" /><rect fill="peachpuff" height="40" stroke="black" stroke-width="1" width="40" x="410" y="50" /><line marker-end="url(#arrow)" stroke="black" stroke-width="3" x1="50" x2="90" y1="450" y2="450" /><line marker-end="url(#arrow)" stroke="black" stroke-width="3" x1="90" x2="90" y1="450" y2="410" /><line marker-end="url(#arrow)" stroke="black" stroke-width="3" x1="90" x2="130" y1="410" y2="410" /><line marker-end="url(#arrow)" stroke="black" stroke-width="3" x1="130" x2="130" y1="410" y2="370" /><line marker-end="url(#arrow)" stroke="black" stroke-width="3" x1="130" x2="170" y1="370" y2="370" /><line marker-end="url(#arrow)" stroke="black" stroke-width="3" x1="170" x2="210" y1="370" y2="370" /><line marker-end="url(#arrow)" stroke="black" stroke-width="3" x1="210" x2="210" y1="370" y2="330" /><line marker-end="url(#arrow)" stroke="black" stroke-width="3" x1="210" x2="210" y1="330" y2="290" /><line marker-end="url(#arrow)" stroke="black" stroke-width="3" x1="210" x2="210" y1="290" y2="250" /><line marker-end="url(#arrow)" stroke="black" stroke-width="3" x1="210" x2="250" y1="250" y2="250" /><line marker-end="url(#arrow)" stroke="black" stroke-width="3" x1="250" x2="290" y1="250" y2="250" /><line marker-end="url(#arrow)" stroke="black" stroke-width="3" x1="290" x2="290" y1="250" y2="210" /><line marker-end="url(#arrow)" stroke="black" stroke-width="3" x1="290" x2="330" y1="210" y2="210" /><line marker-end="url(#arrow)" stroke="black" stroke-width="3" x1="330" x2="330" y1="210" y2="170" /><line marker-end="url(#arrow)" stroke="black" stroke-width="3" x1="330" x2="370" y1="170" y2="170" /><line marker-end="url(#arrow)" stroke="black" stroke-width="3" x1="370" x2="370" y1="170" y2="130" /><line marker-end="url(#arrow)" stroke="black" stroke-width="3" x1="370" x2="370" y1="130" y2="90" /><line marker-end="url(#arrow)" stroke="black" stroke-width="3" x1="370" x2="410" y1="90" y2="90" /><line marker-end="url(#arrow)" stroke="black" stroke-width="3" x1="410" x2="410" y1="90" y2="50" /><line marker-end="url(#arrow)" stroke="black" stroke-width="3" x1="410" x2="450" y1="50" y2="50" /><line marker-end="url(#arrow)" stroke="black" stroke-width="3" x1="10" x2="10" y1="410" y2="370" /><line marker-end="url(#arrow)" stroke="black" stroke-width="3" x1="10" x2="50" y1="370" y2="370" /><line marker-end="url(#arrow)" stroke="black" stroke-width="3" x1="50" x2="50" y1="370" y2="330" /><line marker-end="url(#arrow)" stroke="black" stroke-width="3" x1="50" x2="90" y1="330" y2="330" /><line marker-end="url(#arrow)" stroke="black" stroke-width="3" x1="90" x2="90" y1="330" y2="290" /><line marker-end="url(#arrow)" stroke="black" stroke-width="3" x1="90" x2="90" y1="290" y2="250" /><line marker-end="url(#arrow)" stroke="black" stroke-width="3" x1="90" x2="130" y1="250" y2="250" /><line marker-end="url(#arrow)" stroke="black" stroke-width="3" x1="130" x2="170" y1="250" y2="250" /><line marker-end="url(#arrow)" stroke="black" stroke-width="3" x1="170" x2="210" y1="250" y2="250" /><line stroke="black" stroke-dasharray="5,5" stroke-width="2" x1="50" x2="450" y1="450" y2="50" /><line stroke="black" stroke-dasharray="5,5" stroke-width="2" x1="50" x2="410" y1="410" y2="50" /></svg>