<?xml version="1.0" encoding="utf-8" ?>
<svg baseProfile="full" height="510" version="1.1" width="1810" xmlns="http://www.w3.org/2000/svg" xmlns:ev="http://www.w3.org/2001/xml-events" xmlns:xlink="http://www.w3.org/1999/xlink"><defs /><rect fill="white" height="510" width="1810" x="0" y="0" /><g transform="translate(0,0)"><defs /></g><g transform="translate(0,0)"><circle cx="120" cy="120" fill="none" r="30" stroke="black" stroke-width="2" /></g><g transform="translate(0,0)"><path d="M149.85012495834079,117.00499750059515 A30,30 0 1,1 90.14987504165923,117.00499750059515" fill="none" stroke="black" stroke-width="5" /></g><g transform="translate(0,0)"><circle cx="120" cy="120" fill="none" r="45" stroke="black" stroke-width="2" /></g><g transform="translate(0,0)"><path d="M164.77518743751116,115.50749625089273 A45,45 0 1,1 75.22481256248884,115.50749625089273" fill="none" stroke="black" stroke-width="5" /></g><g transform="translate(0,0)"><circle cx="120" cy="120" fill="none" r="60" stroke="black" stroke-width="2" /></g><g transform="translate(0,0)"><path d="M179.70024991668154,114.0099950011903 A60,60 0 1,1 60.29975008331845,114.00999500119032" fill="none" stroke="black" stroke-width="5" /></g><g transform="translate(0,0)"><circle cx="120" cy="120" fill="none" r="75" stroke="black" stroke-width="2" /></g><g transform="translate(0,0)"><path d="M194.62531239585195,112.51249375148788 A75,75 0 1,1 45.374687604148065,112.5124937514879" fill="none" stroke="black" stroke-width="5" /></g><g transform="translate(260,0)"><defs /></g><g transform="translate(260,0)"><circle cx="120" cy="120" fill="none" r="30" stroke="black" stroke-width="2" /></g><g transform="translate(260,0)"><path d="M149.85012495834079,117.00499750059515 A30,30 0 1,1 90.14987504165923,117.00499750059515" fill="none" stroke="black" stroke-width="5" /></g><g transform="translate(260,0)"><circle cx="120" cy="120" fill="none" r="45" stroke="black" stroke-width="2" /></g><g transform="translate(260,0)"><path d="M164.77518743751116,115.50749625089273 A45,45 0 1,1 75.22481256248884,115.50749625089273" fill="none" stroke="black" stroke-width="5" /></g><g transform="translate(260,0)"><circle cx="120" cy="120" fill="none" r="60" stroke="black" stroke-width="2" /></g><g transform="translate(260,0)"><path d="M179.70024991668154,114.0099950011903 A60,60 0 1,1 60.29975008331845,114.00999500119032" fill="none" stroke="black" stroke-width="5" /></g><g transform="translate(260,0)"><circle cx="120" cy="120" fill="none" r="75" stroke="black" stroke-width="2" /></g><g transform="translate(260,0)"><path d="M45.37468760414808,127.48750624851213 A75,75 0 1,1 194.62531239585195,127.48750624851206" fill="none" stroke="black" stroke-width="5" /></g><g transform="translate(520,0)"><defs /></g><g transform="translate(520,0)"><circle cx="105" cy="105" fill="none" r="30" stroke="black" stroke-width="2" /></g><g transform="translate(520,0)"><path d="M134.85012495834079,102.00499750059515 A30,30 0 1,1 75.14987504165923,102.00499750059515" fill="none" stroke="black" stroke-width="5" /></g><g transform="translate(520,0)"><circle cx="105" cy="105" fill="none" r="45" stroke="black" stroke-width="2" /></g><g transform="translate(520,0)"><path d="M149.77518743751116,100.50749625089273 A45,45 0 1,1 60.224812562488836,100.50749625089273" fill="none" stroke="black" stroke-width="5" /></g><g transform="translate(520,0)"><circle cx="105" cy="105" fill="none" r="60" stroke="black" stroke-width="2" /></g><g transform="translate(520,0)"><path d="M45.29975008331846,110.9900049988097 A60,60 0 1,1 164.70024991668154,110.99000499880965" fill="none" stroke="black" stroke-width="5" /></g><g transform="translate(520,0)"><path d="M164.70024991668154,99.0099950011903 A60,60 0 1,1 45.29975008331845,99.00999500119032" fill="none" stroke="black" stroke-width="5" /></g><g transform="translate(780,0)"><defs /></g><g transform="translate(780,0)"><circle cx="120" cy="120" fill="none" r="30" stroke="black" stroke-width="2" /></g><g transform="translate(780,0)"><path d="M149.85012495834079,117.00499750059515 A30,30 0 1,1 90.14987504165923,117.00499750059515" fill="none" stroke="black" stroke-width="5" /></g><g transform="translate(780,0)"><circle cx="120" cy="120" fill="none" r="45" stroke="black" stroke-width="2" /></g><g transform="translate(780,0)"><path d="M164.77518743751116,115.50749625089273 A45,45 0 1,1 75.22481256248884,115.50749625089273" fill="none" stroke="black" stroke-width="5" /></g><g transform="translate(780,0)"><circle cx="120" cy="120" fill="none" r="60" stroke="black" stroke-width="2" /></g><g transform="translate(780,0)"><path d="M60.29975008331846,125.9900049988097 A60,60 0 1,1 179.70024991668154,125.99000499880965" fill="none" stroke="black" stroke-width="5" /></g><g transform="translate(780,0)"><circle cx="120" cy="120" fill="none" r="75" stroke="black" stroke-width="2" /></g><g transform="translate(780,0)"><path d="M45.37468760414808,127.48750624851213 A75,75 0 1,1 194.62531239585195,127.48750624851206" fill="none" stroke="black" stroke-width="5" /></g><g transform="translate(1040,0)"><defs /></g><g transform="translate(1040,0)"><circle cx="105" cy="105" fill="none" r="30" stroke="black" stroke-width="2" /></g><g transform="translate(1040,0)"><path d="M134.85012495834079,102.00499750059515 A30,30 0 1,1 75.14987504165923,102.00499750059515" fill="none" stroke="black" stroke-width="5" /></g><g transform="translate(1040,0)"><circle cx="105" cy="105" fill="none" r="45" stroke="black" stroke-width="2" /></g><g transform="translate(1040,0)"><path d="M60.22481256248884,109.49250374910727 A45,45 0 1,1 149.77518743751116,109.49250374910724" fill="none" stroke="black" stroke-width="5" /></g><g transform="translate(1040,0)"><path d="M149.77518743751116,100.50749625089273 A45,45 0 1,1 60.224812562488836,100.50749625089273" fill="none" stroke="black" stroke-width="5" /></g><g transform="translate(1040,0)"><circle cx="105" cy="105" fill="none" r="60" stroke="black" stroke-width="2" /></g><g transform="translate(1040,0)"><path d="M164.70024991668154,99.0099950011903 A60,60 0 1,1 45.29975008331845,99.00999500119032" fill="none" stroke="black" stroke-width="5" /></g><g transform="translate(1300,0)"><defs /></g><g transform="translate(1300,0)"><circle cx="105" cy="105" fill="none" r="30" stroke="black" stroke-width="2" /></g><g transform="translate(1300,0)"><path d="M134.85012495834079,102.00499750059515 A30,30 0 1,1 75.14987504165923,102.00499750059515" fill="none" stroke="black" stroke-width="5" /></g><g transform="translate(1300,0)"><circle cx="105" cy="105" fill="none" r="45" stroke="black" stroke-width="2" /></g><g transform="translate(1300,0)"><path d="M60.22481256248884,109.49250374910727 A45,45 0 1,1 149.77518743751116,109.49250374910724" fill="none" stroke="black" stroke-width="5" /></g><g transform="translate(1300,0)"><path d="M149.77518743751116,100.50749625089273 A45,45 0 1,1 60.224812562488836,100.50749625089273" fill="none" stroke="black" stroke-width="5" /></g><g transform="translate(1300,0)"><circle cx="105" cy="105" fill="none" r="60" stroke="black" stroke-width="2" /></g><g transform="translate(1300,0)"><path d="M45.29975008331846,110.9900049988097 A60,60 0 1,1 164.70024991668154,110.99000499880965" fill="none" stroke="black" stroke-width="5" /></g><g transform="translate(1560,0)"><defs /></g><g transform="translate(1560,0)"><circle cx="105" cy="105" fill="none" r="30" stroke="black" stroke-width="2" /></g><g transform="translate(1560,0)"><path d="M134.85012495834079,102.00499750059515 A30,30 0 1,1 75.14987504165923,102.00499750059515" fill="none" stroke="black" stroke-width="5" /></g><g transform="translate(1560,0)"><circle cx="105" cy="105" fill="none" r="45" stroke="black" stroke-width="2" /></g><g transform="translate(1560,0)"><path d="M60.22481256248884,109.49250374910727 A45,45 0 1,1 149.77518743751116,109.49250374910724" fill="none" stroke="black" stroke-width="5" /></g><g transform="translate(1560,0)"><path d="M149.77518743751116,100.50749625089273 A45,45 0 1,1 60.224812562488836,100.50749625089273" fill="none" stroke="black" stroke-width="5" /></g><g transform="translate(1560,0)"><circle cx="105" cy="105" fill="none" r="60" stroke="black" stroke-width="2" /></g><g transform="translate(1560,0)"><path d="M45.29975008331846,110.9900049988097 A60,60 0 1,1 164.70024991668154,110.99000499880965" fill="none" stroke="black" stroke-width="5" /></g><g transform="translate(0,260)"><defs /></g><g transform="translate(0,260)"><circle cx="120" cy="120" fill="none" r="30" stroke="black" stroke-width="2" /></g><g transform="translate(0,260)"><path d="M149.85012495834079,117.00499750059515 A30,30 0 1,1 90.14987504165923,117.00499750059515" fill="none" stroke="black" stroke-width="5" /></g><g transform="translate(0,260)"><circle cx="120" cy="120" fill="none" r="45" stroke="black" stroke-width="2" /></g><g transform="translate(0,260)"><path d="M75.22481256248884,124.49250374910727 A45,45 0 1,1 164.77518743751116,124.49250374910724" fill="none" stroke="black" stroke-width="5" /></g><g transform="translate(0,260)"><circle cx="120" cy="120" fill="none" r="60" stroke="black" stroke-width="2" /></g><g transform="translate(0,260)"><path d="M60.29975008331846,125.9900049988097 A60,60 0 1,1 179.70024991668154,125.99000499880965" fill="none" stroke="black" stroke-width="5" /></g><g transform="translate(0,260)"><circle cx="120" cy="120" fill="none" r="75" stroke="black" stroke-width="2" /></g><g transform="translate(0,260)"><path d="M45.37468760414808,127.48750624851213 A75,75 0 1,1 194.62531239585195,127.48750624851206" fill="none" stroke="black" stroke-width="5" /></g><g transform="translate(260,260)"><defs /></g><g transform="translate(260,260)"><circle cx="135" cy="135" fill="none" r="30" stroke="black" stroke-width="2" /></g><g transform="translate(260,260)"><path d="M164.85012495834079,132.00499750059515 A30,30 0 1,1 105.14987504165923,132.00499750059515" fill="none" stroke="black" stroke-width="5" /></g><g transform="translate(260,260)"><circle cx="135" cy="135" fill="none" r="45" stroke="black" stroke-width="2" /></g><g transform="translate(260,260)"><path d="M179.77518743751116,130.50749625089273 A45,45 0 1,1 90.22481256248884,130.50749625089273" fill="none" stroke="black" stroke-width="5" /></g><g transform="translate(260,260)"><circle cx="135" cy="135" fill="none" r="90" stroke="black" stroke-width="2" /></g><g transform="translate(260,260)"><path d="M224.55037487502233,126.01499250178547 A90,90 0 0,1 126.01499250178546,224.55037487502233" fill="none" stroke="black" stroke-width="5" /></g><g transform="translate(260,260)"><path d="M45.449625124977686,143.98500749821454 A90,90 0 0,1 143.9850074982145,45.44962512497767" fill="none" stroke="black" stroke-width="5" /></g><g transform="translate(520,260)"><defs /></g><g transform="translate(520,260)"><circle cx="135" cy="135" fill="none" r="30" stroke="black" stroke-width="2" /></g><g transform="translate(520,260)"><path d="M164.85012495834079,132.00499750059515 A30,30 0 1,1 105.14987504165923,132.00499750059515" fill="none" stroke="black" stroke-width="5" /></g><g transform="translate(520,260)"><circle cx="135" cy="135" fill="none" r="45" stroke="black" stroke-width="2" /></g><g transform="translate(520,260)"><path d="M90.22481256248884,139.49250374910727 A45,45 0 1,1 179.77518743751116,139.49250374910724" fill="none" stroke="black" stroke-width="5" /></g><g transform="translate(520,260)"><circle cx="135" cy="135" fill="none" r="90" stroke="black" stroke-width="2" /></g><g transform="translate(520,260)"><path d="M224.55037487502233,126.01499250178547 A90,90 0 0,1 126.01499250178546,224.55037487502233" fill="none" stroke="black" stroke-width="5" /></g><g transform="translate(520,260)"><path d="M45.449625124977686,143.98500749821454 A90,90 0 0,1 143.9850074982145,45.44962512497767" fill="none" stroke="black" stroke-width="5" /></g><g transform="translate(780,260)"><defs /></g><g transform="translate(780,260)"><circle cx="135" cy="135" fill="none" r="30" stroke="black" stroke-width="2" /></g><g transform="translate(780,260)"><path d="M164.85012495834079,132.00499750059515 A30,30 0 1,1 105.14987504165923,132.00499750059515" fill="none" stroke="black" stroke-width="5" /></g><g transform="translate(780,260)"><circle cx="135" cy="135" fill="none" r="75" stroke="black" stroke-width="2" /></g><g transform="translate(780,260)"><path d="M209.62531239585195,127.51249375148788 A75,75 0 0,1 127.51249375148788,209.62531239585192" fill="none" stroke="black" stroke-width="5" /></g><g transform="translate(780,260)"><path d="M60.37468760414808,142.48750624851212 A75,75 0 0,1 142.48750624851206,60.374687604148065" fill="none" stroke="black" stroke-width="5" /></g><g transform="translate(780,260)"><circle cx="135" cy="135" fill="none" r="90" stroke="black" stroke-width="2" /></g><g transform="translate(780,260)"><path d="M224.55037487502233,126.01499250178547 A90,90 0 0,1 126.01499250178546,224.55037487502233" fill="none" stroke="black" stroke-width="5" /></g><g transform="translate(1040,260)"><defs /></g><g transform="translate(1040,260)"><circle cx="135" cy="135" fill="none" r="30" stroke="black" stroke-width="2" /></g><g transform="translate(1040,260)"><path d="M164.85012495834079,132.00499750059515 A30,30 0 1,1 105.14987504165923,132.00499750059515" fill="none" stroke="black" stroke-width="5" /></g><g transform="translate(1040,260)"><circle cx="135" cy="135" fill="none" r="75" stroke="black" stroke-width="2" /></g><g transform="translate(1040,260)"><path d="M209.62531239585195,127.51249375148788 A75,75 0 0,1 127.51249375148788,209.62531239585192" fill="none" stroke="black" stroke-width="5" /></g><g transform="translate(1040,260)"><path d="M60.37468760414808,142.48750624851212 A75,75 0 0,1 142.48750624851206,60.374687604148065" fill="none" stroke="black" stroke-width="5" /></g><g transform="translate(1040,260)"><circle cx="135" cy="135" fill="none" r="90" stroke="black" stroke-width="2" /></g><g transform="translate(1040,260)"><path d="M143.98500749821454,224.55037487502233 A90,90 0 0,1 45.44962512497767,126.01499250178547" fill="none" stroke="black" stroke-width="5" /></g><g transform="translate(1300,260)"><defs /></g><g transform="translate(1300,260)"><circle cx="135" cy="135" fill="none" r="30" stroke="black" stroke-width="2" /></g><g transform="translate(1300,260)"><path d="M164.85012495834079,132.00499750059515 A30,30 0 1,1 105.14987504165923,132.00499750059515" fill="none" stroke="black" stroke-width="5" /></g><g transform="translate(1300,260)"><circle cx="135" cy="135" fill="none" r="75" stroke="black" stroke-width="2" /></g><g transform="translate(1300,260)"><path d="M209.62531239585195,127.51249375148788 A75,75 0 0,1 127.51249375148788,209.62531239585192" fill="none" stroke="black" stroke-width="5" /></g><g transform="translate(1300,260)"><path d="M60.37468760414808,142.48750624851212 A75,75 0 0,1 142.48750624851206,60.374687604148065" fill="none" stroke="black" stroke-width="5" /></g><g transform="translate(1300,260)"><circle cx="135" cy="135" fill="none" r="90" stroke="black" stroke-width="2" /></g><g transform="translate(1300,260)"><path d="M45.449625124977686,143.98500749821454 A90,90 0 0,1 143.9850074982145,45.44962512497767" fill="none" stroke="black" stroke-width="5" /></g><g transform="translate(1560,260)"><defs /></g><g transform="translate(1560,260)"><circle cx="135" cy="135" fill="none" r="30" stroke="black" stroke-width="2" /></g><g transform="translate(1560,260)"><path d="M164.85012495834079,132.00499750059515 A30,30 0 1,1 105.14987504165923,132.00499750059515" fill="none" stroke="black" stroke-width="5" /></g><g transform="translate(1560,260)"><circle cx="135" cy="135" fill="none" r="75" stroke="black" stroke-width="2" /></g><g transform="translate(1560,260)"><path d="M209.62531239585195,127.51249375148788 A75,75 0 0,1 127.51249375148788,209.62531239585192" fill="none" stroke="black" stroke-width="5" /></g><g transform="translate(1560,260)"><path d="M60.37468760414808,142.48750624851212 A75,75 0 0,1 142.48750624851206,60.374687604148065" fill="none" stroke="black" stroke-width="5" /></g><g transform="translate(1560,260)"><circle cx="135" cy="135" fill="none" r="90" stroke="black" stroke-width="2" /></g><g transform="translate(1560,260)"><path d="M126.01499250178549,45.44962512497767 A90,90 0 0,1 224.55037487502233,143.9850074982145" fill="none" stroke="black" stroke-width="5" /></g></svg>