<?xml version="1.0" encoding="utf-8" ?>
<svg baseProfile="full" fill="none" height="310" version="1.1" width="310" xmlns="http://www.w3.org/2000/svg" xmlns:ev="http://www.w3.org/2001/xml-events" xmlns:xlink="http://www.w3.org/1999/xlink"><defs><marker id="arrow" markerHeight="10" markerWidth="10" orient="auto" refX="2" refY="3"><path d="M0,0 L6,3 L0,6 Z" fill="black" /></marker></defs><rect fill="lightcyan" height="40" stroke="black" stroke-width="1" width="40" x="15" y="255" /><rect fill="lightcyan" height="40" stroke="black" stroke-width="1" width="40" x="15" y="215" /><rect fill="lightcyan" height="40" stroke="black" stroke-width="1" width="40" x="15" y="175" /><rect fill="lightcyan" height="40" stroke="black" stroke-width="1" width="40" x="15" y="135" /><rect fill="lightcyan" height="40" stroke="black" stroke-width="1" width="40" x="15" y="95" /><rect fill="lightcyan" height="40" stroke="black" stroke-width="1" width="40" x="15" y="55" /><rect fill="lightcyan" height="40" stroke="black" stroke-width="1" width="40" x="15" y="15" /><rect fill="lightcyan" height="40" stroke="black" stroke-width="1" width="40" x="55" y="255" /><rect fill="lightcyan" height="40" stroke="black" stroke-width="1" width="40" x="55" y="215" /><rect fill="lightcyan" height="40" stroke="black" stroke-width="1" width="40" x="55" y="175" /><rect fill="lightcyan" height="40" stroke="black" stroke-width="1" width="40" x="55" y="135" /><rect fill="lightcyan" height="40" stroke="black" stroke-width="1" width="40" x="55" y="95" /><rect fill="lightcyan" height="40" stroke="black" stroke-width="1" width="40" x="55" y="55" /><rect fill="lightcyan" height="40" stroke="black" stroke-width="1" width="40" x="55" y="15" /><rect fill="lightcyan" height="40" stroke="black" stroke-width="1" width="40" x="95" y="255" /><rect fill="lightcyan" height="40" stroke="black" stroke-width="1" width="40" x="95" y="215" /><rect fill="lightcyan" height="40" stroke="black" stroke-width="1" width="40" x="95" y="175" /><rect fill="lightcyan" height="40" stroke="black" stroke-width="1" width="40" x="95" y="135" /><rect fill="lightcyan" height="40" stroke="black" stroke-width="1" width="40" x="95" y="95" /><rect fill="lightcyan" height="40" stroke="black" stroke-width="1" width="40" x="95" y="55" /><rect fill="lightcyan" height="40" stroke="black" stroke-width="1" width="40" x="95" y="15" /><rect fill="lightcyan" height="40" stroke="black" stroke-width="1" width="40" x="135" y="255" /><rect fill="lightcyan" height="40" stroke="black" stroke-width="1" width="40" x="135" y="215" /><rect fill="lightcyan" height="40" stroke="black" stroke-width="1" width="40" x="135" y="175" /><rect fill="lightcyan" height="40" stroke="black" stroke-width="1" width="40" x="135" y="135" /><rect fill="lightcyan" height="40" stroke="black" stroke-width="1" width="40" x="135" y="95" /><rect fill="lightcyan" height="40" stroke="black" stroke-width="1" width="40" x="135" y="55" /><rect fill="lightcyan" height="40" stroke="black" stroke-width="1" width="40" x="135" y="15" /><rect fill="lightcyan" height="40" stroke="black" stroke-width="1" width="40" x="175" y="255" /><rect fill="lightcyan" height="40" stroke="black" stroke-width="1" width="40" x="175" y="215" /><rect fill="lightcyan" height="40" stroke="black" stroke-width="1" width="40" x="175" y="175" /><rect fill="lightcyan" height="40" stroke="black" stroke-width="1" width="40" x="175" y="135" /><rect fill="lightcyan" height="40" stroke="black" stroke-width="1" width="40" x="175" y="95" /><rect fill="lightcyan" height="40" stroke="black" stroke-width="1" width="40" x="175" y="55" /><rect fill="lightcyan" height="40" stroke="black" stroke-width="1" width="40" x="175" y="15" /><rect fill="lightcyan" height="40" stroke="black" stroke-width="1" width="40" x="215" y="255" /><rect fill="lightcyan" height="40" stroke="black" stroke-width="1" width="40" x="215" y="215" /><rect fill="lightcyan" height="40" stroke="black" stroke-width="1" width="40" x="215" y="175" /><rect fill="lightcyan" height="40" stroke="black" stroke-width="1" width="40" x="215" y="135" /><rect fill="lightcyan" height="40" stroke="black" stroke-width="1" width="40" x="215" y="95" /><rect fill="lightcyan" height="40" stroke="black" stroke-width="1" width="40" x="215" y="55" /><rect fill="lightcyan" height="40" stroke="black" stroke-width="1" width="40" x="215" y="15" /><rect fill="lightcyan" height="40" stroke="black" stroke-width="1" width="40" x="255" y="255" /><rect fill="lightcyan" height="40" stroke="black" stroke-width="1" width="40" x="255" y="215" /><rect fill="lightcyan" height="40" stroke="black" stroke-width="1" width="40" x="255" y="175" /><rect fill="lightcyan" height="40" stroke="black" stroke-width="1" width="40" x="255" y="135" /><rect fill="lightcyan" height="40" stroke="black" stroke-width="1" width="40" x="255" y="95" /><rect fill="lightcyan" height="40" stroke="black" stroke-width="1" width="40" x="255" y="55" /><rect fill="lightcyan" height="40" stroke="black" stroke-width="1" width="40" x="255" y="15" /><rect fill="peachpuff" height="40" stroke="black" stroke-width="1" width="40" x="55" y="255" /><rect fill="peachpuff" height="40" stroke="black" stroke-width="1" width="40" x="95" y="255" /><rect fill="peachpuff" height="40" stroke="black" stroke-width="1" width="40" x="95" y="215" /><rect fill="peachpuff" height="40" stroke="black" stroke-width="1" width="40" x="135" y="255" /><rect fill="peachpuff" height="40" stroke="black" stroke-width="1" width="40" x="135" y="215" /><rect fill="peachpuff" height="40" stroke="black" stroke-width="1" width="40" x="175" y="255" /><rect fill="peachpuff" height="40" stroke="black" stroke-width="1" width="40" x="175" y="215" /><rect fill="peachpuff" height="40" stroke="black" stroke-width="1" width="40" x="175" y="175" /><rect fill="peachpuff" height="40" stroke="black" stroke-width="1" width="40" x="175" y="135" /><rect fill="peachpuff" height="40" stroke="black" stroke-width="1" width="40" x="215" y="255" /><rect fill="peachpuff" height="40" stroke="black" stroke-width="1" width="40" x="215" y="215" /><rect fill="peachpuff" height="40" stroke="black" stroke-width="1" width="40" x="215" y="175" /><rect fill="peachpuff" height="40" stroke="black" stroke-width="1" width="40" x="215" y="135" /><rect fill="peachpuff" height="40" stroke="black" stroke-width="1" width="40" x="215" y="95" /><rect fill="peachpuff" height="40" stroke="black" stroke-width="1" width="40" x="255" y="255" /><rect fill="peachpuff" height="40" stroke="black" stroke-width="1" width="40" x="255" y="215" /><rect fill="peachpuff" height="40" stroke="black" stroke-width="1" width="40" x="255" y="175" /><rect fill="peachpuff" height="40" stroke="black" stroke-width="1" width="40" x="255" y="135" /><rect fill="peachpuff" height="40" stroke="black" stroke-width="1" width="40" x="255" y="95" /><rect fill="peachpuff" height="40" stroke="black" stroke-width="1" width="40" x="255" y="55" /><rect fill="peachpuff" height="40" stroke="black" stroke-width="1" width="40" x="255" y="15" /><line marker-end="url(#arrow)" stroke="black" stroke-width="3" x1="15" x2="55" y1="295" y2="295" /><line marker-end="url(#arrow)" stroke="black" stroke-width="3" x1="55" x2="55" y1="295" y2="255" /><line marker-end="url(#arrow)" stroke="black" stroke-width="3" x1="55" x2="95" y1="255" y2="255" /><line marker-end="url(#arrow)" stroke="black" stroke-width="3" x1="95" x2="95" y1="255" y2="215" /><line marker-end="url(#arrow)" stroke="black" stroke-width="3" x1="95" x2="135" y1="215" y2="215" /><line marker-end="url(#arrow)" stroke="black" stroke-width="3" x1="135" x2="175" y1="215" y2="215" /><line marker-end="url(#arrow)" stroke="black" stroke-width="3" x1="175" x2="175" y1="215" y2="175" /><line marker-end="url(#arrow)" stroke="black" stroke-width="3" x1="175" x2="175" y1="175" y2="135" /><line marker-end="url(#arrow)" stroke="black" stroke-width="3" x1="175" x2="215" y1="135" y2="135" /><line marker-end="url(#arrow)" stroke="black" stroke-width="3" x1="215" x2="215" y1="135" y2="95" /><line marker-end="url(#arrow)" stroke="black" stroke-width="3" x1="215" x2="255" y1="95" y2="95" /><line marker-end="url(#arrow)" stroke="black" stroke-width="3" x1="255" x2="255" y1="95" y2="55" /><line marker-end="url(#arrow)" stroke="black" stroke-width="3" x1="255" x2="255" y1="55" y2="15" /><line marker-end="url(#arrow)" stroke="black" stroke-width="3" x1="255" x2="295" y1="15" y2="15" /><line stroke="black" stroke-dasharray="5,5" stroke-width="2" x1="15" x2="295" y1="295" y2="15" /></svg>