<?xml version="1.0" encoding="utf-8" ?>
<svg baseProfile="full" height="490" version="1.1" width="490" xmlns="http://www.w3.org/2000/svg" xmlns:ev="http://www.w3.org/2001/xml-events" xmlns:xlink="http://www.w3.org/1999/xlink"><defs /><circle cx="245" cy="245" fill="none" r="15" stroke="black" stroke-width="2" /><path d="M259.9250624791704,243.50249875029758 A15,15 0 1,1 230.07493752082962,243.50249875029758" fill="none" stroke="black" stroke-width="5" /><circle cx="245" cy="245" fill="none" r="25" stroke="black" stroke-width="2" /><path d="M269.87510413195065,242.5041645838293 A25,25 0 1,1 220.12489586804935,242.5041645838293" fill="none" stroke="black" stroke-width="5" /><circle cx="245" cy="245" fill="none" r="35" stroke="black" stroke-width="2" /><path d="M279.8251457847309,241.505830417361 A35,35 0 1,1 210.17485421526908,241.505830417361" fill="none" stroke="black" stroke-width="5" /><circle cx="245" cy="245" fill="none" r="45" stroke="black" stroke-width="2" /><path d="M289.77518743751114,240.50749625089273 A45,45 0 1,1 200.22481256248884,240.50749625089273" fill="none" stroke="black" stroke-width="5" /><circle cx="245" cy="245" fill="none" r="55" stroke="black" stroke-width="2" /><path d="M190.2747709097086,250.49083791557555 A55,55 0 1,1 299.7252290902914,250.49083791557553" fill="none" stroke="black" stroke-width="5" /><circle cx="245" cy="245" fill="none" r="75" stroke="black" stroke-width="2" /><path d="M319.62531239585195,237.51249375148788 A75,75 0 0,1 237.51249375148788,319.6253123958519" fill="none" stroke="black" stroke-width="5" /><path d="M170.37468760414808,252.48750624851212 A75,75 0 0,1 252.48750624851206,170.37468760414805" fill="none" stroke="black" stroke-width="5" /><circle cx="245" cy="245" fill="none" r="85" stroke="black" stroke-width="2" /><path d="M236.51415958501963,160.4246459513678 A85,85 0 0,1 329.5753540486322,253.48584041498034" fill="none" stroke="black" stroke-width="5" /><circle cx="245" cy="245" fill="none" r="95" stroke="black" stroke-width="2" /><path d="M150.47460429858756,254.48417458144868 A95,95 0 0,1 254.48417458144863,150.47460429858756" fill="none" stroke="black" stroke-width="5" /><circle cx="245" cy="245" fill="none" r="105" stroke="black" stroke-width="2" /><path d="M234.51749125208306,140.5245626458073 A105,105 0 0,1 349.4754373541927,255.48250874791688" fill="none" stroke="black" stroke-width="5" /><path d="M255.48250874791697,349.4754373541927 A105,105 0 0,1 140.5245626458073,234.51749125208306" fill="none" stroke="black" stroke-width="5" /><circle cx="245" cy="245" fill="none" r="115" stroke="black" stroke-width="2" /><path d="M256.4808429143853,359.425479006973 A115,115 0 0,1 130.57452099302702,233.51915708561478" fill="none" stroke="black" stroke-width="5" /><circle cx="245" cy="245" fill="none" r="125" stroke="black" stroke-width="2" /><path d="M257.47917708085356,369.3755206597532 A125,125 0 0,1 120.62447934024678,232.5208229191465" fill="none" stroke="black" stroke-width="5" /><circle cx="245" cy="245" fill="none" r="135" stroke="black" stroke-width="2" /><path d="M110.67443768746654,258.47751124732184 A135,135 0 0,1 258.47751124732173,110.67443768746651" fill="none" stroke="black" stroke-width="5" /><circle cx="245" cy="245" fill="none" r="145" stroke="black" stroke-width="2" /><path d="M230.52415458620993,100.72439603468627 A145,145 0 0,1 389.27560396531373,259.47584541379" fill="none" stroke="black" stroke-width="5" /><path d="M259.4758454137901,389.27560396531373 A145,145 0 0,1 100.72439603468627,230.52415458620993" fill="none" stroke="black" stroke-width="5" /><circle cx="245" cy="245" fill="none" r="165" stroke="black" stroke-width="2" /><path d="M409.1756872708743,228.52748625327337 A165,165 0 0,1 349.4419156016981,372.73756794869615" fill="none" stroke="black" stroke-width="5" /><path d="M261.4725137467267,409.1756872708743 A165,165 0 0,1 117.26243205130383,349.4419156016981" fill="none" stroke="black" stroke-width="5" /><path d="M80.82431272912575,261.4725137467267 A165,165 0 0,1 140.55808439830184,117.26243205130389" fill="none" stroke="black" stroke-width="5" /><path d="M228.52748625327337,80.82431272912575 A165,165 0 0,1 372.7375679486961,140.55808439830184" fill="none" stroke="black" stroke-width="5" /><circle cx="245" cy="245" fill="none" r="175" stroke="black" stroke-width="2" /><path d="M109.52076126653432,134.22827133153237 A175,175 0 0,1 262.4708479131948,70.87427107634548" fill="none" stroke="black" stroke-width="5" /><path d="M134.22827133153234,380.47923873346565 A175,175 0 0,1 70.87427107634548,227.52915208680508" fill="none" stroke="black" stroke-width="5" /><circle cx="245" cy="245" fill="none" r="185" stroke="black" stroke-width="2" /><path d="M60.92422942356524,263.46918207966326 A185,185 0 0,1 127.89845826476265,101.77909048176497" fill="none" stroke="black" stroke-width="5" /><circle cx="245" cy="245" fill="none" r="195" stroke="black" stroke-width="2" /><path d="M50.974187770784994,264.46751624613154 A195,195 0 0,1 121.56864519799306,94.0374196969955" fill="none" stroke="black" stroke-width="5" /><circle cx="245" cy="245" fill="none" r="205" stroke="black" stroke-width="2" /><path d="M86.29574891222595,115.23883213122363 A205,205 0 0,1 265.46585041259965,41.024146118004694" fill="none" stroke="black" stroke-width="5" /></svg>