<?xml version="1.0" encoding="utf-8" ?>
<svg baseProfile="full" height="410" version="1.1" width="1460" xmlns="http://www.w3.org/2000/svg" xmlns:ev="http://www.w3.org/2001/xml-events" xmlns:xlink="http://www.w3.org/1999/xlink"><defs /><line stroke="black" stroke-width="2" x1="190.0" x2="145.0" y1="100.0" y2="177.94228634059948" /><line stroke="black" stroke-width="2" x1="145.0" x2="55.00000000000002" y1="177.94228634059948" y2="177.94228634059948" /><line stroke="black" stroke-width="2" x1="55.00000000000002" x2="10.0" y1="177.94228634059948" y2="100.00000000000001" /><line stroke="black" stroke-width="2" x1="10.0" x2="54.99999999999996" y1="100.00000000000001" y2="22.057713659400534" /><line stroke="black" stroke-width="2" x1="54.99999999999996" x2="145.0" y1="22.057713659400534" y2="22.05771365940052" /><line stroke="black" stroke-width="2" x1="145.0" x2="190.0" y1="22.05771365940052" y2="100.0" /><line stroke="black" stroke-width="2" x1="10.0" x2="54.99999999999996" y1="100.00000000000001" y2="22.057713659400534" /><line stroke="black" stroke-width="2" x1="54.99999999999996" x2="145.0" y1="22.057713659400534" y2="22.05771365940052" /><line stroke="black" stroke-width="2" x1="145.0" x2="10.0" y1="22.05771365940052" y2="100.00000000000001" /><line stroke="black" stroke-width="2" x1="55.00000000000002" x2="10.0" y1="177.94228634059948" y2="100.00000000000001" /><line stroke="black" stroke-width="2" x1="10.0" x2="145.0" y1="100.00000000000001" y2="22.05771365940052" /><line stroke="black" stroke-width="2" x1="145.0" x2="55.00000000000002" y1="22.05771365940052" y2="177.94228634059948" /><line stroke="black" stroke-width="2" x1="145.0" x2="55.00000000000002" y1="177.94228634059948" y2="177.94228634059948" /><line stroke="black" stroke-width="2" x1="55.00000000000002" x2="145.0" y1="177.94228634059948" y2="22.05771365940052" /><line stroke="black" stroke-width="2" x1="145.0" x2="145.0" y1="22.05771365940052" y2="177.94228634059948" /><line stroke="black" stroke-width="2" x1="190.0" x2="145.0" y1="100.0" y2="177.94228634059948" /><line stroke="black" stroke-width="2" x1="145.0" x2="145.0" y1="177.94228634059948" y2="22.05771365940052" /><line stroke="black" stroke-width="2" x1="145.0" x2="190.0" y1="22.05771365940052" y2="100.0" /><line stroke="black" stroke-width="2" x1="400.0" x2="355.0" y1="100.0" y2="177.94228634059948" /><line stroke="black" stroke-width="2" x1="355.0" x2="265.0" y1="177.94228634059948" y2="177.94228634059948" /><line stroke="black" stroke-width="2" x1="265.0" x2="220.0" y1="177.94228634059948" y2="100.00000000000001" /><line stroke="black" stroke-width="2" x1="220.0" x2="264.99999999999994" y1="100.00000000000001" y2="22.057713659400534" /><line stroke="black" stroke-width="2" x1="264.99999999999994" x2="355.0" y1="22.057713659400534" y2="22.05771365940052" /><line stroke="black" stroke-width="2" x1="355.0" x2="400.0" y1="22.05771365940052" y2="100.0" /><line stroke="black" stroke-width="2" x1="265.0" x2="220.0" y1="177.94228634059948" y2="100.00000000000001" /><line stroke="black" stroke-width="2" x1="220.0" x2="264.99999999999994" y1="100.00000000000001" y2="22.057713659400534" /><line stroke="black" stroke-width="2" x1="264.99999999999994" x2="265.0" y1="22.057713659400534" y2="177.94228634059948" /><line stroke="black" stroke-width="2" x1="265.0" x2="264.99999999999994" y1="177.94228634059948" y2="22.057713659400534" /><line stroke="black" stroke-width="2" x1="264.99999999999994" x2="355.0" y1="22.057713659400534" y2="22.05771365940052" /><line stroke="black" stroke-width="2" x1="355.0" x2="265.0" y1="22.05771365940052" y2="177.94228634059948" /><line stroke="black" stroke-width="2" x1="355.0" x2="265.0" y1="177.94228634059948" y2="177.94228634059948" /><line stroke="black" stroke-width="2" x1="265.0" x2="355.0" y1="177.94228634059948" y2="22.05771365940052" /><line stroke="black" stroke-width="2" x1="355.0" x2="355.0" y1="22.05771365940052" y2="177.94228634059948" /><line stroke="black" stroke-width="2" x1="400.0" x2="355.0" y1="100.0" y2="177.94228634059948" /><line stroke="black" stroke-width="2" x1="355.0" x2="355.0" y1="177.94228634059948" y2="22.05771365940052" /><line stroke="black" stroke-width="2" x1="355.0" x2="400.0" y1="22.05771365940052" y2="100.0" /><line stroke="black" stroke-width="2" x1="610.0" x2="565.0" y1="100.0" y2="177.94228634059948" /><line stroke="black" stroke-width="2" x1="565.0" x2="475.0" y1="177.94228634059948" y2="177.94228634059948" /><line stroke="black" stroke-width="2" x1="475.0" x2="430.0" y1="177.94228634059948" y2="100.00000000000001" /><line stroke="black" stroke-width="2" x1="430.0" x2="474.99999999999994" y1="100.00000000000001" y2="22.057713659400534" /><line stroke="black" stroke-width="2" x1="474.99999999999994" x2="565.0" y1="22.057713659400534" y2="22.05771365940052" /><line stroke="black" stroke-width="2" x1="565.0" x2="610.0" y1="22.05771365940052" y2="100.0" /><line stroke="black" stroke-width="2" x1="565.0" x2="475.0" y1="177.94228634059948" y2="177.94228634059948" /><line stroke="black" stroke-width="2" x1="475.0" x2="430.0" y1="177.94228634059948" y2="100.00000000000001" /><line stroke="black" stroke-width="2" x1="430.0" x2="565.0" y1="100.00000000000001" y2="177.94228634059948" /><line stroke="black" stroke-width="2" x1="430.0" x2="474.99999999999994" y1="100.00000000000001" y2="22.057713659400534" /><line stroke="black" stroke-width="2" x1="474.99999999999994" x2="565.0" y1="22.057713659400534" y2="22.05771365940052" /><line stroke="black" stroke-width="2" x1="565.0" x2="430.0" y1="22.05771365940052" y2="100.00000000000001" /><line stroke="black" stroke-width="2" x1="565.0" x2="430.0" y1="177.94228634059948" y2="100.00000000000001" /><line stroke="black" stroke-width="2" x1="430.0" x2="565.0" y1="100.00000000000001" y2="22.05771365940052" /><line stroke="black" stroke-width="2" x1="565.0" x2="565.0" y1="22.05771365940052" y2="177.94228634059948" /><line stroke="black" stroke-width="2" x1="610.0" x2="565.0" y1="100.0" y2="177.94228634059948" /><line stroke="black" stroke-width="2" x1="565.0" x2="565.0" y1="177.94228634059948" y2="22.05771365940052" /><line stroke="black" stroke-width="2" x1="565.0" x2="610.0" y1="22.05771365940052" y2="100.0" /><line stroke="black" stroke-width="2" x1="820.0" x2="775.0" y1="100.0" y2="177.94228634059948" /><line stroke="black" stroke-width="2" x1="775.0" x2="685.0" y1="177.94228634059948" y2="177.94228634059948" /><line stroke="black" stroke-width="2" x1="685.0" x2="640.0" y1="177.94228634059948" y2="100.00000000000001" /><line stroke="black" stroke-width="2" x1="640.0" x2="685.0" y1="100.00000000000001" y2="22.057713659400534" /><line stroke="black" stroke-width="2" x1="685.0" x2="775.0" y1="22.057713659400534" y2="22.05771365940052" /><line stroke="black" stroke-width="2" x1="775.0" x2="820.0" y1="22.05771365940052" y2="100.0" /><line stroke="black" stroke-width="2" x1="685.0" x2="640.0" y1="177.94228634059948" y2="100.00000000000001" /><line stroke="black" stroke-width="2" x1="640.0" x2="685.0" y1="100.00000000000001" y2="22.057713659400534" /><line stroke="black" stroke-width="2" x1="685.0" x2="685.0" y1="22.057713659400534" y2="177.94228634059948" /><line stroke="black" stroke-width="2" x1="775.0" x2="685.0" y1="177.94228634059948" y2="177.94228634059948" /><line stroke="black" stroke-width="2" x1="685.0" x2="685.0" y1="177.94228634059948" y2="22.057713659400534" /><line stroke="black" stroke-width="2" x1="685.0" x2="775.0" y1="22.057713659400534" y2="177.94228634059948" /><line stroke="black" stroke-width="2" x1="775.0" x2="685.0" y1="177.94228634059948" y2="22.057713659400534" /><line stroke="black" stroke-width="2" x1="685.0" x2="775.0" y1="22.057713659400534" y2="22.05771365940052" /><line stroke="black" stroke-width="2" x1="775.0" x2="775.0" y1="22.05771365940052" y2="177.94228634059948" /><line stroke="black" stroke-width="2" x1="820.0" x2="775.0" y1="100.0" y2="177.94228634059948" /><line stroke="black" stroke-width="2" x1="775.0" x2="775.0" y1="177.94228634059948" y2="22.05771365940052" /><line stroke="black" stroke-width="2" x1="775.0" x2="820.0" y1="22.05771365940052" y2="100.0" /><line stroke="black" stroke-width="2" x1="1030.0" x2="985.0" y1="100.0" y2="177.94228634059948" /><line stroke="black" stroke-width="2" x1="985.0" x2="895.0" y1="177.94228634059948" y2="177.94228634059948" /><line stroke="black" stroke-width="2" x1="895.0" x2="850.0" y1="177.94228634059948" y2="100.00000000000001" /><line stroke="black" stroke-width="2" x1="850.0" x2="895.0" y1="100.00000000000001" y2="22.057713659400534" /><line stroke="black" stroke-width="2" x1="895.0" x2="985.0" y1="22.057713659400534" y2="22.05771365940052" /><line stroke="black" stroke-width="2" x1="985.0" x2="1030.0" y1="22.05771365940052" y2="100.0" /><line stroke="black" stroke-width="2" x1="985.0" x2="895.0" y1="177.94228634059948" y2="177.94228634059948" /><line stroke="black" stroke-width="2" x1="895.0" x2="850.0" y1="177.94228634059948" y2="100.00000000000001" /><line stroke="black" stroke-width="2" x1="850.0" x2="985.0" y1="100.00000000000001" y2="177.94228634059948" /><line stroke="black" stroke-width="2" x1="985.0" x2="850.0" y1="177.94228634059948" y2="100.00000000000001" /><line stroke="black" stroke-width="2" x1="850.0" x2="895.0" y1="100.00000000000001" y2="22.057713659400534" /><line stroke="black" stroke-width="2" x1="895.0" x2="985.0" y1="22.057713659400534" y2="177.94228634059948" /><line stroke="black" stroke-width="2" x1="985.0" x2="895.0" y1="177.94228634059948" y2="22.057713659400534" /><line stroke="black" stroke-width="2" x1="895.0" x2="985.0" y1="22.057713659400534" y2="22.05771365940052" /><line stroke="black" stroke-width="2" x1="985.0" x2="985.0" y1="22.05771365940052" y2="177.94228634059948" /><line stroke="black" stroke-width="2" x1="1030.0" x2="985.0" y1="100.0" y2="177.94228634059948" /><line stroke="black" stroke-width="2" x1="985.0" x2="985.0" y1="177.94228634059948" y2="22.05771365940052" /><line stroke="black" stroke-width="2" x1="985.0" x2="1030.0" y1="22.05771365940052" y2="100.0" /><line stroke="black" stroke-width="2" x1="1240.0" x2="1195.0" y1="100.0" y2="177.94228634059948" /><line stroke="black" stroke-width="2" x1="1195.0" x2="1105.0" y1="177.94228634059948" y2="177.94228634059948" /><line stroke="black" stroke-width="2" x1="1105.0" x2="1060.0" y1="177.94228634059948" y2="100.00000000000001" /><line stroke="black" stroke-width="2" x1="1060.0" x2="1105.0" y1="100.00000000000001" y2="22.057713659400534" /><line stroke="black" stroke-width="2" x1="1105.0" x2="1195.0" y1="22.057713659400534" y2="22.05771365940052" /><line stroke="black" stroke-width="2" x1="1195.0" x2="1240.0" y1="22.05771365940052" y2="100.0" /><line stroke="black" stroke-width="2" x1="1240.0" x2="1195.0" y1="100.0" y2="177.94228634059948" /><line stroke="black" stroke-width="2" x1="1195.0" x2="1105.0" y1="177.94228634059948" y2="177.94228634059948" /><line stroke="black" stroke-width="2" x1="1105.0" x2="1240.0" y1="177.94228634059948" y2="100.0" /><line stroke="black" stroke-width="2" x1="1060.0" x2="1105.0" y1="100.00000000000001" y2="22.057713659400534" /><line stroke="black" stroke-width="2" x1="1105.0" x2="1195.0" y1="22.057713659400534" y2="22.05771365940052" /><line stroke="black" stroke-width="2" x1="1195.0" x2="1060.0" y1="22.05771365940052" y2="100.00000000000001" /><line stroke="black" stroke-width="2" x1="1105.0" x2="1060.0" y1="177.94228634059948" y2="100.00000000000001" /><line stroke="black" stroke-width="2" x1="1060.0" x2="1195.0" y1="100.00000000000001" y2="22.05771365940052" /><line stroke="black" stroke-width="2" x1="1195.0" x2="1105.0" y1="22.05771365940052" y2="177.94228634059948" /><line stroke="black" stroke-width="2" x1="1240.0" x2="1105.0" y1="100.0" y2="177.94228634059948" /><line stroke="black" stroke-width="2" x1="1105.0" x2="1195.0" y1="177.94228634059948" y2="22.05771365940052" /><line stroke="black" stroke-width="2" x1="1195.0" x2="1240.0" y1="22.05771365940052" y2="100.0" /><line stroke="black" stroke-width="2" x1="1450.0" x2="1405.0" y1="100.0" y2="177.94228634059948" /><line stroke="black" stroke-width="2" x1="1405.0" x2="1315.0" y1="177.94228634059948" y2="177.94228634059948" /><line stroke="black" stroke-width="2" x1="1315.0" x2="1270.0" y1="177.94228634059948" y2="100.00000000000001" /><line stroke="black" stroke-width="2" x1="1270.0" x2="1315.0" y1="100.00000000000001" y2="22.057713659400534" /><line stroke="black" stroke-width="2" x1="1315.0" x2="1405.0" y1="22.057713659400534" y2="22.05771365940052" /><line stroke="black" stroke-width="2" x1="1405.0" x2="1450.0" y1="22.05771365940052" y2="100.0" /><line stroke="black" stroke-width="2" x1="1450.0" x2="1405.0" y1="100.0" y2="177.94228634059948" /><line stroke="black" stroke-width="2" x1="1405.0" x2="1315.0" y1="177.94228634059948" y2="177.94228634059948" /><line stroke="black" stroke-width="2" x1="1315.0" x2="1450.0" y1="177.94228634059948" y2="100.0" /><line stroke="black" stroke-width="2" x1="1315.0" x2="1270.0" y1="177.94228634059948" y2="100.00000000000001" /><line stroke="black" stroke-width="2" x1="1270.0" x2="1315.0" y1="100.00000000000001" y2="22.057713659400534" /><line stroke="black" stroke-width="2" x1="1315.0" x2="1315.0" y1="22.057713659400534" y2="177.94228634059948" /><line stroke="black" stroke-width="2" x1="1315.0" x2="1315.0" y1="177.94228634059948" y2="22.057713659400534" /><line stroke="black" stroke-width="2" x1="1315.0" x2="1405.0" y1="22.057713659400534" y2="22.05771365940052" /><line stroke="black" stroke-width="2" x1="1405.0" x2="1315.0" y1="22.05771365940052" y2="177.94228634059948" /><line stroke="black" stroke-width="2" x1="1450.0" x2="1315.0" y1="100.0" y2="177.94228634059948" /><line stroke="black" stroke-width="2" x1="1315.0" x2="1405.0" y1="177.94228634059948" y2="22.05771365940052" /><line stroke="black" stroke-width="2" x1="1405.0" x2="1450.0" y1="22.05771365940052" y2="100.0" /><line stroke="black" stroke-width="2" x1="190.0" x2="145.0" y1="310.0" y2="387.9422863405995" /><line stroke="black" stroke-width="2" x1="145.0" x2="55.00000000000002" y1="387.9422863405995" y2="387.9422863405995" /><line stroke="black" stroke-width="2" x1="55.00000000000002" x2="10.0" y1="387.9422863405995" y2="310.0" /><line stroke="black" stroke-width="2" x1="10.0" x2="54.99999999999996" y1="310.0" y2="232.05771365940052" /><line stroke="black" stroke-width="2" x1="54.99999999999996" x2="145.0" y1="232.05771365940052" y2="232.05771365940052" /><line stroke="black" stroke-width="2" x1="145.0" x2="190.0" y1="232.05771365940052" y2="310.0" /><line stroke="black" stroke-width="2" x1="145.0" x2="55.00000000000002" y1="387.9422863405995" y2="387.9422863405995" /><line stroke="black" stroke-width="2" x1="55.00000000000002" x2="10.0" y1="387.9422863405995" y2="310.0" /><line stroke="black" stroke-width="2" x1="10.0" x2="145.0" y1="310.0" y2="387.9422863405995" /><line stroke="black" stroke-width="2" x1="190.0" x2="145.0" y1="310.0" y2="387.9422863405995" /><line stroke="black" stroke-width="2" x1="145.0" x2="10.0" y1="387.9422863405995" y2="310.0" /><line stroke="black" stroke-width="2" x1="10.0" x2="190.0" y1="310.0" y2="310.0" /><line stroke="black" stroke-width="2" x1="10.0" x2="54.99999999999996" y1="310.0" y2="232.05771365940052" /><line stroke="black" stroke-width="2" x1="54.99999999999996" x2="145.0" y1="232.05771365940052" y2="232.05771365940052" /><line stroke="black" stroke-width="2" x1="145.0" x2="10.0" y1="232.05771365940052" y2="310.0" /><line stroke="black" stroke-width="2" x1="190.0" x2="10.0" y1="310.0" y2="310.0" /><line stroke="black" stroke-width="2" x1="10.0" x2="145.0" y1="310.0" y2="232.05771365940052" /><line stroke="black" stroke-width="2" x1="145.0" x2="190.0" y1="232.05771365940052" y2="310.0" /><line stroke="black" stroke-width="2" x1="400.0" x2="355.0" y1="310.0" y2="387.9422863405995" /><line stroke="black" stroke-width="2" x1="355.0" x2="265.0" y1="387.9422863405995" y2="387.9422863405995" /><line stroke="black" stroke-width="2" x1="265.0" x2="220.0" y1="387.9422863405995" y2="310.0" /><line stroke="black" stroke-width="2" x1="220.0" x2="264.99999999999994" y1="310.0" y2="232.05771365940052" /><line stroke="black" stroke-width="2" x1="264.99999999999994" x2="355.0" y1="232.05771365940052" y2="232.05771365940052" /><line stroke="black" stroke-width="2" x1="355.0" x2="400.0" y1="232.05771365940052" y2="310.0" /><line stroke="black" stroke-width="2" x1="400.0" x2="355.0" y1="310.0" y2="387.9422863405995" /><line stroke="black" stroke-width="2" x1="355.0" x2="265.0" y1="387.9422863405995" y2="387.9422863405995" /><line stroke="black" stroke-width="2" x1="265.0" x2="400.0" y1="387.9422863405995" y2="310.0" /><line stroke="black" stroke-width="2" x1="400.0" x2="265.0" y1="310.0" y2="387.9422863405995" /><line stroke="black" stroke-width="2" x1="265.0" x2="220.0" y1="387.9422863405995" y2="310.0" /><line stroke="black" stroke-width="2" x1="220.0" x2="400.0" y1="310.0" y2="310.0" /><line stroke="black" stroke-width="2" x1="220.0" x2="264.99999999999994" y1="310.0" y2="232.05771365940052" /><line stroke="black" stroke-width="2" x1="264.99999999999994" x2="355.0" y1="232.05771365940052" y2="232.05771365940052" /><line stroke="black" stroke-width="2" x1="355.0" x2="220.0" y1="232.05771365940052" y2="310.0" /><line stroke="black" stroke-width="2" x1="400.0" x2="220.0" y1="310.0" y2="310.0" /><line stroke="black" stroke-width="2" x1="220.0" x2="355.0" y1="310.0" y2="232.05771365940052" /><line stroke="black" stroke-width="2" x1="355.0" x2="400.0" y1="232.05771365940052" y2="310.0" /><line stroke="black" stroke-width="2" x1="610.0" x2="565.0" y1="310.0" y2="387.9422863405995" /><line stroke="black" stroke-width="2" x1="565.0" x2="475.0" y1="387.9422863405995" y2="387.9422863405995" /><line stroke="black" stroke-width="2" x1="475.0" x2="430.0" y1="387.9422863405995" y2="310.0" /><line stroke="black" stroke-width="2" x1="430.0" x2="474.99999999999994" y1="310.0" y2="232.05771365940052" /><line stroke="black" stroke-width="2" x1="474.99999999999994" x2="565.0" y1="232.05771365940052" y2="232.05771365940052" /><line stroke="black" stroke-width="2" x1="565.0" x2="610.0" y1="232.05771365940052" y2="310.0" /><line stroke="black" stroke-width="2" x1="475.0" x2="430.0" y1="387.9422863405995" y2="310.0" /><line stroke="black" stroke-width="2" x1="430.0" x2="474.99999999999994" y1="310.0" y2="232.05771365940052" /><line stroke="black" stroke-width="2" x1="474.99999999999994" x2="475.0" y1="232.05771365940052" y2="387.9422863405995" /><line stroke="black" stroke-width="2" x1="565.0" x2="475.0" y1="387.9422863405995" y2="387.9422863405995" /><line stroke="black" stroke-width="2" x1="475.0" x2="474.99999999999994" y1="387.9422863405995" y2="232.05771365940052" /><line stroke="black" stroke-width="2" x1="474.99999999999994" x2="565.0" y1="232.05771365940052" y2="387.9422863405995" /><line stroke="black" stroke-width="2" x1="610.0" x2="565.0" y1="310.0" y2="387.9422863405995" /><line stroke="black" stroke-width="2" x1="565.0" x2="474.99999999999994" y1="387.9422863405995" y2="232.05771365940052" /><line stroke="black" stroke-width="2" x1="474.99999999999994" x2="610.0" y1="232.05771365940052" y2="310.0" /><line stroke="black" stroke-width="2" x1="610.0" x2="474.99999999999994" y1="310.0" y2="232.05771365940052" /><line stroke="black" stroke-width="2" x1="474.99999999999994" x2="565.0" y1="232.05771365940052" y2="232.05771365940052" /><line stroke="black" stroke-width="2" x1="565.0" x2="610.0" y1="232.05771365940052" y2="310.0" /><line stroke="black" stroke-width="2" x1="820.0" x2="775.0" y1="310.0" y2="387.9422863405995" /><line stroke="black" stroke-width="2" x1="775.0" x2="685.0" y1="387.9422863405995" y2="387.9422863405995" /><line stroke="black" stroke-width="2" x1="685.0" x2="640.0" y1="387.9422863405995" y2="310.0" /><line stroke="black" stroke-width="2" x1="640.0" x2="685.0" y1="310.0" y2="232.05771365940052" /><line stroke="black" stroke-width="2" x1="685.0" x2="775.0" y1="232.05771365940052" y2="232.05771365940052" /><line stroke="black" stroke-width="2" x1="775.0" x2="820.0" y1="232.05771365940052" y2="310.0" /><line stroke="black" stroke-width="2" x1="775.0" x2="685.0" y1="387.9422863405995" y2="387.9422863405995" /><line stroke="black" stroke-width="2" x1="685.0" x2="640.0" y1="387.9422863405995" y2="310.0" /><line stroke="black" stroke-width="2" x1="640.0" x2="775.0" y1="310.0" y2="387.9422863405995" /><line stroke="black" stroke-width="2" x1="775.0" x2="640.0" y1="387.9422863405995" y2="310.0" /><line stroke="black" stroke-width="2" x1="640.0" x2="685.0" y1="310.0" y2="232.05771365940052" /><line stroke="black" stroke-width="2" x1="685.0" x2="775.0" y1="232.05771365940052" y2="387.9422863405995" /><line stroke="black" stroke-width="2" x1="820.0" x2="775.0" y1="310.0" y2="387.9422863405995" /><line stroke="black" stroke-width="2" x1="775.0" x2="685.0" y1="387.9422863405995" y2="232.05771365940052" /><line stroke="black" stroke-width="2" x1="685.0" x2="820.0" y1="232.05771365940052" y2="310.0" /><line stroke="black" stroke-width="2" x1="820.0" x2="685.0" y1="310.0" y2="232.05771365940052" /><line stroke="black" stroke-width="2" x1="685.0" x2="775.0" y1="232.05771365940052" y2="232.05771365940052" /><line stroke="black" stroke-width="2" x1="775.0" x2="820.0" y1="232.05771365940052" y2="310.0" /><line stroke="black" stroke-width="2" x1="1030.0" x2="985.0" y1="310.0" y2="387.9422863405995" /><line stroke="black" stroke-width="2" x1="985.0" x2="895.0" y1="387.9422863405995" y2="387.9422863405995" /><line stroke="black" stroke-width="2" x1="895.0" x2="850.0" y1="387.9422863405995" y2="310.0" /><line stroke="black" stroke-width="2" x1="850.0" x2="895.0" y1="310.0" y2="232.05771365940052" /><line stroke="black" stroke-width="2" x1="895.0" x2="985.0" y1="232.05771365940052" y2="232.05771365940052" /><line stroke="black" stroke-width="2" x1="985.0" x2="1030.0" y1="232.05771365940052" y2="310.0" /><line stroke="black" stroke-width="2" x1="1030.0" x2="985.0" y1="310.0" y2="387.9422863405995" /><line stroke="black" stroke-width="2" x1="985.0" x2="895.0" y1="387.9422863405995" y2="387.9422863405995" /><line stroke="black" stroke-width="2" x1="895.0" x2="1030.0" y1="387.9422863405995" y2="310.0" /><line stroke="black" stroke-width="2" x1="895.0" x2="850.0" y1="387.9422863405995" y2="310.0" /><line stroke="black" stroke-width="2" x1="850.0" x2="895.0" y1="310.0" y2="232.05771365940052" /><line stroke="black" stroke-width="2" x1="895.0" x2="895.0" y1="232.05771365940052" y2="387.9422863405995" /><line stroke="black" stroke-width="2" x1="1030.0" x2="895.0" y1="310.0" y2="387.9422863405995" /><line stroke="black" stroke-width="2" x1="895.0" x2="895.0" y1="387.9422863405995" y2="232.05771365940052" /><line stroke="black" stroke-width="2" x1="895.0" x2="1030.0" y1="232.05771365940052" y2="310.0" /><line stroke="black" stroke-width="2" x1="1030.0" x2="895.0" y1="310.0" y2="232.05771365940052" /><line stroke="black" stroke-width="2" x1="895.0" x2="985.0" y1="232.05771365940052" y2="232.05771365940052" /><line stroke="black" stroke-width="2" x1="985.0" x2="1030.0" y1="232.05771365940052" y2="310.0" /><line stroke="black" stroke-width="2" x1="1240.0" x2="1195.0" y1="310.0" y2="387.9422863405995" /><line stroke="black" stroke-width="2" x1="1195.0" x2="1105.0" y1="387.9422863405995" y2="387.9422863405995" /><line stroke="black" stroke-width="2" x1="1105.0" x2="1060.0" y1="387.9422863405995" y2="310.0" /><line stroke="black" stroke-width="2" x1="1060.0" x2="1105.0" y1="310.0" y2="232.05771365940052" /><line stroke="black" stroke-width="2" x1="1105.0" x2="1195.0" y1="232.05771365940052" y2="232.05771365940052" /><line stroke="black" stroke-width="2" x1="1195.0" x2="1240.0" y1="232.05771365940052" y2="310.0" /><line stroke="black" stroke-width="2" x1="1195.0" x2="1105.0" y1="387.9422863405995" y2="387.9422863405995" /><line stroke="black" stroke-width="2" x1="1105.0" x2="1060.0" y1="387.9422863405995" y2="310.0" /><line stroke="black" stroke-width="2" x1="1060.0" x2="1195.0" y1="310.0" y2="387.9422863405995" /><line stroke="black" stroke-width="2" x1="1240.0" x2="1195.0" y1="310.0" y2="387.9422863405995" /><line stroke="black" stroke-width="2" x1="1195.0" x2="1060.0" y1="387.9422863405995" y2="310.0" /><line stroke="black" stroke-width="2" x1="1060.0" x2="1240.0" y1="310.0" y2="310.0" /><line stroke="black" stroke-width="2" x1="1240.0" x2="1060.0" y1="310.0" y2="310.0" /><line stroke="black" stroke-width="2" x1="1060.0" x2="1105.0" y1="310.0" y2="232.05771365940052" /><line stroke="black" stroke-width="2" x1="1105.0" x2="1240.0" y1="232.05771365940052" y2="310.0" /><line stroke="black" stroke-width="2" x1="1240.0" x2="1105.0" y1="310.0" y2="232.05771365940052" /><line stroke="black" stroke-width="2" x1="1105.0" x2="1195.0" y1="232.05771365940052" y2="232.05771365940052" /><line stroke="black" stroke-width="2" x1="1195.0" x2="1240.0" y1="232.05771365940052" y2="310.0" /><line stroke="black" stroke-width="2" x1="1450.0" x2="1405.0" y1="310.0" y2="387.9422863405995" /><line stroke="black" stroke-width="2" x1="1405.0" x2="1315.0" y1="387.9422863405995" y2="387.9422863405995" /><line stroke="black" stroke-width="2" x1="1315.0" x2="1270.0" y1="387.9422863405995" y2="310.0" /><line stroke="black" stroke-width="2" x1="1270.0" x2="1315.0" y1="310.0" y2="232.05771365940052" /><line stroke="black" stroke-width="2" x1="1315.0" x2="1405.0" y1="232.05771365940052" y2="232.05771365940052" /><line stroke="black" stroke-width="2" x1="1405.0" x2="1450.0" y1="232.05771365940052" y2="310.0" /><line stroke="black" stroke-width="2" x1="1450.0" x2="1405.0" y1="310.0" y2="387.9422863405995" /><line stroke="black" stroke-width="2" x1="1405.0" x2="1315.0" y1="387.9422863405995" y2="387.9422863405995" /><line stroke="black" stroke-width="2" x1="1315.0" x2="1450.0" y1="387.9422863405995" y2="310.0" /><line stroke="black" stroke-width="2" x1="1450.0" x2="1315.0" y1="310.0" y2="387.9422863405995" /><line stroke="black" stroke-width="2" x1="1315.0" x2="1270.0" y1="387.9422863405995" y2="310.0" /><line stroke="black" stroke-width="2" x1="1270.0" x2="1450.0" y1="310.0" y2="310.0" /><line stroke="black" stroke-width="2" x1="1450.0" x2="1270.0" y1="310.0" y2="310.0" /><line stroke="black" stroke-width="2" x1="1270.0" x2="1315.0" y1="310.0" y2="232.05771365940052" /><line stroke="black" stroke-width="2" x1="1315.0" x2="1450.0" y1="232.05771365940052" y2="310.0" /><line stroke="black" stroke-width="2" x1="1450.0" x2="1315.0" y1="310.0" y2="232.05771365940052" /><line stroke="black" stroke-width="2" x1="1315.0" x2="1405.0" y1="232.05771365940052" y2="232.05771365940052" /><line stroke="black" stroke-width="2" x1="1405.0" x2="1450.0" y1="232.05771365940052" y2="310.0" /></svg>