<?xml version="1.0" encoding="utf-8" ?>
<svg baseProfile="full" height="168" version="1.1" width="370" xmlns="http://www.w3.org/2000/svg" xmlns:ev="http://www.w3.org/2001/xml-events" xmlns:xlink="http://www.w3.org/1999/xlink"><defs /><circle cx="20" cy="138" fill="black" r="3" /><text font-size="14px" text-anchor="middle" x="20" y="153">(</text><circle cx="50" cy="138" fill="black" r="3" /><text font-size="14px" text-anchor="middle" x="50" y="153">(</text><circle cx="80" cy="138" fill="black" r="3" /><text font-size="14px" text-anchor="middle" x="80" y="153">(</text><circle cx="110" cy="138" fill="black" r="3" /><text font-size="14px" text-anchor="middle" x="110" y="153">)</text><circle cx="140" cy="138" fill="black" r="3" /><text font-size="14px" text-anchor="middle" x="140" y="153">(</text><circle cx="170" cy="138" fill="black" r="3" /><text font-size="14px" text-anchor="middle" x="170" y="153">)</text><circle cx="200" cy="138" fill="black" r="3" /><text font-size="14px" text-anchor="middle" x="200" y="153">)</text><circle cx="230" cy="138" fill="black" r="3" /><text font-size="14px" text-anchor="middle" x="230" y="153">(</text><circle cx="260" cy="138" fill="black" r="3" /><text font-size="14px" text-anchor="middle" x="260" y="153">(</text><circle cx="290" cy="138" fill="black" r="3" /><text font-size="14px" text-anchor="middle" x="290" y="153">)</text><circle cx="320" cy="138" fill="black" r="3" /><text font-size="14px" text-anchor="middle" x="320" y="153">)</text><circle cx="350" cy="138" fill="black" r="3" /><text font-size="14px" text-anchor="middle" x="350" y="153">)</text><path d="M80,138 A15.0,9.0 0 0,1 110,138" fill="none" stroke="black" /><path d="M140,138 A15.0,9.0 0 0,1 170,138" fill="none" stroke="black" /><path d="M50,138 A75.0,45.0 0 0,1 200,138" fill="none" stroke="black" /><path d="M260,138 A15.0,9.0 0 0,1 290,138" fill="none" stroke="black" /><path d="M230,138 A45.0,27.0 0 0,1 320,138" fill="none" stroke="black" /><path d="M20,138 A165.0,99.0 0 0,1 350,138" fill="none" stroke="black" /></svg>