<?xml version="1.0" encoding="utf-8" ?>
<svg baseProfile="full" height="510" version="1.1" width="1460" xmlns="http://www.w3.org/2000/svg" xmlns:ev="http://www.w3.org/2001/xml-events" xmlns:xlink="http://www.w3.org/1999/xlink"><defs /><rect fill="white" height="510" width="1460" x="0" y="0" /><g transform="translate(0,0)"><defs /></g><g transform="translate(0,0)"><circle cx="125" cy="30" fill="black" r="5" stroke="black" /></g><g transform="translate(0,0)"><text font-size="14px" text-anchor="middle" x="125" y="34">•</text></g><g transform="translate(0,0)"><line stroke="black" x1="125" x2="25" y1="30" y2="80" /></g><g transform="translate(0,0)"><circle cx="25" cy="80" fill="black" r="5" stroke="black" /></g><g transform="translate(0,0)"><text font-size="14px" text-anchor="middle" x="25" y="84">•</text></g><g transform="translate(0,0)"><line stroke="black" x1="125" x2="75" y1="30" y2="80" /></g><g transform="translate(0,0)"><circle cx="75" cy="80" fill="black" r="5" stroke="black" /></g><g transform="translate(0,0)"><text font-size="14px" text-anchor="middle" x="75" y="84">•</text></g><g transform="translate(0,0)"><line stroke="black" x1="125" x2="125" y1="30" y2="80" /></g><g transform="translate(0,0)"><circle cx="125" cy="80" fill="black" r="5" stroke="black" /></g><g transform="translate(0,0)"><text font-size="14px" text-anchor="middle" x="125" y="84">•</text></g><g transform="translate(0,0)"><line stroke="black" x1="125" x2="175" y1="30" y2="80" /></g><g transform="translate(0,0)"><circle cx="175" cy="80" fill="black" r="5" stroke="black" /></g><g transform="translate(0,0)"><text font-size="14px" text-anchor="middle" x="175" y="84">•</text></g><g transform="translate(210,0)"><defs /></g><g transform="translate(210,0)"><circle cx="125" cy="30" fill="black" r="5" stroke="black" /></g><g transform="translate(210,0)"><text font-size="14px" text-anchor="middle" x="125" y="34">•</text></g><g transform="translate(210,0)"><line stroke="black" x1="125" x2="75" y1="30" y2="80" /></g><g transform="translate(210,0)"><circle cx="75" cy="80" fill="black" r="5" stroke="black" /></g><g transform="translate(210,0)"><text font-size="14px" text-anchor="middle" x="75" y="84">•</text></g><g transform="translate(210,0)"><line stroke="black" x1="125" x2="125" y1="30" y2="80" /></g><g transform="translate(210,0)"><circle cx="125" cy="80" fill="black" r="5" stroke="black" /></g><g transform="translate(210,0)"><text font-size="14px" text-anchor="middle" x="125" y="84">•</text></g><g transform="translate(210,0)"><line stroke="black" x1="125" x2="175" y1="30" y2="80" /></g><g transform="translate(210,0)"><circle cx="175" cy="80" fill="black" r="5" stroke="black" /></g><g transform="translate(210,0)"><text font-size="14px" text-anchor="middle" x="175" y="84">•</text></g><g transform="translate(210,0)"><line stroke="black" x1="175" x2="125" y1="80" y2="130" /></g><g transform="translate(210,0)"><circle cx="125" cy="130" fill="black" r="5" stroke="black" /></g><g transform="translate(210,0)"><text font-size="14px" text-anchor="middle" x="125" y="134">•</text></g><g transform="translate(420,0)"><defs /></g><g transform="translate(420,0)"><circle cx="125" cy="30" fill="black" r="5" stroke="black" /></g><g transform="translate(420,0)"><text font-size="14px" text-anchor="middle" x="125" y="34">•</text></g><g transform="translate(420,0)"><line stroke="black" x1="125" x2="75" y1="30" y2="80" /></g><g transform="translate(420,0)"><circle cx="75" cy="80" fill="black" r="5" stroke="black" /></g><g transform="translate(420,0)"><text font-size="14px" text-anchor="middle" x="75" y="84">•</text></g><g transform="translate(420,0)"><line stroke="black" x1="125" x2="125" y1="30" y2="80" /></g><g transform="translate(420,0)"><circle cx="125" cy="80" fill="black" r="5" stroke="black" /></g><g transform="translate(420,0)"><text font-size="14px" text-anchor="middle" x="125" y="84">•</text></g><g transform="translate(420,0)"><line stroke="black" x1="125" x2="125" y1="80" y2="130" /></g><g transform="translate(420,0)"><circle cx="125" cy="130" fill="black" r="5" stroke="black" /></g><g transform="translate(420,0)"><text font-size="14px" text-anchor="middle" x="125" y="134">•</text></g><g transform="translate(420,0)"><line stroke="black" x1="125" x2="175" y1="30" y2="80" /></g><g transform="translate(420,0)"><circle cx="175" cy="80" fill="black" r="5" stroke="black" /></g><g transform="translate(420,0)"><text font-size="14px" text-anchor="middle" x="175" y="84">•</text></g><g transform="translate(630,0)"><defs /></g><g transform="translate(630,0)"><circle cx="100" cy="30" fill="black" r="5" stroke="black" /></g><g transform="translate(630,0)"><text font-size="14px" text-anchor="middle" x="100" y="34">•</text></g><g transform="translate(630,0)"><line stroke="black" x1="100" x2="50" y1="30" y2="80" /></g><g transform="translate(630,0)"><circle cx="50" cy="80" fill="black" r="5" stroke="black" /></g><g transform="translate(630,0)"><text font-size="14px" text-anchor="middle" x="50" y="84">•</text></g><g transform="translate(630,0)"><line stroke="black" x1="100" x2="100" y1="30" y2="80" /></g><g transform="translate(630,0)"><circle cx="100" cy="80" fill="black" r="5" stroke="black" /></g><g transform="translate(630,0)"><text font-size="14px" text-anchor="middle" x="100" y="84">•</text></g><g transform="translate(630,0)"><line stroke="black" x1="100" x2="50" y1="80" y2="130" /></g><g transform="translate(630,0)"><circle cx="50" cy="130" fill="black" r="5" stroke="black" /></g><g transform="translate(630,0)"><text font-size="14px" text-anchor="middle" x="50" y="134">•</text></g><g transform="translate(630,0)"><line stroke="black" x1="100" x2="100" y1="80" y2="130" /></g><g transform="translate(630,0)"><circle cx="100" cy="130" fill="black" r="5" stroke="black" /></g><g transform="translate(630,0)"><text font-size="14px" text-anchor="middle" x="100" y="134">•</text></g><g transform="translate(840,0)"><defs /></g><g transform="translate(840,0)"><circle cx="100" cy="30" fill="black" r="5" stroke="black" /></g><g transform="translate(840,0)"><text font-size="14px" text-anchor="middle" x="100" y="34">•</text></g><g transform="translate(840,0)"><line stroke="black" x1="100" x2="50" y1="30" y2="80" /></g><g transform="translate(840,0)"><circle cx="50" cy="80" fill="black" r="5" stroke="black" /></g><g transform="translate(840,0)"><text font-size="14px" text-anchor="middle" x="50" y="84">•</text></g><g transform="translate(840,0)"><line stroke="black" x1="100" x2="100" y1="30" y2="80" /></g><g transform="translate(840,0)"><circle cx="100" cy="80" fill="black" r="5" stroke="black" /></g><g transform="translate(840,0)"><text font-size="14px" text-anchor="middle" x="100" y="84">•</text></g><g transform="translate(840,0)"><line stroke="black" x1="100" x2="100" y1="80" y2="130" /></g><g transform="translate(840,0)"><circle cx="100" cy="130" fill="black" r="5" stroke="black" /></g><g transform="translate(840,0)"><text font-size="14px" text-anchor="middle" x="100" y="134">•</text></g><g transform="translate(840,0)"><line stroke="black" x1="100" x2="100" y1="130" y2="180" /></g><g transform="translate(840,0)"><circle cx="100" cy="180" fill="black" r="5" stroke="black" /></g><g transform="translate(840,0)"><text font-size="14px" text-anchor="middle" x="100" y="184">•</text></g><g transform="translate(1050,0)"><defs /></g><g transform="translate(1050,0)"><circle cx="125" cy="30" fill="black" r="5" stroke="black" /></g><g transform="translate(1050,0)"><text font-size="14px" text-anchor="middle" x="125" y="34">•</text></g><g transform="translate(1050,0)"><line stroke="black" x1="125" x2="75" y1="30" y2="80" /></g><g transform="translate(1050,0)"><circle cx="75" cy="80" fill="black" r="5" stroke="black" /></g><g transform="translate(1050,0)"><text font-size="14px" text-anchor="middle" x="75" y="84">•</text></g><g transform="translate(1050,0)"><line stroke="black" x1="75" x2="125" y1="80" y2="130" /></g><g transform="translate(1050,0)"><circle cx="125" cy="130" fill="black" r="5" stroke="black" /></g><g transform="translate(1050,0)"><text font-size="14px" text-anchor="middle" x="125" y="134">•</text></g><g transform="translate(1050,0)"><line stroke="black" x1="125" x2="125" y1="30" y2="80" /></g><g transform="translate(1050,0)"><circle cx="125" cy="80" fill="black" r="5" stroke="black" /></g><g transform="translate(1050,0)"><text font-size="14px" text-anchor="middle" x="125" y="84">•</text></g><g transform="translate(1050,0)"><line stroke="black" x1="125" x2="175" y1="30" y2="80" /></g><g transform="translate(1050,0)"><circle cx="175" cy="80" fill="black" r="5" stroke="black" /></g><g transform="translate(1050,0)"><text font-size="14px" text-anchor="middle" x="175" y="84">•</text></g><g transform="translate(1260,0)"><defs /></g><g transform="translate(1260,0)"><circle cx="100" cy="30" fill="black" r="5" stroke="black" /></g><g transform="translate(1260,0)"><text font-size="14px" text-anchor="middle" x="100" y="34">•</text></g><g transform="translate(1260,0)"><line stroke="black" x1="100" x2="50" y1="30" y2="80" /></g><g transform="translate(1260,0)"><circle cx="50" cy="80" fill="black" r="5" stroke="black" /></g><g transform="translate(1260,0)"><text font-size="14px" text-anchor="middle" x="50" y="84">•</text></g><g transform="translate(1260,0)"><line stroke="black" x1="50" x2="50" y1="80" y2="130" /></g><g transform="translate(1260,0)"><circle cx="50" cy="130" fill="black" r="5" stroke="black" /></g><g transform="translate(1260,0)"><text font-size="14px" text-anchor="middle" x="50" y="134">•</text></g><g transform="translate(1260,0)"><line stroke="black" x1="100" x2="100" y1="30" y2="80" /></g><g transform="translate(1260,0)"><circle cx="100" cy="80" fill="black" r="5" stroke="black" /></g><g transform="translate(1260,0)"><text font-size="14px" text-anchor="middle" x="100" y="84">•</text></g><g transform="translate(1260,0)"><line stroke="black" x1="100" x2="100" y1="80" y2="130" /></g><g transform="translate(1260,0)"><circle cx="100" cy="130" fill="black" r="5" stroke="black" /></g><g transform="translate(1260,0)"><text font-size="14px" text-anchor="middle" x="100" y="134">•</text></g><g transform="translate(0,260)"><defs /></g><g transform="translate(0,260)"><circle cx="100" cy="30" fill="black" r="5" stroke="black" /></g><g transform="translate(0,260)"><text font-size="14px" text-anchor="middle" x="100" y="34">•</text></g><g transform="translate(0,260)"><line stroke="black" x1="100" x2="50" y1="30" y2="80" /></g><g transform="translate(0,260)"><circle cx="50" cy="80" fill="black" r="5" stroke="black" /></g><g transform="translate(0,260)"><text font-size="14px" text-anchor="middle" x="50" y="84">•</text></g><g transform="translate(0,260)"><line stroke="black" x1="50" x2="50" y1="80" y2="130" /></g><g transform="translate(0,260)"><circle cx="50" cy="130" fill="black" r="5" stroke="black" /></g><g transform="translate(0,260)"><text font-size="14px" text-anchor="middle" x="50" y="134">•</text></g><g transform="translate(0,260)"><line stroke="black" x1="50" x2="100" y1="80" y2="130" /></g><g transform="translate(0,260)"><circle cx="100" cy="130" fill="black" r="5" stroke="black" /></g><g transform="translate(0,260)"><text font-size="14px" text-anchor="middle" x="100" y="134">•</text></g><g transform="translate(0,260)"><line stroke="black" x1="100" x2="100" y1="30" y2="80" /></g><g transform="translate(0,260)"><circle cx="100" cy="80" fill="black" r="5" stroke="black" /></g><g transform="translate(0,260)"><text font-size="14px" text-anchor="middle" x="100" y="84">•</text></g><g transform="translate(210,260)"><defs /></g><g transform="translate(210,260)"><circle cx="100" cy="30" fill="black" r="5" stroke="black" /></g><g transform="translate(210,260)"><text font-size="14px" text-anchor="middle" x="100" y="34">•</text></g><g transform="translate(210,260)"><line stroke="black" x1="100" x2="50" y1="30" y2="80" /></g><g transform="translate(210,260)"><circle cx="50" cy="80" fill="black" r="5" stroke="black" /></g><g transform="translate(210,260)"><text font-size="14px" text-anchor="middle" x="50" y="84">•</text></g><g transform="translate(210,260)"><line stroke="black" x1="50" x2="100" y1="80" y2="130" /></g><g transform="translate(210,260)"><circle cx="100" cy="130" fill="black" r="5" stroke="black" /></g><g transform="translate(210,260)"><text font-size="14px" text-anchor="middle" x="100" y="134">•</text></g><g transform="translate(210,260)"><line stroke="black" x1="100" x2="100" y1="130" y2="180" /></g><g transform="translate(210,260)"><circle cx="100" cy="180" fill="black" r="5" stroke="black" /></g><g transform="translate(210,260)"><text font-size="14px" text-anchor="middle" x="100" y="184">•</text></g><g transform="translate(210,260)"><line stroke="black" x1="100" x2="100" y1="30" y2="80" /></g><g transform="translate(210,260)"><circle cx="100" cy="80" fill="black" r="5" stroke="black" /></g><g transform="translate(210,260)"><text font-size="14px" text-anchor="middle" x="100" y="84">•</text></g><g transform="translate(420,260)"><defs /></g><g transform="translate(420,260)"><circle cx="125" cy="30" fill="black" r="5" stroke="black" /></g><g transform="translate(420,260)"><text font-size="14px" text-anchor="middle" x="125" y="34">•</text></g><g transform="translate(420,260)"><line stroke="black" x1="125" x2="125" y1="30" y2="80" /></g><g transform="translate(420,260)"><circle cx="125" cy="80" fill="black" r="5" stroke="black" /></g><g transform="translate(420,260)"><text font-size="14px" text-anchor="middle" x="125" y="84">•</text></g><g transform="translate(420,260)"><line stroke="black" x1="125" x2="75" y1="80" y2="130" /></g><g transform="translate(420,260)"><circle cx="75" cy="130" fill="black" r="5" stroke="black" /></g><g transform="translate(420,260)"><text font-size="14px" text-anchor="middle" x="75" y="134">•</text></g><g transform="translate(420,260)"><line stroke="black" x1="125" x2="125" y1="80" y2="130" /></g><g transform="translate(420,260)"><circle cx="125" cy="130" fill="black" r="5" stroke="black" /></g><g transform="translate(420,260)"><text font-size="14px" text-anchor="middle" x="125" y="134">•</text></g><g transform="translate(420,260)"><line stroke="black" x1="125" x2="175" y1="80" y2="130" /></g><g transform="translate(420,260)"><circle cx="175" cy="130" fill="black" r="5" stroke="black" /></g><g transform="translate(420,260)"><text font-size="14px" text-anchor="middle" x="175" y="134">•</text></g><g transform="translate(630,260)"><defs /></g><g transform="translate(630,260)"><circle cx="100" cy="30" fill="black" r="5" stroke="black" /></g><g transform="translate(630,260)"><text font-size="14px" text-anchor="middle" x="100" y="34">•</text></g><g transform="translate(630,260)"><line stroke="black" x1="100" x2="100" y1="30" y2="80" /></g><g transform="translate(630,260)"><circle cx="100" cy="80" fill="black" r="5" stroke="black" /></g><g transform="translate(630,260)"><text font-size="14px" text-anchor="middle" x="100" y="84">•</text></g><g transform="translate(630,260)"><line stroke="black" x1="100" x2="50" y1="80" y2="130" /></g><g transform="translate(630,260)"><circle cx="50" cy="130" fill="black" r="5" stroke="black" /></g><g transform="translate(630,260)"><text font-size="14px" text-anchor="middle" x="50" y="134">•</text></g><g transform="translate(630,260)"><line stroke="black" x1="100" x2="100" y1="80" y2="130" /></g><g transform="translate(630,260)"><circle cx="100" cy="130" fill="black" r="5" stroke="black" /></g><g transform="translate(630,260)"><text font-size="14px" text-anchor="middle" x="100" y="134">•</text></g><g transform="translate(630,260)"><line stroke="black" x1="100" x2="100" y1="130" y2="180" /></g><g transform="translate(630,260)"><circle cx="100" cy="180" fill="black" r="5" stroke="black" /></g><g transform="translate(630,260)"><text font-size="14px" text-anchor="middle" x="100" y="184">•</text></g><g transform="translate(840,260)"><defs /></g><g transform="translate(840,260)"><circle cx="100" cy="30" fill="black" r="5" stroke="black" /></g><g transform="translate(840,260)"><text font-size="14px" text-anchor="middle" x="100" y="34">•</text></g><g transform="translate(840,260)"><line stroke="black" x1="100" x2="100" y1="30" y2="80" /></g><g transform="translate(840,260)"><circle cx="100" cy="80" fill="black" r="5" stroke="black" /></g><g transform="translate(840,260)"><text font-size="14px" text-anchor="middle" x="100" y="84">•</text></g><g transform="translate(840,260)"><line stroke="black" x1="100" x2="50" y1="80" y2="130" /></g><g transform="translate(840,260)"><circle cx="50" cy="130" fill="black" r="5" stroke="black" /></g><g transform="translate(840,260)"><text font-size="14px" text-anchor="middle" x="50" y="134">•</text></g><g transform="translate(840,260)"><line stroke="black" x1="50" x2="100" y1="130" y2="180" /></g><g transform="translate(840,260)"><circle cx="100" cy="180" fill="black" r="5" stroke="black" /></g><g transform="translate(840,260)"><text font-size="14px" text-anchor="middle" x="100" y="184">•</text></g><g transform="translate(840,260)"><line stroke="black" x1="100" x2="100" y1="80" y2="130" /></g><g transform="translate(840,260)"><circle cx="100" cy="130" fill="black" r="5" stroke="black" /></g><g transform="translate(840,260)"><text font-size="14px" text-anchor="middle" x="100" y="134">•</text></g><g transform="translate(1050,260)"><defs /></g><g transform="translate(1050,260)"><circle cx="100" cy="30" fill="black" r="5" stroke="black" /></g><g transform="translate(1050,260)"><text font-size="14px" text-anchor="middle" x="100" y="34">•</text></g><g transform="translate(1050,260)"><line stroke="black" x1="100" x2="100" y1="30" y2="80" /></g><g transform="translate(1050,260)"><circle cx="100" cy="80" fill="black" r="5" stroke="black" /></g><g transform="translate(1050,260)"><text font-size="14px" text-anchor="middle" x="100" y="84">•</text></g><g transform="translate(1050,260)"><line stroke="black" x1="100" x2="100" y1="80" y2="130" /></g><g transform="translate(1050,260)"><circle cx="100" cy="130" fill="black" r="5" stroke="black" /></g><g transform="translate(1050,260)"><text font-size="14px" text-anchor="middle" x="100" y="134">•</text></g><g transform="translate(1050,260)"><line stroke="black" x1="100" x2="50" y1="130" y2="180" /></g><g transform="translate(1050,260)"><circle cx="50" cy="180" fill="black" r="5" stroke="black" /></g><g transform="translate(1050,260)"><text font-size="14px" text-anchor="middle" x="50" y="184">•</text></g><g transform="translate(1050,260)"><line stroke="black" x1="100" x2="100" y1="130" y2="180" /></g><g transform="translate(1050,260)"><circle cx="100" cy="180" fill="black" r="5" stroke="black" /></g><g transform="translate(1050,260)"><text font-size="14px" text-anchor="middle" x="100" y="184">•</text></g><g transform="translate(1260,260)"><defs /></g><g transform="translate(1260,260)"><circle cx="100" cy="30" fill="black" r="5" stroke="black" /></g><g transform="translate(1260,260)"><text font-size="14px" text-anchor="middle" x="100" y="34">•</text></g><g transform="translate(1260,260)"><line stroke="black" x1="100" x2="100" y1="30" y2="80" /></g><g transform="translate(1260,260)"><circle cx="100" cy="80" fill="black" r="5" stroke="black" /></g><g transform="translate(1260,260)"><text font-size="14px" text-anchor="middle" x="100" y="84">•</text></g><g transform="translate(1260,260)"><line stroke="black" x1="100" x2="100" y1="80" y2="130" /></g><g transform="translate(1260,260)"><circle cx="100" cy="130" fill="black" r="5" stroke="black" /></g><g transform="translate(1260,260)"><text font-size="14px" text-anchor="middle" x="100" y="134">•</text></g><g transform="translate(1260,260)"><line stroke="black" x1="100" x2="100" y1="130" y2="180" /></g><g transform="translate(1260,260)"><circle cx="100" cy="180" fill="black" r="5" stroke="black" /></g><g transform="translate(1260,260)"><text font-size="14px" text-anchor="middle" x="100" y="184">•</text></g><g transform="translate(1260,260)"><line stroke="black" x1="100" x2="100" y1="180" y2="230" /></g><g transform="translate(1260,260)"><circle cx="100" cy="230" fill="black" r="5" stroke="black" /></g><g transform="translate(1260,260)"><text font-size="14px" text-anchor="middle" x="100" y="234">•</text></g></svg>